M48
METRIC,TZ
T1C0.300
T2C0.400
T3C0.500
T4C0.700
T5C0.800
T6C0.900
T7C1.000
T8C1.200
T9C1.300
T10C1.500
T11C3.200
%
G90
G05
T1
X102694Y-77157
X102794Y-74007
X102794Y-75357
X103569Y-72107
X103569Y-77582
X103944Y-69657
X104319Y-72107
X104319Y-77582
X104944Y-72607
T2
X74614Y-74637
X74644Y-88282
X74894Y-92557
X78054Y-92547
X78284Y-86197
X78494Y-99857
X79454Y-91787
X80024Y-84407
X80094Y-80307
X82134Y-82347
X82164Y-91827
X83614Y-94267
X84194Y-84417
X84214Y-80287
X87694Y-99132
X89024Y-86637
X91044Y-115292
X93414Y-97997
X93844Y-87007
X96944Y-75807
X96944Y-77307
X97144Y-78657
X98885Y-84746
X100104Y-77247
X100104Y-80447
X100944Y-71957
X101294Y-72957
X101474Y-78517
X105044Y-78807
X105584Y-86797
X105944Y-69357
X106044Y-103832
X108024Y-75987
X109724Y-85677
X110504Y-71347
X110974Y-93687
X111824Y-84887
X112754Y-79937
X112854Y-94997
X114084Y-96707
X114700Y-145600
X116244Y-85107
X116319Y-94472
X117694Y-81682
X117719Y-74757
X118320Y-125850
X118870Y-145500
X119820Y-118175
X122644Y-89707
X124140Y-136760
X124614Y-87107
T4
X118554Y-97132
X121094Y-94592
X123634Y-97132
T5
X97724Y-92742
X97724Y-97142
X117024Y-92352
X109124Y-89202
X109124Y-91742
X117025Y-136350
X117025Y-139850
X113350Y-113650
X116650Y-113650
X87384Y-110332
X90884Y-110332
X95964Y-110302
X99464Y-110302
X117750Y-127800
X117750Y-131300
T6
X99800Y-147125
X104880Y-147125
T7
X86484Y-101602
X86484Y-104142
X89024Y-101602
X89024Y-104142
X91564Y-101602
X91564Y-104142
X94104Y-101602
X94104Y-104142
X109684Y-65097
X109684Y-67637
X112224Y-65097
X112224Y-67637
X114764Y-65097
X114764Y-67637
X109350Y-131100
X109350Y-136100
X99254Y-141537
X102754Y-134037
X91464Y-65257
X91464Y-67797
X94004Y-65257
X94004Y-67797
X96544Y-65257
X96544Y-67797
X102453Y-104951
X109524Y-112022
T8
X99370Y-116695
X99370Y-119235
X99370Y-121775
X99370Y-124315
X99370Y-126855
X109530Y-116695
X109530Y-119235
X109530Y-121775
X109530Y-124315
X109530Y-126855
T9
X87475Y-122850
X87475Y-143150
X87475Y-148190
X94975Y-122850
X94975Y-143150
X94975Y-148190
T10
X79104Y-106692
X79104Y-111692
X79104Y-116692
X79125Y-122800
X79125Y-127800
X79125Y-132800
X79135Y-138125
X79135Y-143125
X79135Y-148125
T11
X123400Y-67107
X78000Y-154000
X123000Y-154000
X78926Y-67107
T3
G00X100294Y-65507
M15
G01X100294Y-64807
M16
G05
G00X106894Y-65507
M15
G01X106894Y-64807
M16
G05
T0
M30
