G04 #@! TF.GenerationSoftware,KiCad,Pcbnew,(5.1.0)-1*
G04 #@! TF.CreationDate,2019-11-06T10:51:47-08:00*
G04 #@! TF.ProjectId,SLS_rev1,534c535f-7265-4763-912e-6b696361645f,rev?*
G04 #@! TF.SameCoordinates,Original*
G04 #@! TF.FileFunction,Copper,L2,Bot*
G04 #@! TF.FilePolarity,Positive*
%FSLAX46Y46*%
G04 Gerber Fmt 4.6, Leading zero omitted, Abs format (unit mm)*
G04 Created by KiCad (PCBNEW (5.1.0)-1) date 2019-11-06 10:51:47*
%MOMM*%
%LPD*%
G04 APERTURE LIST*
%ADD10C,1.800000*%
%ADD11C,2.000000*%
%ADD12C,1.500000*%
%ADD13R,1.500000X1.500000*%
%ADD14C,1.200000*%
%ADD15O,1.700000X1.700000*%
%ADD16R,1.700000X1.700000*%
%ADD17C,1.600000*%
%ADD18R,1.600000X1.600000*%
%ADD19C,5.600000*%
%ADD20C,2.600000*%
%ADD21R,2.600000X2.600000*%
%ADD22R,0.600000X1.200000*%
%ADD23C,0.100000*%
%ADD24C,0.590000*%
%ADD25C,0.875000*%
%ADD26O,1.600000X1.600000*%
%ADD27C,0.975000*%
%ADD28R,0.900000X0.800000*%
%ADD29C,1.950000*%
%ADD30O,0.900000X1.600000*%
%ADD31R,0.590000X0.450000*%
%ADD32C,0.800000*%
%ADD33C,0.500000*%
%ADD34C,0.500000*%
%ADD35C,0.250000*%
%ADD36C,0.800000*%
%ADD37C,1.000000*%
%ADD38C,0.200000*%
%ADD39C,0.254000*%
G04 APERTURE END LIST*
D10*
X102754000Y-134037000D03*
X99254000Y-141537000D03*
D11*
X109350000Y-131100000D03*
X109350000Y-136100000D03*
D12*
X99800000Y-147125000D03*
D13*
X104880000Y-147125000D03*
D14*
X123634000Y-97132000D03*
X121094000Y-94592000D03*
X118554000Y-97132000D03*
D15*
X94104000Y-101602000D03*
X94104000Y-104142000D03*
X91564000Y-101602000D03*
X91564000Y-104142000D03*
X89024000Y-101602000D03*
X89024000Y-104142000D03*
X86484000Y-101602000D03*
D16*
X86484000Y-104142000D03*
D17*
X95964000Y-110302000D03*
D18*
X99464000Y-110302000D03*
D15*
X91464000Y-67797000D03*
X91464000Y-65257000D03*
X94004000Y-67797000D03*
X94004000Y-65257000D03*
X96544000Y-67797000D03*
D16*
X96544000Y-65257000D03*
D15*
X109684000Y-67637000D03*
X109684000Y-65097000D03*
X112224000Y-67637000D03*
X112224000Y-65097000D03*
X114764000Y-67637000D03*
D16*
X114764000Y-65097000D03*
D19*
X78926000Y-67107000D03*
X123000000Y-154000000D03*
X123400000Y-67107000D03*
X78000000Y-154000000D03*
D20*
X79104000Y-116692000D03*
X79104000Y-111692000D03*
D21*
X79104000Y-106692000D03*
D20*
X79125000Y-132800000D03*
X79125000Y-127800000D03*
D21*
X79125000Y-122800000D03*
D20*
X79135000Y-148125000D03*
X79135000Y-143125000D03*
D21*
X79135000Y-138125000D03*
D22*
X114825000Y-122895000D03*
X115775000Y-122895000D03*
X116725000Y-122895000D03*
X116725000Y-120395000D03*
X115775000Y-120395000D03*
X114825000Y-120395000D03*
D12*
X109124000Y-89202000D03*
X109124000Y-91742000D03*
D23*
G36*
X116761958Y-115395710D02*
G01*
X116776276Y-115397834D01*
X116790317Y-115401351D01*
X116803946Y-115406228D01*
X116817031Y-115412417D01*
X116829447Y-115419858D01*
X116841073Y-115428481D01*
X116851798Y-115438202D01*
X116861519Y-115448927D01*
X116870142Y-115460553D01*
X116877583Y-115472969D01*
X116883772Y-115486054D01*
X116888649Y-115499683D01*
X116892166Y-115513724D01*
X116894290Y-115528042D01*
X116895000Y-115542500D01*
X116895000Y-115887500D01*
X116894290Y-115901958D01*
X116892166Y-115916276D01*
X116888649Y-115930317D01*
X116883772Y-115943946D01*
X116877583Y-115957031D01*
X116870142Y-115969447D01*
X116861519Y-115981073D01*
X116851798Y-115991798D01*
X116841073Y-116001519D01*
X116829447Y-116010142D01*
X116817031Y-116017583D01*
X116803946Y-116023772D01*
X116790317Y-116028649D01*
X116776276Y-116032166D01*
X116761958Y-116034290D01*
X116747500Y-116035000D01*
X116452500Y-116035000D01*
X116438042Y-116034290D01*
X116423724Y-116032166D01*
X116409683Y-116028649D01*
X116396054Y-116023772D01*
X116382969Y-116017583D01*
X116370553Y-116010142D01*
X116358927Y-116001519D01*
X116348202Y-115991798D01*
X116338481Y-115981073D01*
X116329858Y-115969447D01*
X116322417Y-115957031D01*
X116316228Y-115943946D01*
X116311351Y-115930317D01*
X116307834Y-115916276D01*
X116305710Y-115901958D01*
X116305000Y-115887500D01*
X116305000Y-115542500D01*
X116305710Y-115528042D01*
X116307834Y-115513724D01*
X116311351Y-115499683D01*
X116316228Y-115486054D01*
X116322417Y-115472969D01*
X116329858Y-115460553D01*
X116338481Y-115448927D01*
X116348202Y-115438202D01*
X116358927Y-115428481D01*
X116370553Y-115419858D01*
X116382969Y-115412417D01*
X116396054Y-115406228D01*
X116409683Y-115401351D01*
X116423724Y-115397834D01*
X116438042Y-115395710D01*
X116452500Y-115395000D01*
X116747500Y-115395000D01*
X116761958Y-115395710D01*
X116761958Y-115395710D01*
G37*
D24*
X116600000Y-115715000D03*
D23*
G36*
X115791958Y-115395710D02*
G01*
X115806276Y-115397834D01*
X115820317Y-115401351D01*
X115833946Y-115406228D01*
X115847031Y-115412417D01*
X115859447Y-115419858D01*
X115871073Y-115428481D01*
X115881798Y-115438202D01*
X115891519Y-115448927D01*
X115900142Y-115460553D01*
X115907583Y-115472969D01*
X115913772Y-115486054D01*
X115918649Y-115499683D01*
X115922166Y-115513724D01*
X115924290Y-115528042D01*
X115925000Y-115542500D01*
X115925000Y-115887500D01*
X115924290Y-115901958D01*
X115922166Y-115916276D01*
X115918649Y-115930317D01*
X115913772Y-115943946D01*
X115907583Y-115957031D01*
X115900142Y-115969447D01*
X115891519Y-115981073D01*
X115881798Y-115991798D01*
X115871073Y-116001519D01*
X115859447Y-116010142D01*
X115847031Y-116017583D01*
X115833946Y-116023772D01*
X115820317Y-116028649D01*
X115806276Y-116032166D01*
X115791958Y-116034290D01*
X115777500Y-116035000D01*
X115482500Y-116035000D01*
X115468042Y-116034290D01*
X115453724Y-116032166D01*
X115439683Y-116028649D01*
X115426054Y-116023772D01*
X115412969Y-116017583D01*
X115400553Y-116010142D01*
X115388927Y-116001519D01*
X115378202Y-115991798D01*
X115368481Y-115981073D01*
X115359858Y-115969447D01*
X115352417Y-115957031D01*
X115346228Y-115943946D01*
X115341351Y-115930317D01*
X115337834Y-115916276D01*
X115335710Y-115901958D01*
X115335000Y-115887500D01*
X115335000Y-115542500D01*
X115335710Y-115528042D01*
X115337834Y-115513724D01*
X115341351Y-115499683D01*
X115346228Y-115486054D01*
X115352417Y-115472969D01*
X115359858Y-115460553D01*
X115368481Y-115448927D01*
X115378202Y-115438202D01*
X115388927Y-115428481D01*
X115400553Y-115419858D01*
X115412969Y-115412417D01*
X115426054Y-115406228D01*
X115439683Y-115401351D01*
X115453724Y-115397834D01*
X115468042Y-115395710D01*
X115482500Y-115395000D01*
X115777500Y-115395000D01*
X115791958Y-115395710D01*
X115791958Y-115395710D01*
G37*
D24*
X115630000Y-115715000D03*
D10*
X99370000Y-116695000D03*
X99370000Y-119235000D03*
X99370000Y-121775000D03*
X99370000Y-124315000D03*
X99370000Y-126855000D03*
X109530000Y-126855000D03*
X109530000Y-124315000D03*
X109530000Y-121775000D03*
X109530000Y-119235000D03*
X109530000Y-116695000D03*
D23*
G36*
X85621691Y-125258053D02*
G01*
X85642926Y-125261203D01*
X85663750Y-125266419D01*
X85683962Y-125273651D01*
X85703368Y-125282830D01*
X85721781Y-125293866D01*
X85739024Y-125306654D01*
X85754930Y-125321070D01*
X85769346Y-125336976D01*
X85782134Y-125354219D01*
X85793170Y-125372632D01*
X85802349Y-125392038D01*
X85809581Y-125412250D01*
X85814797Y-125433074D01*
X85817947Y-125454309D01*
X85819000Y-125475750D01*
X85819000Y-125988250D01*
X85817947Y-126009691D01*
X85814797Y-126030926D01*
X85809581Y-126051750D01*
X85802349Y-126071962D01*
X85793170Y-126091368D01*
X85782134Y-126109781D01*
X85769346Y-126127024D01*
X85754930Y-126142930D01*
X85739024Y-126157346D01*
X85721781Y-126170134D01*
X85703368Y-126181170D01*
X85683962Y-126190349D01*
X85663750Y-126197581D01*
X85642926Y-126202797D01*
X85621691Y-126205947D01*
X85600250Y-126207000D01*
X85162750Y-126207000D01*
X85141309Y-126205947D01*
X85120074Y-126202797D01*
X85099250Y-126197581D01*
X85079038Y-126190349D01*
X85059632Y-126181170D01*
X85041219Y-126170134D01*
X85023976Y-126157346D01*
X85008070Y-126142930D01*
X84993654Y-126127024D01*
X84980866Y-126109781D01*
X84969830Y-126091368D01*
X84960651Y-126071962D01*
X84953419Y-126051750D01*
X84948203Y-126030926D01*
X84945053Y-126009691D01*
X84944000Y-125988250D01*
X84944000Y-125475750D01*
X84945053Y-125454309D01*
X84948203Y-125433074D01*
X84953419Y-125412250D01*
X84960651Y-125392038D01*
X84969830Y-125372632D01*
X84980866Y-125354219D01*
X84993654Y-125336976D01*
X85008070Y-125321070D01*
X85023976Y-125306654D01*
X85041219Y-125293866D01*
X85059632Y-125282830D01*
X85079038Y-125273651D01*
X85099250Y-125266419D01*
X85120074Y-125261203D01*
X85141309Y-125258053D01*
X85162750Y-125257000D01*
X85600250Y-125257000D01*
X85621691Y-125258053D01*
X85621691Y-125258053D01*
G37*
D25*
X85381500Y-125732000D03*
D23*
G36*
X84046691Y-125258053D02*
G01*
X84067926Y-125261203D01*
X84088750Y-125266419D01*
X84108962Y-125273651D01*
X84128368Y-125282830D01*
X84146781Y-125293866D01*
X84164024Y-125306654D01*
X84179930Y-125321070D01*
X84194346Y-125336976D01*
X84207134Y-125354219D01*
X84218170Y-125372632D01*
X84227349Y-125392038D01*
X84234581Y-125412250D01*
X84239797Y-125433074D01*
X84242947Y-125454309D01*
X84244000Y-125475750D01*
X84244000Y-125988250D01*
X84242947Y-126009691D01*
X84239797Y-126030926D01*
X84234581Y-126051750D01*
X84227349Y-126071962D01*
X84218170Y-126091368D01*
X84207134Y-126109781D01*
X84194346Y-126127024D01*
X84179930Y-126142930D01*
X84164024Y-126157346D01*
X84146781Y-126170134D01*
X84128368Y-126181170D01*
X84108962Y-126190349D01*
X84088750Y-126197581D01*
X84067926Y-126202797D01*
X84046691Y-126205947D01*
X84025250Y-126207000D01*
X83587750Y-126207000D01*
X83566309Y-126205947D01*
X83545074Y-126202797D01*
X83524250Y-126197581D01*
X83504038Y-126190349D01*
X83484632Y-126181170D01*
X83466219Y-126170134D01*
X83448976Y-126157346D01*
X83433070Y-126142930D01*
X83418654Y-126127024D01*
X83405866Y-126109781D01*
X83394830Y-126091368D01*
X83385651Y-126071962D01*
X83378419Y-126051750D01*
X83373203Y-126030926D01*
X83370053Y-126009691D01*
X83369000Y-125988250D01*
X83369000Y-125475750D01*
X83370053Y-125454309D01*
X83373203Y-125433074D01*
X83378419Y-125412250D01*
X83385651Y-125392038D01*
X83394830Y-125372632D01*
X83405866Y-125354219D01*
X83418654Y-125336976D01*
X83433070Y-125321070D01*
X83448976Y-125306654D01*
X83466219Y-125293866D01*
X83484632Y-125282830D01*
X83504038Y-125273651D01*
X83524250Y-125266419D01*
X83545074Y-125261203D01*
X83566309Y-125258053D01*
X83587750Y-125257000D01*
X84025250Y-125257000D01*
X84046691Y-125258053D01*
X84046691Y-125258053D01*
G37*
D25*
X83806500Y-125732000D03*
D23*
G36*
X89446691Y-107658053D02*
G01*
X89467926Y-107661203D01*
X89488750Y-107666419D01*
X89508962Y-107673651D01*
X89528368Y-107682830D01*
X89546781Y-107693866D01*
X89564024Y-107706654D01*
X89579930Y-107721070D01*
X89594346Y-107736976D01*
X89607134Y-107754219D01*
X89618170Y-107772632D01*
X89627349Y-107792038D01*
X89634581Y-107812250D01*
X89639797Y-107833074D01*
X89642947Y-107854309D01*
X89644000Y-107875750D01*
X89644000Y-108388250D01*
X89642947Y-108409691D01*
X89639797Y-108430926D01*
X89634581Y-108451750D01*
X89627349Y-108471962D01*
X89618170Y-108491368D01*
X89607134Y-108509781D01*
X89594346Y-108527024D01*
X89579930Y-108542930D01*
X89564024Y-108557346D01*
X89546781Y-108570134D01*
X89528368Y-108581170D01*
X89508962Y-108590349D01*
X89488750Y-108597581D01*
X89467926Y-108602797D01*
X89446691Y-108605947D01*
X89425250Y-108607000D01*
X88987750Y-108607000D01*
X88966309Y-108605947D01*
X88945074Y-108602797D01*
X88924250Y-108597581D01*
X88904038Y-108590349D01*
X88884632Y-108581170D01*
X88866219Y-108570134D01*
X88848976Y-108557346D01*
X88833070Y-108542930D01*
X88818654Y-108527024D01*
X88805866Y-108509781D01*
X88794830Y-108491368D01*
X88785651Y-108471962D01*
X88778419Y-108451750D01*
X88773203Y-108430926D01*
X88770053Y-108409691D01*
X88769000Y-108388250D01*
X88769000Y-107875750D01*
X88770053Y-107854309D01*
X88773203Y-107833074D01*
X88778419Y-107812250D01*
X88785651Y-107792038D01*
X88794830Y-107772632D01*
X88805866Y-107754219D01*
X88818654Y-107736976D01*
X88833070Y-107721070D01*
X88848976Y-107706654D01*
X88866219Y-107693866D01*
X88884632Y-107682830D01*
X88904038Y-107673651D01*
X88924250Y-107666419D01*
X88945074Y-107661203D01*
X88966309Y-107658053D01*
X88987750Y-107657000D01*
X89425250Y-107657000D01*
X89446691Y-107658053D01*
X89446691Y-107658053D01*
G37*
D25*
X89206500Y-108132000D03*
D23*
G36*
X91021691Y-107658053D02*
G01*
X91042926Y-107661203D01*
X91063750Y-107666419D01*
X91083962Y-107673651D01*
X91103368Y-107682830D01*
X91121781Y-107693866D01*
X91139024Y-107706654D01*
X91154930Y-107721070D01*
X91169346Y-107736976D01*
X91182134Y-107754219D01*
X91193170Y-107772632D01*
X91202349Y-107792038D01*
X91209581Y-107812250D01*
X91214797Y-107833074D01*
X91217947Y-107854309D01*
X91219000Y-107875750D01*
X91219000Y-108388250D01*
X91217947Y-108409691D01*
X91214797Y-108430926D01*
X91209581Y-108451750D01*
X91202349Y-108471962D01*
X91193170Y-108491368D01*
X91182134Y-108509781D01*
X91169346Y-108527024D01*
X91154930Y-108542930D01*
X91139024Y-108557346D01*
X91121781Y-108570134D01*
X91103368Y-108581170D01*
X91083962Y-108590349D01*
X91063750Y-108597581D01*
X91042926Y-108602797D01*
X91021691Y-108605947D01*
X91000250Y-108607000D01*
X90562750Y-108607000D01*
X90541309Y-108605947D01*
X90520074Y-108602797D01*
X90499250Y-108597581D01*
X90479038Y-108590349D01*
X90459632Y-108581170D01*
X90441219Y-108570134D01*
X90423976Y-108557346D01*
X90408070Y-108542930D01*
X90393654Y-108527024D01*
X90380866Y-108509781D01*
X90369830Y-108491368D01*
X90360651Y-108471962D01*
X90353419Y-108451750D01*
X90348203Y-108430926D01*
X90345053Y-108409691D01*
X90344000Y-108388250D01*
X90344000Y-107875750D01*
X90345053Y-107854309D01*
X90348203Y-107833074D01*
X90353419Y-107812250D01*
X90360651Y-107792038D01*
X90369830Y-107772632D01*
X90380866Y-107754219D01*
X90393654Y-107736976D01*
X90408070Y-107721070D01*
X90423976Y-107706654D01*
X90441219Y-107693866D01*
X90459632Y-107682830D01*
X90479038Y-107673651D01*
X90499250Y-107666419D01*
X90520074Y-107661203D01*
X90541309Y-107658053D01*
X90562750Y-107657000D01*
X91000250Y-107657000D01*
X91021691Y-107658053D01*
X91021691Y-107658053D01*
G37*
D25*
X90781500Y-108132000D03*
D23*
G36*
X113502691Y-122801053D02*
G01*
X113523926Y-122804203D01*
X113544750Y-122809419D01*
X113564962Y-122816651D01*
X113584368Y-122825830D01*
X113602781Y-122836866D01*
X113620024Y-122849654D01*
X113635930Y-122864070D01*
X113650346Y-122879976D01*
X113663134Y-122897219D01*
X113674170Y-122915632D01*
X113683349Y-122935038D01*
X113690581Y-122955250D01*
X113695797Y-122976074D01*
X113698947Y-122997309D01*
X113700000Y-123018750D01*
X113700000Y-123456250D01*
X113698947Y-123477691D01*
X113695797Y-123498926D01*
X113690581Y-123519750D01*
X113683349Y-123539962D01*
X113674170Y-123559368D01*
X113663134Y-123577781D01*
X113650346Y-123595024D01*
X113635930Y-123610930D01*
X113620024Y-123625346D01*
X113602781Y-123638134D01*
X113584368Y-123649170D01*
X113564962Y-123658349D01*
X113544750Y-123665581D01*
X113523926Y-123670797D01*
X113502691Y-123673947D01*
X113481250Y-123675000D01*
X112968750Y-123675000D01*
X112947309Y-123673947D01*
X112926074Y-123670797D01*
X112905250Y-123665581D01*
X112885038Y-123658349D01*
X112865632Y-123649170D01*
X112847219Y-123638134D01*
X112829976Y-123625346D01*
X112814070Y-123610930D01*
X112799654Y-123595024D01*
X112786866Y-123577781D01*
X112775830Y-123559368D01*
X112766651Y-123539962D01*
X112759419Y-123519750D01*
X112754203Y-123498926D01*
X112751053Y-123477691D01*
X112750000Y-123456250D01*
X112750000Y-123018750D01*
X112751053Y-122997309D01*
X112754203Y-122976074D01*
X112759419Y-122955250D01*
X112766651Y-122935038D01*
X112775830Y-122915632D01*
X112786866Y-122897219D01*
X112799654Y-122879976D01*
X112814070Y-122864070D01*
X112829976Y-122849654D01*
X112847219Y-122836866D01*
X112865632Y-122825830D01*
X112885038Y-122816651D01*
X112905250Y-122809419D01*
X112926074Y-122804203D01*
X112947309Y-122801053D01*
X112968750Y-122800000D01*
X113481250Y-122800000D01*
X113502691Y-122801053D01*
X113502691Y-122801053D01*
G37*
D25*
X113225000Y-123237500D03*
D23*
G36*
X113502691Y-124376053D02*
G01*
X113523926Y-124379203D01*
X113544750Y-124384419D01*
X113564962Y-124391651D01*
X113584368Y-124400830D01*
X113602781Y-124411866D01*
X113620024Y-124424654D01*
X113635930Y-124439070D01*
X113650346Y-124454976D01*
X113663134Y-124472219D01*
X113674170Y-124490632D01*
X113683349Y-124510038D01*
X113690581Y-124530250D01*
X113695797Y-124551074D01*
X113698947Y-124572309D01*
X113700000Y-124593750D01*
X113700000Y-125031250D01*
X113698947Y-125052691D01*
X113695797Y-125073926D01*
X113690581Y-125094750D01*
X113683349Y-125114962D01*
X113674170Y-125134368D01*
X113663134Y-125152781D01*
X113650346Y-125170024D01*
X113635930Y-125185930D01*
X113620024Y-125200346D01*
X113602781Y-125213134D01*
X113584368Y-125224170D01*
X113564962Y-125233349D01*
X113544750Y-125240581D01*
X113523926Y-125245797D01*
X113502691Y-125248947D01*
X113481250Y-125250000D01*
X112968750Y-125250000D01*
X112947309Y-125248947D01*
X112926074Y-125245797D01*
X112905250Y-125240581D01*
X112885038Y-125233349D01*
X112865632Y-125224170D01*
X112847219Y-125213134D01*
X112829976Y-125200346D01*
X112814070Y-125185930D01*
X112799654Y-125170024D01*
X112786866Y-125152781D01*
X112775830Y-125134368D01*
X112766651Y-125114962D01*
X112759419Y-125094750D01*
X112754203Y-125073926D01*
X112751053Y-125052691D01*
X112750000Y-125031250D01*
X112750000Y-124593750D01*
X112751053Y-124572309D01*
X112754203Y-124551074D01*
X112759419Y-124530250D01*
X112766651Y-124510038D01*
X112775830Y-124490632D01*
X112786866Y-124472219D01*
X112799654Y-124454976D01*
X112814070Y-124439070D01*
X112829976Y-124424654D01*
X112847219Y-124411866D01*
X112865632Y-124400830D01*
X112885038Y-124391651D01*
X112905250Y-124384419D01*
X112926074Y-124379203D01*
X112947309Y-124376053D01*
X112968750Y-124375000D01*
X113481250Y-124375000D01*
X113502691Y-124376053D01*
X113502691Y-124376053D01*
G37*
D25*
X113225000Y-124812500D03*
D23*
G36*
X113552691Y-119801053D02*
G01*
X113573926Y-119804203D01*
X113594750Y-119809419D01*
X113614962Y-119816651D01*
X113634368Y-119825830D01*
X113652781Y-119836866D01*
X113670024Y-119849654D01*
X113685930Y-119864070D01*
X113700346Y-119879976D01*
X113713134Y-119897219D01*
X113724170Y-119915632D01*
X113733349Y-119935038D01*
X113740581Y-119955250D01*
X113745797Y-119976074D01*
X113748947Y-119997309D01*
X113750000Y-120018750D01*
X113750000Y-120456250D01*
X113748947Y-120477691D01*
X113745797Y-120498926D01*
X113740581Y-120519750D01*
X113733349Y-120539962D01*
X113724170Y-120559368D01*
X113713134Y-120577781D01*
X113700346Y-120595024D01*
X113685930Y-120610930D01*
X113670024Y-120625346D01*
X113652781Y-120638134D01*
X113634368Y-120649170D01*
X113614962Y-120658349D01*
X113594750Y-120665581D01*
X113573926Y-120670797D01*
X113552691Y-120673947D01*
X113531250Y-120675000D01*
X113018750Y-120675000D01*
X112997309Y-120673947D01*
X112976074Y-120670797D01*
X112955250Y-120665581D01*
X112935038Y-120658349D01*
X112915632Y-120649170D01*
X112897219Y-120638134D01*
X112879976Y-120625346D01*
X112864070Y-120610930D01*
X112849654Y-120595024D01*
X112836866Y-120577781D01*
X112825830Y-120559368D01*
X112816651Y-120539962D01*
X112809419Y-120519750D01*
X112804203Y-120498926D01*
X112801053Y-120477691D01*
X112800000Y-120456250D01*
X112800000Y-120018750D01*
X112801053Y-119997309D01*
X112804203Y-119976074D01*
X112809419Y-119955250D01*
X112816651Y-119935038D01*
X112825830Y-119915632D01*
X112836866Y-119897219D01*
X112849654Y-119879976D01*
X112864070Y-119864070D01*
X112879976Y-119849654D01*
X112897219Y-119836866D01*
X112915632Y-119825830D01*
X112935038Y-119816651D01*
X112955250Y-119809419D01*
X112976074Y-119804203D01*
X112997309Y-119801053D01*
X113018750Y-119800000D01*
X113531250Y-119800000D01*
X113552691Y-119801053D01*
X113552691Y-119801053D01*
G37*
D25*
X113275000Y-120237500D03*
D23*
G36*
X113552691Y-121376053D02*
G01*
X113573926Y-121379203D01*
X113594750Y-121384419D01*
X113614962Y-121391651D01*
X113634368Y-121400830D01*
X113652781Y-121411866D01*
X113670024Y-121424654D01*
X113685930Y-121439070D01*
X113700346Y-121454976D01*
X113713134Y-121472219D01*
X113724170Y-121490632D01*
X113733349Y-121510038D01*
X113740581Y-121530250D01*
X113745797Y-121551074D01*
X113748947Y-121572309D01*
X113750000Y-121593750D01*
X113750000Y-122031250D01*
X113748947Y-122052691D01*
X113745797Y-122073926D01*
X113740581Y-122094750D01*
X113733349Y-122114962D01*
X113724170Y-122134368D01*
X113713134Y-122152781D01*
X113700346Y-122170024D01*
X113685930Y-122185930D01*
X113670024Y-122200346D01*
X113652781Y-122213134D01*
X113634368Y-122224170D01*
X113614962Y-122233349D01*
X113594750Y-122240581D01*
X113573926Y-122245797D01*
X113552691Y-122248947D01*
X113531250Y-122250000D01*
X113018750Y-122250000D01*
X112997309Y-122248947D01*
X112976074Y-122245797D01*
X112955250Y-122240581D01*
X112935038Y-122233349D01*
X112915632Y-122224170D01*
X112897219Y-122213134D01*
X112879976Y-122200346D01*
X112864070Y-122185930D01*
X112849654Y-122170024D01*
X112836866Y-122152781D01*
X112825830Y-122134368D01*
X112816651Y-122114962D01*
X112809419Y-122094750D01*
X112804203Y-122073926D01*
X112801053Y-122052691D01*
X112800000Y-122031250D01*
X112800000Y-121593750D01*
X112801053Y-121572309D01*
X112804203Y-121551074D01*
X112809419Y-121530250D01*
X112816651Y-121510038D01*
X112825830Y-121490632D01*
X112836866Y-121472219D01*
X112849654Y-121454976D01*
X112864070Y-121439070D01*
X112879976Y-121424654D01*
X112897219Y-121411866D01*
X112915632Y-121400830D01*
X112935038Y-121391651D01*
X112955250Y-121384419D01*
X112976074Y-121379203D01*
X112997309Y-121376053D01*
X113018750Y-121375000D01*
X113531250Y-121375000D01*
X113552691Y-121376053D01*
X113552691Y-121376053D01*
G37*
D25*
X113275000Y-121812500D03*
D23*
G36*
X118602691Y-122501053D02*
G01*
X118623926Y-122504203D01*
X118644750Y-122509419D01*
X118664962Y-122516651D01*
X118684368Y-122525830D01*
X118702781Y-122536866D01*
X118720024Y-122549654D01*
X118735930Y-122564070D01*
X118750346Y-122579976D01*
X118763134Y-122597219D01*
X118774170Y-122615632D01*
X118783349Y-122635038D01*
X118790581Y-122655250D01*
X118795797Y-122676074D01*
X118798947Y-122697309D01*
X118800000Y-122718750D01*
X118800000Y-123156250D01*
X118798947Y-123177691D01*
X118795797Y-123198926D01*
X118790581Y-123219750D01*
X118783349Y-123239962D01*
X118774170Y-123259368D01*
X118763134Y-123277781D01*
X118750346Y-123295024D01*
X118735930Y-123310930D01*
X118720024Y-123325346D01*
X118702781Y-123338134D01*
X118684368Y-123349170D01*
X118664962Y-123358349D01*
X118644750Y-123365581D01*
X118623926Y-123370797D01*
X118602691Y-123373947D01*
X118581250Y-123375000D01*
X118068750Y-123375000D01*
X118047309Y-123373947D01*
X118026074Y-123370797D01*
X118005250Y-123365581D01*
X117985038Y-123358349D01*
X117965632Y-123349170D01*
X117947219Y-123338134D01*
X117929976Y-123325346D01*
X117914070Y-123310930D01*
X117899654Y-123295024D01*
X117886866Y-123277781D01*
X117875830Y-123259368D01*
X117866651Y-123239962D01*
X117859419Y-123219750D01*
X117854203Y-123198926D01*
X117851053Y-123177691D01*
X117850000Y-123156250D01*
X117850000Y-122718750D01*
X117851053Y-122697309D01*
X117854203Y-122676074D01*
X117859419Y-122655250D01*
X117866651Y-122635038D01*
X117875830Y-122615632D01*
X117886866Y-122597219D01*
X117899654Y-122579976D01*
X117914070Y-122564070D01*
X117929976Y-122549654D01*
X117947219Y-122536866D01*
X117965632Y-122525830D01*
X117985038Y-122516651D01*
X118005250Y-122509419D01*
X118026074Y-122504203D01*
X118047309Y-122501053D01*
X118068750Y-122500000D01*
X118581250Y-122500000D01*
X118602691Y-122501053D01*
X118602691Y-122501053D01*
G37*
D25*
X118325000Y-122937500D03*
D23*
G36*
X118602691Y-124076053D02*
G01*
X118623926Y-124079203D01*
X118644750Y-124084419D01*
X118664962Y-124091651D01*
X118684368Y-124100830D01*
X118702781Y-124111866D01*
X118720024Y-124124654D01*
X118735930Y-124139070D01*
X118750346Y-124154976D01*
X118763134Y-124172219D01*
X118774170Y-124190632D01*
X118783349Y-124210038D01*
X118790581Y-124230250D01*
X118795797Y-124251074D01*
X118798947Y-124272309D01*
X118800000Y-124293750D01*
X118800000Y-124731250D01*
X118798947Y-124752691D01*
X118795797Y-124773926D01*
X118790581Y-124794750D01*
X118783349Y-124814962D01*
X118774170Y-124834368D01*
X118763134Y-124852781D01*
X118750346Y-124870024D01*
X118735930Y-124885930D01*
X118720024Y-124900346D01*
X118702781Y-124913134D01*
X118684368Y-124924170D01*
X118664962Y-124933349D01*
X118644750Y-124940581D01*
X118623926Y-124945797D01*
X118602691Y-124948947D01*
X118581250Y-124950000D01*
X118068750Y-124950000D01*
X118047309Y-124948947D01*
X118026074Y-124945797D01*
X118005250Y-124940581D01*
X117985038Y-124933349D01*
X117965632Y-124924170D01*
X117947219Y-124913134D01*
X117929976Y-124900346D01*
X117914070Y-124885930D01*
X117899654Y-124870024D01*
X117886866Y-124852781D01*
X117875830Y-124834368D01*
X117866651Y-124814962D01*
X117859419Y-124794750D01*
X117854203Y-124773926D01*
X117851053Y-124752691D01*
X117850000Y-124731250D01*
X117850000Y-124293750D01*
X117851053Y-124272309D01*
X117854203Y-124251074D01*
X117859419Y-124230250D01*
X117866651Y-124210038D01*
X117875830Y-124190632D01*
X117886866Y-124172219D01*
X117899654Y-124154976D01*
X117914070Y-124139070D01*
X117929976Y-124124654D01*
X117947219Y-124111866D01*
X117965632Y-124100830D01*
X117985038Y-124091651D01*
X118005250Y-124084419D01*
X118026074Y-124079203D01*
X118047309Y-124076053D01*
X118068750Y-124075000D01*
X118581250Y-124075000D01*
X118602691Y-124076053D01*
X118602691Y-124076053D01*
G37*
D25*
X118325000Y-124512500D03*
D23*
G36*
X118477691Y-119951053D02*
G01*
X118498926Y-119954203D01*
X118519750Y-119959419D01*
X118539962Y-119966651D01*
X118559368Y-119975830D01*
X118577781Y-119986866D01*
X118595024Y-119999654D01*
X118610930Y-120014070D01*
X118625346Y-120029976D01*
X118638134Y-120047219D01*
X118649170Y-120065632D01*
X118658349Y-120085038D01*
X118665581Y-120105250D01*
X118670797Y-120126074D01*
X118673947Y-120147309D01*
X118675000Y-120168750D01*
X118675000Y-120681250D01*
X118673947Y-120702691D01*
X118670797Y-120723926D01*
X118665581Y-120744750D01*
X118658349Y-120764962D01*
X118649170Y-120784368D01*
X118638134Y-120802781D01*
X118625346Y-120820024D01*
X118610930Y-120835930D01*
X118595024Y-120850346D01*
X118577781Y-120863134D01*
X118559368Y-120874170D01*
X118539962Y-120883349D01*
X118519750Y-120890581D01*
X118498926Y-120895797D01*
X118477691Y-120898947D01*
X118456250Y-120900000D01*
X118018750Y-120900000D01*
X117997309Y-120898947D01*
X117976074Y-120895797D01*
X117955250Y-120890581D01*
X117935038Y-120883349D01*
X117915632Y-120874170D01*
X117897219Y-120863134D01*
X117879976Y-120850346D01*
X117864070Y-120835930D01*
X117849654Y-120820024D01*
X117836866Y-120802781D01*
X117825830Y-120784368D01*
X117816651Y-120764962D01*
X117809419Y-120744750D01*
X117804203Y-120723926D01*
X117801053Y-120702691D01*
X117800000Y-120681250D01*
X117800000Y-120168750D01*
X117801053Y-120147309D01*
X117804203Y-120126074D01*
X117809419Y-120105250D01*
X117816651Y-120085038D01*
X117825830Y-120065632D01*
X117836866Y-120047219D01*
X117849654Y-120029976D01*
X117864070Y-120014070D01*
X117879976Y-119999654D01*
X117897219Y-119986866D01*
X117915632Y-119975830D01*
X117935038Y-119966651D01*
X117955250Y-119959419D01*
X117976074Y-119954203D01*
X117997309Y-119951053D01*
X118018750Y-119950000D01*
X118456250Y-119950000D01*
X118477691Y-119951053D01*
X118477691Y-119951053D01*
G37*
D25*
X118237500Y-120425000D03*
D23*
G36*
X120052691Y-119951053D02*
G01*
X120073926Y-119954203D01*
X120094750Y-119959419D01*
X120114962Y-119966651D01*
X120134368Y-119975830D01*
X120152781Y-119986866D01*
X120170024Y-119999654D01*
X120185930Y-120014070D01*
X120200346Y-120029976D01*
X120213134Y-120047219D01*
X120224170Y-120065632D01*
X120233349Y-120085038D01*
X120240581Y-120105250D01*
X120245797Y-120126074D01*
X120248947Y-120147309D01*
X120250000Y-120168750D01*
X120250000Y-120681250D01*
X120248947Y-120702691D01*
X120245797Y-120723926D01*
X120240581Y-120744750D01*
X120233349Y-120764962D01*
X120224170Y-120784368D01*
X120213134Y-120802781D01*
X120200346Y-120820024D01*
X120185930Y-120835930D01*
X120170024Y-120850346D01*
X120152781Y-120863134D01*
X120134368Y-120874170D01*
X120114962Y-120883349D01*
X120094750Y-120890581D01*
X120073926Y-120895797D01*
X120052691Y-120898947D01*
X120031250Y-120900000D01*
X119593750Y-120900000D01*
X119572309Y-120898947D01*
X119551074Y-120895797D01*
X119530250Y-120890581D01*
X119510038Y-120883349D01*
X119490632Y-120874170D01*
X119472219Y-120863134D01*
X119454976Y-120850346D01*
X119439070Y-120835930D01*
X119424654Y-120820024D01*
X119411866Y-120802781D01*
X119400830Y-120784368D01*
X119391651Y-120764962D01*
X119384419Y-120744750D01*
X119379203Y-120723926D01*
X119376053Y-120702691D01*
X119375000Y-120681250D01*
X119375000Y-120168750D01*
X119376053Y-120147309D01*
X119379203Y-120126074D01*
X119384419Y-120105250D01*
X119391651Y-120085038D01*
X119400830Y-120065632D01*
X119411866Y-120047219D01*
X119424654Y-120029976D01*
X119439070Y-120014070D01*
X119454976Y-119999654D01*
X119472219Y-119986866D01*
X119490632Y-119975830D01*
X119510038Y-119966651D01*
X119530250Y-119959419D01*
X119551074Y-119954203D01*
X119572309Y-119951053D01*
X119593750Y-119950000D01*
X120031250Y-119950000D01*
X120052691Y-119951053D01*
X120052691Y-119951053D01*
G37*
D25*
X119812500Y-120425000D03*
D26*
X116650000Y-113650000D03*
D17*
X113350000Y-113650000D03*
D23*
G36*
X114262691Y-116331053D02*
G01*
X114283926Y-116334203D01*
X114304750Y-116339419D01*
X114324962Y-116346651D01*
X114344368Y-116355830D01*
X114362781Y-116366866D01*
X114380024Y-116379654D01*
X114395930Y-116394070D01*
X114410346Y-116409976D01*
X114423134Y-116427219D01*
X114434170Y-116445632D01*
X114443349Y-116465038D01*
X114450581Y-116485250D01*
X114455797Y-116506074D01*
X114458947Y-116527309D01*
X114460000Y-116548750D01*
X114460000Y-117061250D01*
X114458947Y-117082691D01*
X114455797Y-117103926D01*
X114450581Y-117124750D01*
X114443349Y-117144962D01*
X114434170Y-117164368D01*
X114423134Y-117182781D01*
X114410346Y-117200024D01*
X114395930Y-117215930D01*
X114380024Y-117230346D01*
X114362781Y-117243134D01*
X114344368Y-117254170D01*
X114324962Y-117263349D01*
X114304750Y-117270581D01*
X114283926Y-117275797D01*
X114262691Y-117278947D01*
X114241250Y-117280000D01*
X113803750Y-117280000D01*
X113782309Y-117278947D01*
X113761074Y-117275797D01*
X113740250Y-117270581D01*
X113720038Y-117263349D01*
X113700632Y-117254170D01*
X113682219Y-117243134D01*
X113664976Y-117230346D01*
X113649070Y-117215930D01*
X113634654Y-117200024D01*
X113621866Y-117182781D01*
X113610830Y-117164368D01*
X113601651Y-117144962D01*
X113594419Y-117124750D01*
X113589203Y-117103926D01*
X113586053Y-117082691D01*
X113585000Y-117061250D01*
X113585000Y-116548750D01*
X113586053Y-116527309D01*
X113589203Y-116506074D01*
X113594419Y-116485250D01*
X113601651Y-116465038D01*
X113610830Y-116445632D01*
X113621866Y-116427219D01*
X113634654Y-116409976D01*
X113649070Y-116394070D01*
X113664976Y-116379654D01*
X113682219Y-116366866D01*
X113700632Y-116355830D01*
X113720038Y-116346651D01*
X113740250Y-116339419D01*
X113761074Y-116334203D01*
X113782309Y-116331053D01*
X113803750Y-116330000D01*
X114241250Y-116330000D01*
X114262691Y-116331053D01*
X114262691Y-116331053D01*
G37*
D25*
X114022500Y-116805000D03*
D23*
G36*
X112687691Y-116331053D02*
G01*
X112708926Y-116334203D01*
X112729750Y-116339419D01*
X112749962Y-116346651D01*
X112769368Y-116355830D01*
X112787781Y-116366866D01*
X112805024Y-116379654D01*
X112820930Y-116394070D01*
X112835346Y-116409976D01*
X112848134Y-116427219D01*
X112859170Y-116445632D01*
X112868349Y-116465038D01*
X112875581Y-116485250D01*
X112880797Y-116506074D01*
X112883947Y-116527309D01*
X112885000Y-116548750D01*
X112885000Y-117061250D01*
X112883947Y-117082691D01*
X112880797Y-117103926D01*
X112875581Y-117124750D01*
X112868349Y-117144962D01*
X112859170Y-117164368D01*
X112848134Y-117182781D01*
X112835346Y-117200024D01*
X112820930Y-117215930D01*
X112805024Y-117230346D01*
X112787781Y-117243134D01*
X112769368Y-117254170D01*
X112749962Y-117263349D01*
X112729750Y-117270581D01*
X112708926Y-117275797D01*
X112687691Y-117278947D01*
X112666250Y-117280000D01*
X112228750Y-117280000D01*
X112207309Y-117278947D01*
X112186074Y-117275797D01*
X112165250Y-117270581D01*
X112145038Y-117263349D01*
X112125632Y-117254170D01*
X112107219Y-117243134D01*
X112089976Y-117230346D01*
X112074070Y-117215930D01*
X112059654Y-117200024D01*
X112046866Y-117182781D01*
X112035830Y-117164368D01*
X112026651Y-117144962D01*
X112019419Y-117124750D01*
X112014203Y-117103926D01*
X112011053Y-117082691D01*
X112010000Y-117061250D01*
X112010000Y-116548750D01*
X112011053Y-116527309D01*
X112014203Y-116506074D01*
X112019419Y-116485250D01*
X112026651Y-116465038D01*
X112035830Y-116445632D01*
X112046866Y-116427219D01*
X112059654Y-116409976D01*
X112074070Y-116394070D01*
X112089976Y-116379654D01*
X112107219Y-116366866D01*
X112125632Y-116355830D01*
X112145038Y-116346651D01*
X112165250Y-116339419D01*
X112186074Y-116334203D01*
X112207309Y-116331053D01*
X112228750Y-116330000D01*
X112666250Y-116330000D01*
X112687691Y-116331053D01*
X112687691Y-116331053D01*
G37*
D25*
X112447500Y-116805000D03*
D23*
G36*
X121850142Y-124071174D02*
G01*
X121873803Y-124074684D01*
X121897007Y-124080496D01*
X121919529Y-124088554D01*
X121941153Y-124098782D01*
X121961670Y-124111079D01*
X121980883Y-124125329D01*
X121998607Y-124141393D01*
X122014671Y-124159117D01*
X122028921Y-124178330D01*
X122041218Y-124198847D01*
X122051446Y-124220471D01*
X122059504Y-124242993D01*
X122065316Y-124266197D01*
X122068826Y-124289858D01*
X122070000Y-124313750D01*
X122070000Y-124801250D01*
X122068826Y-124825142D01*
X122065316Y-124848803D01*
X122059504Y-124872007D01*
X122051446Y-124894529D01*
X122041218Y-124916153D01*
X122028921Y-124936670D01*
X122014671Y-124955883D01*
X121998607Y-124973607D01*
X121980883Y-124989671D01*
X121961670Y-125003921D01*
X121941153Y-125016218D01*
X121919529Y-125026446D01*
X121897007Y-125034504D01*
X121873803Y-125040316D01*
X121850142Y-125043826D01*
X121826250Y-125045000D01*
X120913750Y-125045000D01*
X120889858Y-125043826D01*
X120866197Y-125040316D01*
X120842993Y-125034504D01*
X120820471Y-125026446D01*
X120798847Y-125016218D01*
X120778330Y-125003921D01*
X120759117Y-124989671D01*
X120741393Y-124973607D01*
X120725329Y-124955883D01*
X120711079Y-124936670D01*
X120698782Y-124916153D01*
X120688554Y-124894529D01*
X120680496Y-124872007D01*
X120674684Y-124848803D01*
X120671174Y-124825142D01*
X120670000Y-124801250D01*
X120670000Y-124313750D01*
X120671174Y-124289858D01*
X120674684Y-124266197D01*
X120680496Y-124242993D01*
X120688554Y-124220471D01*
X120698782Y-124198847D01*
X120711079Y-124178330D01*
X120725329Y-124159117D01*
X120741393Y-124141393D01*
X120759117Y-124125329D01*
X120778330Y-124111079D01*
X120798847Y-124098782D01*
X120820471Y-124088554D01*
X120842993Y-124080496D01*
X120866197Y-124074684D01*
X120889858Y-124071174D01*
X120913750Y-124070000D01*
X121826250Y-124070000D01*
X121850142Y-124071174D01*
X121850142Y-124071174D01*
G37*
D27*
X121370000Y-124557500D03*
D23*
G36*
X121850142Y-122196174D02*
G01*
X121873803Y-122199684D01*
X121897007Y-122205496D01*
X121919529Y-122213554D01*
X121941153Y-122223782D01*
X121961670Y-122236079D01*
X121980883Y-122250329D01*
X121998607Y-122266393D01*
X122014671Y-122284117D01*
X122028921Y-122303330D01*
X122041218Y-122323847D01*
X122051446Y-122345471D01*
X122059504Y-122367993D01*
X122065316Y-122391197D01*
X122068826Y-122414858D01*
X122070000Y-122438750D01*
X122070000Y-122926250D01*
X122068826Y-122950142D01*
X122065316Y-122973803D01*
X122059504Y-122997007D01*
X122051446Y-123019529D01*
X122041218Y-123041153D01*
X122028921Y-123061670D01*
X122014671Y-123080883D01*
X121998607Y-123098607D01*
X121980883Y-123114671D01*
X121961670Y-123128921D01*
X121941153Y-123141218D01*
X121919529Y-123151446D01*
X121897007Y-123159504D01*
X121873803Y-123165316D01*
X121850142Y-123168826D01*
X121826250Y-123170000D01*
X120913750Y-123170000D01*
X120889858Y-123168826D01*
X120866197Y-123165316D01*
X120842993Y-123159504D01*
X120820471Y-123151446D01*
X120798847Y-123141218D01*
X120778330Y-123128921D01*
X120759117Y-123114671D01*
X120741393Y-123098607D01*
X120725329Y-123080883D01*
X120711079Y-123061670D01*
X120698782Y-123041153D01*
X120688554Y-123019529D01*
X120680496Y-122997007D01*
X120674684Y-122973803D01*
X120671174Y-122950142D01*
X120670000Y-122926250D01*
X120670000Y-122438750D01*
X120671174Y-122414858D01*
X120674684Y-122391197D01*
X120680496Y-122367993D01*
X120688554Y-122345471D01*
X120698782Y-122323847D01*
X120711079Y-122303330D01*
X120725329Y-122284117D01*
X120741393Y-122266393D01*
X120759117Y-122250329D01*
X120778330Y-122236079D01*
X120798847Y-122223782D01*
X120820471Y-122213554D01*
X120842993Y-122205496D01*
X120866197Y-122199684D01*
X120889858Y-122196174D01*
X120913750Y-122195000D01*
X121826250Y-122195000D01*
X121850142Y-122196174D01*
X121850142Y-122196174D01*
G37*
D27*
X121370000Y-122682500D03*
D23*
G36*
X121880142Y-127471174D02*
G01*
X121903803Y-127474684D01*
X121927007Y-127480496D01*
X121949529Y-127488554D01*
X121971153Y-127498782D01*
X121991670Y-127511079D01*
X122010883Y-127525329D01*
X122028607Y-127541393D01*
X122044671Y-127559117D01*
X122058921Y-127578330D01*
X122071218Y-127598847D01*
X122081446Y-127620471D01*
X122089504Y-127642993D01*
X122095316Y-127666197D01*
X122098826Y-127689858D01*
X122100000Y-127713750D01*
X122100000Y-128201250D01*
X122098826Y-128225142D01*
X122095316Y-128248803D01*
X122089504Y-128272007D01*
X122081446Y-128294529D01*
X122071218Y-128316153D01*
X122058921Y-128336670D01*
X122044671Y-128355883D01*
X122028607Y-128373607D01*
X122010883Y-128389671D01*
X121991670Y-128403921D01*
X121971153Y-128416218D01*
X121949529Y-128426446D01*
X121927007Y-128434504D01*
X121903803Y-128440316D01*
X121880142Y-128443826D01*
X121856250Y-128445000D01*
X120943750Y-128445000D01*
X120919858Y-128443826D01*
X120896197Y-128440316D01*
X120872993Y-128434504D01*
X120850471Y-128426446D01*
X120828847Y-128416218D01*
X120808330Y-128403921D01*
X120789117Y-128389671D01*
X120771393Y-128373607D01*
X120755329Y-128355883D01*
X120741079Y-128336670D01*
X120728782Y-128316153D01*
X120718554Y-128294529D01*
X120710496Y-128272007D01*
X120704684Y-128248803D01*
X120701174Y-128225142D01*
X120700000Y-128201250D01*
X120700000Y-127713750D01*
X120701174Y-127689858D01*
X120704684Y-127666197D01*
X120710496Y-127642993D01*
X120718554Y-127620471D01*
X120728782Y-127598847D01*
X120741079Y-127578330D01*
X120755329Y-127559117D01*
X120771393Y-127541393D01*
X120789117Y-127525329D01*
X120808330Y-127511079D01*
X120828847Y-127498782D01*
X120850471Y-127488554D01*
X120872993Y-127480496D01*
X120896197Y-127474684D01*
X120919858Y-127471174D01*
X120943750Y-127470000D01*
X121856250Y-127470000D01*
X121880142Y-127471174D01*
X121880142Y-127471174D01*
G37*
D27*
X121400000Y-127957500D03*
D23*
G36*
X121880142Y-125596174D02*
G01*
X121903803Y-125599684D01*
X121927007Y-125605496D01*
X121949529Y-125613554D01*
X121971153Y-125623782D01*
X121991670Y-125636079D01*
X122010883Y-125650329D01*
X122028607Y-125666393D01*
X122044671Y-125684117D01*
X122058921Y-125703330D01*
X122071218Y-125723847D01*
X122081446Y-125745471D01*
X122089504Y-125767993D01*
X122095316Y-125791197D01*
X122098826Y-125814858D01*
X122100000Y-125838750D01*
X122100000Y-126326250D01*
X122098826Y-126350142D01*
X122095316Y-126373803D01*
X122089504Y-126397007D01*
X122081446Y-126419529D01*
X122071218Y-126441153D01*
X122058921Y-126461670D01*
X122044671Y-126480883D01*
X122028607Y-126498607D01*
X122010883Y-126514671D01*
X121991670Y-126528921D01*
X121971153Y-126541218D01*
X121949529Y-126551446D01*
X121927007Y-126559504D01*
X121903803Y-126565316D01*
X121880142Y-126568826D01*
X121856250Y-126570000D01*
X120943750Y-126570000D01*
X120919858Y-126568826D01*
X120896197Y-126565316D01*
X120872993Y-126559504D01*
X120850471Y-126551446D01*
X120828847Y-126541218D01*
X120808330Y-126528921D01*
X120789117Y-126514671D01*
X120771393Y-126498607D01*
X120755329Y-126480883D01*
X120741079Y-126461670D01*
X120728782Y-126441153D01*
X120718554Y-126419529D01*
X120710496Y-126397007D01*
X120704684Y-126373803D01*
X120701174Y-126350142D01*
X120700000Y-126326250D01*
X120700000Y-125838750D01*
X120701174Y-125814858D01*
X120704684Y-125791197D01*
X120710496Y-125767993D01*
X120718554Y-125745471D01*
X120728782Y-125723847D01*
X120741079Y-125703330D01*
X120755329Y-125684117D01*
X120771393Y-125666393D01*
X120789117Y-125650329D01*
X120808330Y-125636079D01*
X120828847Y-125623782D01*
X120850471Y-125613554D01*
X120872993Y-125605496D01*
X120896197Y-125599684D01*
X120919858Y-125596174D01*
X120943750Y-125595000D01*
X121856250Y-125595000D01*
X121880142Y-125596174D01*
X121880142Y-125596174D01*
G37*
D27*
X121400000Y-126082500D03*
D23*
G36*
X121900142Y-130831174D02*
G01*
X121923803Y-130834684D01*
X121947007Y-130840496D01*
X121969529Y-130848554D01*
X121991153Y-130858782D01*
X122011670Y-130871079D01*
X122030883Y-130885329D01*
X122048607Y-130901393D01*
X122064671Y-130919117D01*
X122078921Y-130938330D01*
X122091218Y-130958847D01*
X122101446Y-130980471D01*
X122109504Y-131002993D01*
X122115316Y-131026197D01*
X122118826Y-131049858D01*
X122120000Y-131073750D01*
X122120000Y-131561250D01*
X122118826Y-131585142D01*
X122115316Y-131608803D01*
X122109504Y-131632007D01*
X122101446Y-131654529D01*
X122091218Y-131676153D01*
X122078921Y-131696670D01*
X122064671Y-131715883D01*
X122048607Y-131733607D01*
X122030883Y-131749671D01*
X122011670Y-131763921D01*
X121991153Y-131776218D01*
X121969529Y-131786446D01*
X121947007Y-131794504D01*
X121923803Y-131800316D01*
X121900142Y-131803826D01*
X121876250Y-131805000D01*
X120963750Y-131805000D01*
X120939858Y-131803826D01*
X120916197Y-131800316D01*
X120892993Y-131794504D01*
X120870471Y-131786446D01*
X120848847Y-131776218D01*
X120828330Y-131763921D01*
X120809117Y-131749671D01*
X120791393Y-131733607D01*
X120775329Y-131715883D01*
X120761079Y-131696670D01*
X120748782Y-131676153D01*
X120738554Y-131654529D01*
X120730496Y-131632007D01*
X120724684Y-131608803D01*
X120721174Y-131585142D01*
X120720000Y-131561250D01*
X120720000Y-131073750D01*
X120721174Y-131049858D01*
X120724684Y-131026197D01*
X120730496Y-131002993D01*
X120738554Y-130980471D01*
X120748782Y-130958847D01*
X120761079Y-130938330D01*
X120775329Y-130919117D01*
X120791393Y-130901393D01*
X120809117Y-130885329D01*
X120828330Y-130871079D01*
X120848847Y-130858782D01*
X120870471Y-130848554D01*
X120892993Y-130840496D01*
X120916197Y-130834684D01*
X120939858Y-130831174D01*
X120963750Y-130830000D01*
X121876250Y-130830000D01*
X121900142Y-130831174D01*
X121900142Y-130831174D01*
G37*
D27*
X121420000Y-131317500D03*
D23*
G36*
X121900142Y-128956174D02*
G01*
X121923803Y-128959684D01*
X121947007Y-128965496D01*
X121969529Y-128973554D01*
X121991153Y-128983782D01*
X122011670Y-128996079D01*
X122030883Y-129010329D01*
X122048607Y-129026393D01*
X122064671Y-129044117D01*
X122078921Y-129063330D01*
X122091218Y-129083847D01*
X122101446Y-129105471D01*
X122109504Y-129127993D01*
X122115316Y-129151197D01*
X122118826Y-129174858D01*
X122120000Y-129198750D01*
X122120000Y-129686250D01*
X122118826Y-129710142D01*
X122115316Y-129733803D01*
X122109504Y-129757007D01*
X122101446Y-129779529D01*
X122091218Y-129801153D01*
X122078921Y-129821670D01*
X122064671Y-129840883D01*
X122048607Y-129858607D01*
X122030883Y-129874671D01*
X122011670Y-129888921D01*
X121991153Y-129901218D01*
X121969529Y-129911446D01*
X121947007Y-129919504D01*
X121923803Y-129925316D01*
X121900142Y-129928826D01*
X121876250Y-129930000D01*
X120963750Y-129930000D01*
X120939858Y-129928826D01*
X120916197Y-129925316D01*
X120892993Y-129919504D01*
X120870471Y-129911446D01*
X120848847Y-129901218D01*
X120828330Y-129888921D01*
X120809117Y-129874671D01*
X120791393Y-129858607D01*
X120775329Y-129840883D01*
X120761079Y-129821670D01*
X120748782Y-129801153D01*
X120738554Y-129779529D01*
X120730496Y-129757007D01*
X120724684Y-129733803D01*
X120721174Y-129710142D01*
X120720000Y-129686250D01*
X120720000Y-129198750D01*
X120721174Y-129174858D01*
X120724684Y-129151197D01*
X120730496Y-129127993D01*
X120738554Y-129105471D01*
X120748782Y-129083847D01*
X120761079Y-129063330D01*
X120775329Y-129044117D01*
X120791393Y-129026393D01*
X120809117Y-129010329D01*
X120828330Y-128996079D01*
X120848847Y-128983782D01*
X120870471Y-128973554D01*
X120892993Y-128965496D01*
X120916197Y-128959684D01*
X120939858Y-128956174D01*
X120963750Y-128955000D01*
X121876250Y-128955000D01*
X121900142Y-128956174D01*
X121900142Y-128956174D01*
G37*
D27*
X121420000Y-129442500D03*
D23*
G36*
X107257691Y-133831053D02*
G01*
X107278926Y-133834203D01*
X107299750Y-133839419D01*
X107319962Y-133846651D01*
X107339368Y-133855830D01*
X107357781Y-133866866D01*
X107375024Y-133879654D01*
X107390930Y-133894070D01*
X107405346Y-133909976D01*
X107418134Y-133927219D01*
X107429170Y-133945632D01*
X107438349Y-133965038D01*
X107445581Y-133985250D01*
X107450797Y-134006074D01*
X107453947Y-134027309D01*
X107455000Y-134048750D01*
X107455000Y-134486250D01*
X107453947Y-134507691D01*
X107450797Y-134528926D01*
X107445581Y-134549750D01*
X107438349Y-134569962D01*
X107429170Y-134589368D01*
X107418134Y-134607781D01*
X107405346Y-134625024D01*
X107390930Y-134640930D01*
X107375024Y-134655346D01*
X107357781Y-134668134D01*
X107339368Y-134679170D01*
X107319962Y-134688349D01*
X107299750Y-134695581D01*
X107278926Y-134700797D01*
X107257691Y-134703947D01*
X107236250Y-134705000D01*
X106723750Y-134705000D01*
X106702309Y-134703947D01*
X106681074Y-134700797D01*
X106660250Y-134695581D01*
X106640038Y-134688349D01*
X106620632Y-134679170D01*
X106602219Y-134668134D01*
X106584976Y-134655346D01*
X106569070Y-134640930D01*
X106554654Y-134625024D01*
X106541866Y-134607781D01*
X106530830Y-134589368D01*
X106521651Y-134569962D01*
X106514419Y-134549750D01*
X106509203Y-134528926D01*
X106506053Y-134507691D01*
X106505000Y-134486250D01*
X106505000Y-134048750D01*
X106506053Y-134027309D01*
X106509203Y-134006074D01*
X106514419Y-133985250D01*
X106521651Y-133965038D01*
X106530830Y-133945632D01*
X106541866Y-133927219D01*
X106554654Y-133909976D01*
X106569070Y-133894070D01*
X106584976Y-133879654D01*
X106602219Y-133866866D01*
X106620632Y-133855830D01*
X106640038Y-133846651D01*
X106660250Y-133839419D01*
X106681074Y-133834203D01*
X106702309Y-133831053D01*
X106723750Y-133830000D01*
X107236250Y-133830000D01*
X107257691Y-133831053D01*
X107257691Y-133831053D01*
G37*
D25*
X106980000Y-134267500D03*
D23*
G36*
X107257691Y-132256053D02*
G01*
X107278926Y-132259203D01*
X107299750Y-132264419D01*
X107319962Y-132271651D01*
X107339368Y-132280830D01*
X107357781Y-132291866D01*
X107375024Y-132304654D01*
X107390930Y-132319070D01*
X107405346Y-132334976D01*
X107418134Y-132352219D01*
X107429170Y-132370632D01*
X107438349Y-132390038D01*
X107445581Y-132410250D01*
X107450797Y-132431074D01*
X107453947Y-132452309D01*
X107455000Y-132473750D01*
X107455000Y-132911250D01*
X107453947Y-132932691D01*
X107450797Y-132953926D01*
X107445581Y-132974750D01*
X107438349Y-132994962D01*
X107429170Y-133014368D01*
X107418134Y-133032781D01*
X107405346Y-133050024D01*
X107390930Y-133065930D01*
X107375024Y-133080346D01*
X107357781Y-133093134D01*
X107339368Y-133104170D01*
X107319962Y-133113349D01*
X107299750Y-133120581D01*
X107278926Y-133125797D01*
X107257691Y-133128947D01*
X107236250Y-133130000D01*
X106723750Y-133130000D01*
X106702309Y-133128947D01*
X106681074Y-133125797D01*
X106660250Y-133120581D01*
X106640038Y-133113349D01*
X106620632Y-133104170D01*
X106602219Y-133093134D01*
X106584976Y-133080346D01*
X106569070Y-133065930D01*
X106554654Y-133050024D01*
X106541866Y-133032781D01*
X106530830Y-133014368D01*
X106521651Y-132994962D01*
X106514419Y-132974750D01*
X106509203Y-132953926D01*
X106506053Y-132932691D01*
X106505000Y-132911250D01*
X106505000Y-132473750D01*
X106506053Y-132452309D01*
X106509203Y-132431074D01*
X106514419Y-132410250D01*
X106521651Y-132390038D01*
X106530830Y-132370632D01*
X106541866Y-132352219D01*
X106554654Y-132334976D01*
X106569070Y-132319070D01*
X106584976Y-132304654D01*
X106602219Y-132291866D01*
X106620632Y-132280830D01*
X106640038Y-132271651D01*
X106660250Y-132264419D01*
X106681074Y-132259203D01*
X106702309Y-132256053D01*
X106723750Y-132255000D01*
X107236250Y-132255000D01*
X107257691Y-132256053D01*
X107257691Y-132256053D01*
G37*
D25*
X106980000Y-132692500D03*
D28*
X91894000Y-123232000D03*
X89894000Y-122282000D03*
X89894000Y-124182000D03*
D29*
X94975000Y-122850000D03*
X94975000Y-143150000D03*
X94975000Y-148190000D03*
X87475000Y-148190000D03*
X87475000Y-143150000D03*
X87475000Y-122850000D03*
D30*
X106894000Y-65157000D03*
X100294000Y-65157000D03*
D31*
X112020000Y-118575000D03*
X114130000Y-118575000D03*
D11*
X102452932Y-104950932D03*
X109524000Y-112022000D03*
D17*
X90884000Y-110332000D03*
D18*
X87384000Y-110332000D03*
D23*
G36*
X116766958Y-116350710D02*
G01*
X116781276Y-116352834D01*
X116795317Y-116356351D01*
X116808946Y-116361228D01*
X116822031Y-116367417D01*
X116834447Y-116374858D01*
X116846073Y-116383481D01*
X116856798Y-116393202D01*
X116866519Y-116403927D01*
X116875142Y-116415553D01*
X116882583Y-116427969D01*
X116888772Y-116441054D01*
X116893649Y-116454683D01*
X116897166Y-116468724D01*
X116899290Y-116483042D01*
X116900000Y-116497500D01*
X116900000Y-116842500D01*
X116899290Y-116856958D01*
X116897166Y-116871276D01*
X116893649Y-116885317D01*
X116888772Y-116898946D01*
X116882583Y-116912031D01*
X116875142Y-116924447D01*
X116866519Y-116936073D01*
X116856798Y-116946798D01*
X116846073Y-116956519D01*
X116834447Y-116965142D01*
X116822031Y-116972583D01*
X116808946Y-116978772D01*
X116795317Y-116983649D01*
X116781276Y-116987166D01*
X116766958Y-116989290D01*
X116752500Y-116990000D01*
X116457500Y-116990000D01*
X116443042Y-116989290D01*
X116428724Y-116987166D01*
X116414683Y-116983649D01*
X116401054Y-116978772D01*
X116387969Y-116972583D01*
X116375553Y-116965142D01*
X116363927Y-116956519D01*
X116353202Y-116946798D01*
X116343481Y-116936073D01*
X116334858Y-116924447D01*
X116327417Y-116912031D01*
X116321228Y-116898946D01*
X116316351Y-116885317D01*
X116312834Y-116871276D01*
X116310710Y-116856958D01*
X116310000Y-116842500D01*
X116310000Y-116497500D01*
X116310710Y-116483042D01*
X116312834Y-116468724D01*
X116316351Y-116454683D01*
X116321228Y-116441054D01*
X116327417Y-116427969D01*
X116334858Y-116415553D01*
X116343481Y-116403927D01*
X116353202Y-116393202D01*
X116363927Y-116383481D01*
X116375553Y-116374858D01*
X116387969Y-116367417D01*
X116401054Y-116361228D01*
X116414683Y-116356351D01*
X116428724Y-116352834D01*
X116443042Y-116350710D01*
X116457500Y-116350000D01*
X116752500Y-116350000D01*
X116766958Y-116350710D01*
X116766958Y-116350710D01*
G37*
D24*
X116605000Y-116670000D03*
D23*
G36*
X115796958Y-116350710D02*
G01*
X115811276Y-116352834D01*
X115825317Y-116356351D01*
X115838946Y-116361228D01*
X115852031Y-116367417D01*
X115864447Y-116374858D01*
X115876073Y-116383481D01*
X115886798Y-116393202D01*
X115896519Y-116403927D01*
X115905142Y-116415553D01*
X115912583Y-116427969D01*
X115918772Y-116441054D01*
X115923649Y-116454683D01*
X115927166Y-116468724D01*
X115929290Y-116483042D01*
X115930000Y-116497500D01*
X115930000Y-116842500D01*
X115929290Y-116856958D01*
X115927166Y-116871276D01*
X115923649Y-116885317D01*
X115918772Y-116898946D01*
X115912583Y-116912031D01*
X115905142Y-116924447D01*
X115896519Y-116936073D01*
X115886798Y-116946798D01*
X115876073Y-116956519D01*
X115864447Y-116965142D01*
X115852031Y-116972583D01*
X115838946Y-116978772D01*
X115825317Y-116983649D01*
X115811276Y-116987166D01*
X115796958Y-116989290D01*
X115782500Y-116990000D01*
X115487500Y-116990000D01*
X115473042Y-116989290D01*
X115458724Y-116987166D01*
X115444683Y-116983649D01*
X115431054Y-116978772D01*
X115417969Y-116972583D01*
X115405553Y-116965142D01*
X115393927Y-116956519D01*
X115383202Y-116946798D01*
X115373481Y-116936073D01*
X115364858Y-116924447D01*
X115357417Y-116912031D01*
X115351228Y-116898946D01*
X115346351Y-116885317D01*
X115342834Y-116871276D01*
X115340710Y-116856958D01*
X115340000Y-116842500D01*
X115340000Y-116497500D01*
X115340710Y-116483042D01*
X115342834Y-116468724D01*
X115346351Y-116454683D01*
X115351228Y-116441054D01*
X115357417Y-116427969D01*
X115364858Y-116415553D01*
X115373481Y-116403927D01*
X115383202Y-116393202D01*
X115393927Y-116383481D01*
X115405553Y-116374858D01*
X115417969Y-116367417D01*
X115431054Y-116361228D01*
X115444683Y-116356351D01*
X115458724Y-116352834D01*
X115473042Y-116350710D01*
X115487500Y-116350000D01*
X115782500Y-116350000D01*
X115796958Y-116350710D01*
X115796958Y-116350710D01*
G37*
D24*
X115635000Y-116670000D03*
D23*
G36*
X117597691Y-118306053D02*
G01*
X117618926Y-118309203D01*
X117639750Y-118314419D01*
X117659962Y-118321651D01*
X117679368Y-118330830D01*
X117697781Y-118341866D01*
X117715024Y-118354654D01*
X117730930Y-118369070D01*
X117745346Y-118384976D01*
X117758134Y-118402219D01*
X117769170Y-118420632D01*
X117778349Y-118440038D01*
X117785581Y-118460250D01*
X117790797Y-118481074D01*
X117793947Y-118502309D01*
X117795000Y-118523750D01*
X117795000Y-119036250D01*
X117793947Y-119057691D01*
X117790797Y-119078926D01*
X117785581Y-119099750D01*
X117778349Y-119119962D01*
X117769170Y-119139368D01*
X117758134Y-119157781D01*
X117745346Y-119175024D01*
X117730930Y-119190930D01*
X117715024Y-119205346D01*
X117697781Y-119218134D01*
X117679368Y-119229170D01*
X117659962Y-119238349D01*
X117639750Y-119245581D01*
X117618926Y-119250797D01*
X117597691Y-119253947D01*
X117576250Y-119255000D01*
X117138750Y-119255000D01*
X117117309Y-119253947D01*
X117096074Y-119250797D01*
X117075250Y-119245581D01*
X117055038Y-119238349D01*
X117035632Y-119229170D01*
X117017219Y-119218134D01*
X116999976Y-119205346D01*
X116984070Y-119190930D01*
X116969654Y-119175024D01*
X116956866Y-119157781D01*
X116945830Y-119139368D01*
X116936651Y-119119962D01*
X116929419Y-119099750D01*
X116924203Y-119078926D01*
X116921053Y-119057691D01*
X116920000Y-119036250D01*
X116920000Y-118523750D01*
X116921053Y-118502309D01*
X116924203Y-118481074D01*
X116929419Y-118460250D01*
X116936651Y-118440038D01*
X116945830Y-118420632D01*
X116956866Y-118402219D01*
X116969654Y-118384976D01*
X116984070Y-118369070D01*
X116999976Y-118354654D01*
X117017219Y-118341866D01*
X117035632Y-118330830D01*
X117055038Y-118321651D01*
X117075250Y-118314419D01*
X117096074Y-118309203D01*
X117117309Y-118306053D01*
X117138750Y-118305000D01*
X117576250Y-118305000D01*
X117597691Y-118306053D01*
X117597691Y-118306053D01*
G37*
D25*
X117357500Y-118780000D03*
D23*
G36*
X116022691Y-118306053D02*
G01*
X116043926Y-118309203D01*
X116064750Y-118314419D01*
X116084962Y-118321651D01*
X116104368Y-118330830D01*
X116122781Y-118341866D01*
X116140024Y-118354654D01*
X116155930Y-118369070D01*
X116170346Y-118384976D01*
X116183134Y-118402219D01*
X116194170Y-118420632D01*
X116203349Y-118440038D01*
X116210581Y-118460250D01*
X116215797Y-118481074D01*
X116218947Y-118502309D01*
X116220000Y-118523750D01*
X116220000Y-119036250D01*
X116218947Y-119057691D01*
X116215797Y-119078926D01*
X116210581Y-119099750D01*
X116203349Y-119119962D01*
X116194170Y-119139368D01*
X116183134Y-119157781D01*
X116170346Y-119175024D01*
X116155930Y-119190930D01*
X116140024Y-119205346D01*
X116122781Y-119218134D01*
X116104368Y-119229170D01*
X116084962Y-119238349D01*
X116064750Y-119245581D01*
X116043926Y-119250797D01*
X116022691Y-119253947D01*
X116001250Y-119255000D01*
X115563750Y-119255000D01*
X115542309Y-119253947D01*
X115521074Y-119250797D01*
X115500250Y-119245581D01*
X115480038Y-119238349D01*
X115460632Y-119229170D01*
X115442219Y-119218134D01*
X115424976Y-119205346D01*
X115409070Y-119190930D01*
X115394654Y-119175024D01*
X115381866Y-119157781D01*
X115370830Y-119139368D01*
X115361651Y-119119962D01*
X115354419Y-119099750D01*
X115349203Y-119078926D01*
X115346053Y-119057691D01*
X115345000Y-119036250D01*
X115345000Y-118523750D01*
X115346053Y-118502309D01*
X115349203Y-118481074D01*
X115354419Y-118460250D01*
X115361651Y-118440038D01*
X115370830Y-118420632D01*
X115381866Y-118402219D01*
X115394654Y-118384976D01*
X115409070Y-118369070D01*
X115424976Y-118354654D01*
X115442219Y-118341866D01*
X115460632Y-118330830D01*
X115480038Y-118321651D01*
X115500250Y-118314419D01*
X115521074Y-118309203D01*
X115542309Y-118306053D01*
X115563750Y-118305000D01*
X116001250Y-118305000D01*
X116022691Y-118306053D01*
X116022691Y-118306053D01*
G37*
D25*
X115782500Y-118780000D03*
D17*
X117750000Y-127800000D03*
D18*
X117750000Y-131300000D03*
D17*
X117025000Y-136350000D03*
D18*
X117025000Y-139850000D03*
D32*
X82134000Y-82347000D03*
X84194000Y-84417000D03*
X80024000Y-84407000D03*
X84214000Y-80287000D03*
X80094000Y-80307000D03*
D33*
X103944000Y-69657000D03*
X102794000Y-74007000D03*
X102794000Y-75357000D03*
X102694000Y-77157000D03*
X104944000Y-72607000D03*
D32*
X96944000Y-75807000D03*
X105044000Y-78807000D03*
X122644000Y-89707000D03*
X116244000Y-85107000D03*
X117694000Y-81682000D03*
X117719000Y-74757000D03*
X87694000Y-99132000D03*
X78494000Y-99857000D03*
X74644000Y-88282000D03*
X74894000Y-92557000D03*
X108024000Y-75987000D03*
X105584000Y-86797000D03*
X109724000Y-85677000D03*
X101474000Y-78517000D03*
X124614000Y-87107000D03*
X82164000Y-91827000D03*
X93414000Y-97997000D03*
X78054000Y-92547000D03*
X93844000Y-87007000D03*
X74614000Y-74637000D03*
D17*
X117024000Y-92352000D03*
X97724000Y-97142000D03*
X97724000Y-92742000D03*
D32*
X112754000Y-79937000D03*
X111824000Y-84887000D03*
X98884888Y-84746112D03*
X89024000Y-86637000D03*
X112854000Y-94997000D03*
X114083607Y-96706607D03*
X83614000Y-94267000D03*
X78284000Y-86197000D03*
X79454000Y-91787000D03*
X119820000Y-118175002D03*
X118320000Y-125850000D03*
X124140000Y-136760000D03*
X118870000Y-145500000D03*
X110504000Y-71347000D03*
X105944000Y-69357000D03*
D33*
X104319000Y-72107002D03*
X104319000Y-77582002D03*
X103569000Y-72107002D03*
X103569000Y-77582002D03*
D32*
X101294000Y-72957000D03*
X97144000Y-78657000D03*
X116318607Y-94471607D03*
X110974000Y-93687000D03*
X96944000Y-77307000D03*
X100944000Y-71957000D03*
X114700000Y-145600000D03*
X100104000Y-80447000D03*
X100104000Y-77247000D03*
X91044000Y-115292000D03*
X106044000Y-103832000D03*
D34*
X81738500Y-127800000D02*
X83806500Y-125732000D01*
X79125000Y-127800000D02*
X81738500Y-127800000D01*
X117025000Y-139850000D02*
X115100000Y-139850000D01*
X111350000Y-136100000D02*
X109350000Y-136100000D01*
X115100000Y-139850000D02*
X111350000Y-136100000D01*
X107517500Y-134267500D02*
X109350000Y-136100000D01*
X106980000Y-134267500D02*
X107517500Y-134267500D01*
D35*
X114825000Y-120395000D02*
X114825000Y-120375002D01*
X115235000Y-115715000D02*
X115630000Y-115715000D01*
X112293506Y-115715000D02*
X115235000Y-115715000D01*
X111684990Y-116323516D02*
X112293506Y-115715000D01*
X111684990Y-117286484D02*
X111684990Y-116323516D01*
X112068506Y-117670000D02*
X111684990Y-117286484D01*
X112119998Y-117670000D02*
X112068506Y-117670000D01*
X115635000Y-115720000D02*
X115630000Y-115715000D01*
X115635000Y-116670000D02*
X115635000Y-115720000D01*
X112220002Y-117670000D02*
X112068506Y-117670000D01*
X114825000Y-120274998D02*
X112220002Y-117670000D01*
X114825000Y-120395000D02*
X114825000Y-120274998D01*
D36*
X97724000Y-97142000D02*
X97724000Y-92742000D01*
D37*
X117667000Y-70540000D02*
X114764000Y-67637000D01*
X122540000Y-70540000D02*
X117667000Y-70540000D01*
X126544990Y-74544990D02*
X122540000Y-70540000D01*
X126544990Y-89226010D02*
X126544990Y-74544990D01*
X117024000Y-92352000D02*
X123419000Y-92352000D01*
X123419000Y-92352000D02*
X126544990Y-89226010D01*
D34*
X111824000Y-80867000D02*
X112754000Y-79937000D01*
X111824000Y-84887000D02*
X111824000Y-80867000D01*
D35*
X98884888Y-84746112D02*
X90914888Y-84746112D01*
X90914888Y-84746112D02*
X89024000Y-86637000D01*
X112854000Y-94997000D02*
X112854000Y-95477000D01*
X112854000Y-95477000D02*
X114083607Y-96706607D01*
X89194000Y-124182000D02*
X89894000Y-124182000D01*
X83614000Y-94267000D02*
X82524000Y-95357000D01*
X82524000Y-95357000D02*
X75364000Y-95357000D01*
X75364000Y-95357000D02*
X74514000Y-96207000D01*
X74514000Y-96207000D02*
X74514000Y-122197000D01*
X88950999Y-124425001D02*
X89194000Y-124182000D01*
X74514000Y-122197000D02*
X76742001Y-124425001D01*
X76742001Y-124425001D02*
X88950999Y-124425001D01*
X78284000Y-86197000D02*
X78284000Y-90617000D01*
X78284000Y-90617000D02*
X79454000Y-91787000D01*
X94593000Y-123232000D02*
X94975000Y-122850000D01*
X91894000Y-123232000D02*
X94593000Y-123232000D01*
X121400000Y-124587500D02*
X121370000Y-124557500D01*
X121400000Y-126082500D02*
X121400000Y-124587500D01*
X116767500Y-122937500D02*
X116725000Y-122895000D01*
X118325000Y-122937500D02*
X116767500Y-122937500D01*
X121420000Y-127977500D02*
X121400000Y-127957500D01*
X121420000Y-129442500D02*
X121420000Y-127977500D01*
X116755000Y-120425000D02*
X116725000Y-120395000D01*
X118237500Y-120425000D02*
X116755000Y-120425000D01*
X121402500Y-131300000D02*
X121420000Y-131317500D01*
X117750000Y-131300000D02*
X121402500Y-131300000D01*
D34*
X107757500Y-132692500D02*
X109350000Y-131100000D01*
X106980000Y-132692500D02*
X107757500Y-132692500D01*
D35*
X111410000Y-118575000D02*
X109530000Y-116695000D01*
X112020000Y-118575000D02*
X111410000Y-118575000D01*
X112020000Y-118982500D02*
X113275000Y-120237500D01*
X112020000Y-118575000D02*
X112020000Y-118982500D01*
X119820000Y-120417500D02*
X119812500Y-120425000D01*
X119820000Y-118175002D02*
X119820000Y-120417500D01*
X118312500Y-124500000D02*
X118325000Y-124512500D01*
D34*
X118320000Y-124517500D02*
X118325000Y-124512500D01*
X118320000Y-125850000D02*
X118320000Y-124517500D01*
D35*
X122091840Y-127144990D02*
X122870000Y-127923150D01*
X118320000Y-125850000D02*
X119614990Y-127144990D01*
X119614990Y-127144990D02*
X122091840Y-127144990D01*
X122870000Y-127923150D02*
X122870000Y-135490000D01*
X122870000Y-135490000D02*
X124140000Y-136760000D01*
X115775000Y-118787500D02*
X115782500Y-118780000D01*
X115775000Y-120395000D02*
X115775000Y-118787500D01*
X115782500Y-118565000D02*
X115782500Y-118780000D01*
X114022500Y-116805000D02*
X115782500Y-118565000D01*
X116244112Y-118318388D02*
X115782500Y-118780000D01*
X117112499Y-117450001D02*
X116244112Y-118318388D01*
X120168001Y-117450001D02*
X117112499Y-117450001D01*
X121370000Y-118652000D02*
X120168001Y-117450001D01*
X121370000Y-122682500D02*
X121370000Y-118652000D01*
X121926237Y-123238737D02*
X121370000Y-122682500D01*
X124865001Y-126177501D02*
X121926237Y-123238737D01*
X124865001Y-139504999D02*
X124865001Y-126177501D01*
X118870000Y-145500000D02*
X124865001Y-139504999D01*
X114482500Y-123237500D02*
X114825000Y-122895000D01*
X113225000Y-123237500D02*
X114482500Y-123237500D01*
X113275000Y-123187500D02*
X113225000Y-123237500D01*
X113275000Y-121812500D02*
X113275000Y-123187500D01*
X107934000Y-71347000D02*
X105944000Y-69357000D01*
X110504000Y-71347000D02*
X107934000Y-71347000D01*
D38*
X104319000Y-72107002D02*
X104169000Y-72257002D01*
X104169000Y-77432002D02*
X104319000Y-77582002D01*
X104169000Y-72257002D02*
X104169000Y-77432002D01*
X103569000Y-72107002D02*
X103719000Y-72257002D01*
X103719000Y-77432002D02*
X103569000Y-77582002D01*
X103719000Y-72257002D02*
X103719000Y-77432002D01*
D35*
X101294000Y-72957000D02*
X101294000Y-74507000D01*
X101294000Y-74507000D02*
X97144000Y-78657000D01*
X116318607Y-94471607D02*
X115584000Y-93737000D01*
X115584000Y-93737000D02*
X111024000Y-93737000D01*
X111024000Y-93737000D02*
X110974000Y-93687000D01*
X96944000Y-77307000D02*
X100444000Y-73807000D01*
X100444000Y-72457000D02*
X100944000Y-71957000D01*
X100444000Y-73807000D02*
X100444000Y-72457000D01*
D34*
X115775000Y-125825000D02*
X115775000Y-122895000D01*
X117750000Y-127800000D02*
X115775000Y-125825000D01*
X114237500Y-125825000D02*
X113225000Y-124812500D01*
X115775000Y-125825000D02*
X114237500Y-125825000D01*
D35*
X117819112Y-119241612D02*
X117357500Y-118780000D01*
X118298106Y-119241612D02*
X117819112Y-119241612D01*
X119000010Y-119943516D02*
X118298106Y-119241612D01*
X119000010Y-120906484D02*
X119000010Y-119943516D01*
X118586493Y-121320001D02*
X119000010Y-120906484D01*
X116814997Y-121320001D02*
X118586493Y-121320001D01*
X115775000Y-122359998D02*
X116814997Y-121320001D01*
X115775000Y-122895000D02*
X115775000Y-122359998D01*
D34*
X110429999Y-120134999D02*
X109530000Y-119235000D01*
X112299990Y-122004990D02*
X110429999Y-120134999D01*
X112299990Y-123887490D02*
X112299990Y-122004990D01*
X113225000Y-124812500D02*
X112299990Y-123887490D01*
X117025000Y-136350000D02*
X114190000Y-133515000D01*
X114190000Y-131360000D02*
X117750000Y-127800000D01*
X114190000Y-133515000D02*
X114190000Y-131360000D01*
D35*
X115099999Y-145200001D02*
X117219999Y-145200001D01*
X114700000Y-145600000D02*
X115099999Y-145200001D01*
X117219999Y-145200001D02*
X119650000Y-142770000D01*
X119650000Y-138975000D02*
X117025000Y-136350000D01*
X119650000Y-142770000D02*
X119650000Y-138975000D01*
X116605000Y-115720000D02*
X116600000Y-115715000D01*
X116605000Y-116670000D02*
X116605000Y-115720000D01*
X116600000Y-115295000D02*
X116600000Y-115715000D01*
X115180000Y-113875000D02*
X116600000Y-115295000D01*
X115180000Y-112990000D02*
X115180000Y-113875000D01*
X109660000Y-111810000D02*
X114000000Y-111810000D01*
X114000000Y-111810000D02*
X115180000Y-112990000D01*
D34*
X108660001Y-112809999D02*
X109660000Y-111810000D01*
X108179999Y-113290001D02*
X108660001Y-112809999D01*
X108179999Y-117884999D02*
X108179999Y-113290001D01*
X109530000Y-119235000D02*
X108179999Y-117884999D01*
D35*
X100104000Y-80447000D02*
X100104000Y-77247000D01*
X112447500Y-116892500D02*
X114130000Y-118575000D01*
X112447500Y-116805000D02*
X112447500Y-116892500D01*
D34*
X89206500Y-108132000D02*
X88094000Y-108132000D01*
X87384000Y-108842000D02*
X87384000Y-110332000D01*
X88094000Y-108132000D02*
X87384000Y-108842000D01*
D39*
G36*
X85305418Y-103504950D02*
G01*
X85305418Y-104992000D01*
X85311732Y-105056103D01*
X85330430Y-105117743D01*
X85360794Y-105174550D01*
X85401657Y-105224343D01*
X85451450Y-105265206D01*
X85508257Y-105295570D01*
X85569897Y-105314268D01*
X85634000Y-105320582D01*
X87334000Y-105320582D01*
X87398103Y-105314268D01*
X87459743Y-105295570D01*
X87516550Y-105265206D01*
X87566343Y-105224343D01*
X87607206Y-105174550D01*
X87637570Y-105117743D01*
X87656268Y-105056103D01*
X87662582Y-104992000D01*
X87662582Y-103507260D01*
X88028498Y-103507619D01*
X87931333Y-103689403D01*
X87864031Y-103911268D01*
X87841306Y-104142000D01*
X87864031Y-104372732D01*
X87931333Y-104594597D01*
X88040626Y-104799070D01*
X88187709Y-104978291D01*
X88366930Y-105125374D01*
X88571403Y-105234667D01*
X88793268Y-105301969D01*
X88966188Y-105319000D01*
X89081812Y-105319000D01*
X89254732Y-105301969D01*
X89476597Y-105234667D01*
X89681070Y-105125374D01*
X89860291Y-104978291D01*
X90007374Y-104799070D01*
X90116667Y-104594597D01*
X90135014Y-104534115D01*
X90219843Y-104773252D01*
X90368822Y-105023355D01*
X90563731Y-105239588D01*
X90797080Y-105413641D01*
X91059901Y-105538825D01*
X91207110Y-105583476D01*
X91437000Y-105462155D01*
X91437000Y-104269000D01*
X91691000Y-104269000D01*
X91691000Y-105462155D01*
X91920890Y-105583476D01*
X92068099Y-105538825D01*
X92330920Y-105413641D01*
X92564269Y-105239588D01*
X92759178Y-105023355D01*
X92834000Y-104897745D01*
X92908822Y-105023355D01*
X93103731Y-105239588D01*
X93337080Y-105413641D01*
X93599901Y-105538825D01*
X93747110Y-105583476D01*
X93977000Y-105462155D01*
X93977000Y-104269000D01*
X94231000Y-104269000D01*
X94231000Y-105462155D01*
X94460890Y-105583476D01*
X94608099Y-105538825D01*
X94870920Y-105413641D01*
X94979560Y-105332607D01*
X100854971Y-105332607D01*
X100960136Y-105637020D01*
X101122669Y-105915067D01*
X101336323Y-106156063D01*
X101592888Y-106350746D01*
X101882504Y-106491635D01*
X102071257Y-106548893D01*
X102325932Y-106429649D01*
X102325932Y-105077932D01*
X102579932Y-105077932D01*
X102579932Y-106429649D01*
X102834607Y-106548893D01*
X103139020Y-106443728D01*
X103417067Y-106281195D01*
X103658063Y-106067541D01*
X103852746Y-105810976D01*
X103993635Y-105521360D01*
X104050893Y-105332607D01*
X103931649Y-105077932D01*
X102579932Y-105077932D01*
X102325932Y-105077932D01*
X100974215Y-105077932D01*
X100854971Y-105332607D01*
X94979560Y-105332607D01*
X95104269Y-105239588D01*
X95299178Y-105023355D01*
X95448157Y-104773252D01*
X95545481Y-104498891D01*
X95424814Y-104269000D01*
X94231000Y-104269000D01*
X93977000Y-104269000D01*
X91691000Y-104269000D01*
X91437000Y-104269000D01*
X91417000Y-104269000D01*
X91417000Y-104015000D01*
X91437000Y-104015000D01*
X91437000Y-103995000D01*
X91691000Y-103995000D01*
X91691000Y-104015000D01*
X93977000Y-104015000D01*
X93977000Y-103995000D01*
X94231000Y-103995000D01*
X94231000Y-104015000D01*
X95424814Y-104015000D01*
X95545481Y-103785109D01*
X95449628Y-103514894D01*
X101659335Y-103520981D01*
X101488797Y-103620669D01*
X101247801Y-103834323D01*
X101053118Y-104090888D01*
X100912229Y-104380504D01*
X100854971Y-104569257D01*
X100974215Y-104823932D01*
X102325932Y-104823932D01*
X102325932Y-103521634D01*
X102579932Y-103521883D01*
X102579932Y-104823932D01*
X103931649Y-104823932D01*
X104050893Y-104569257D01*
X103945728Y-104264844D01*
X103783195Y-103986797D01*
X103569541Y-103745801D01*
X103312976Y-103551118D01*
X103254239Y-103522544D01*
X107673403Y-103526876D01*
X107686596Y-107675000D01*
X102084000Y-107675000D01*
X102059224Y-107677440D01*
X102035399Y-107684667D01*
X102013443Y-107696403D01*
X101994197Y-107712197D01*
X101978403Y-107731443D01*
X101966667Y-107753399D01*
X101959440Y-107777224D01*
X101957000Y-107802060D01*
X101966939Y-128694557D01*
X98684442Y-128683139D01*
X98683804Y-128683138D01*
X84622800Y-128704801D01*
X84650001Y-126769873D01*
X84699820Y-126796502D01*
X84819518Y-126832812D01*
X84944000Y-126845072D01*
X85095750Y-126842000D01*
X85254500Y-126683250D01*
X85254500Y-125859000D01*
X85508500Y-125859000D01*
X85508500Y-126683250D01*
X85667250Y-126842000D01*
X85819000Y-126845072D01*
X85943482Y-126832812D01*
X86063180Y-126796502D01*
X86173494Y-126737537D01*
X86177619Y-126734151D01*
X98143000Y-126734151D01*
X98143000Y-126975849D01*
X98190153Y-127212903D01*
X98282647Y-127436202D01*
X98416927Y-127637167D01*
X98587833Y-127808073D01*
X98788798Y-127942353D01*
X99012097Y-128034847D01*
X99249151Y-128082000D01*
X99490849Y-128082000D01*
X99727903Y-128034847D01*
X99951202Y-127942353D01*
X100152167Y-127808073D01*
X100323073Y-127637167D01*
X100457353Y-127436202D01*
X100549847Y-127212903D01*
X100597000Y-126975849D01*
X100597000Y-126734151D01*
X100549847Y-126497097D01*
X100457353Y-126273798D01*
X100323073Y-126072833D01*
X100152167Y-125901927D01*
X99951202Y-125767647D01*
X99912204Y-125751493D01*
X100021199Y-125713222D01*
X100170792Y-125633261D01*
X100254475Y-125379080D01*
X99370000Y-124494605D01*
X98485525Y-125379080D01*
X98569208Y-125633261D01*
X98821142Y-125754249D01*
X98788798Y-125767647D01*
X98587833Y-125901927D01*
X98416927Y-126072833D01*
X98282647Y-126273798D01*
X98190153Y-126497097D01*
X98143000Y-126734151D01*
X86177619Y-126734151D01*
X86270185Y-126658185D01*
X86349537Y-126561494D01*
X86408502Y-126451180D01*
X86444812Y-126331482D01*
X86457072Y-126207000D01*
X86454000Y-126017750D01*
X86295250Y-125859000D01*
X85508500Y-125859000D01*
X85254500Y-125859000D01*
X85234500Y-125859000D01*
X85234500Y-125605000D01*
X85254500Y-125605000D01*
X85254500Y-125585000D01*
X85508500Y-125585000D01*
X85508500Y-125605000D01*
X86295250Y-125605000D01*
X86454000Y-125446250D01*
X86457072Y-125257000D01*
X86444812Y-125132518D01*
X86408502Y-125012820D01*
X86349537Y-124902506D01*
X86328606Y-124877001D01*
X88928794Y-124877001D01*
X88950999Y-124879188D01*
X88973204Y-124877001D01*
X89039606Y-124870461D01*
X89124809Y-124844615D01*
X89202445Y-124803118D01*
X89211657Y-124814343D01*
X89261450Y-124855206D01*
X89318257Y-124885570D01*
X89379897Y-124904268D01*
X89444000Y-124910582D01*
X90344000Y-124910582D01*
X90408103Y-124904268D01*
X90469743Y-124885570D01*
X90526550Y-124855206D01*
X90576343Y-124814343D01*
X90617206Y-124764550D01*
X90647570Y-124707743D01*
X90666268Y-124646103D01*
X90672582Y-124582000D01*
X90672582Y-124381553D01*
X97829009Y-124381553D01*
X97871603Y-124680907D01*
X97971778Y-124966199D01*
X98051739Y-125115792D01*
X98305920Y-125199475D01*
X99190395Y-124315000D01*
X99549605Y-124315000D01*
X100434080Y-125199475D01*
X100688261Y-125115792D01*
X100819158Y-124843225D01*
X100894365Y-124550358D01*
X100910991Y-124248447D01*
X100868397Y-123949093D01*
X100768222Y-123663801D01*
X100688261Y-123514208D01*
X100434080Y-123430525D01*
X99549605Y-124315000D01*
X99190395Y-124315000D01*
X98305920Y-123430525D01*
X98051739Y-123514208D01*
X97920842Y-123786775D01*
X97845635Y-124079642D01*
X97829009Y-124381553D01*
X90672582Y-124381553D01*
X90672582Y-123782000D01*
X90666268Y-123717897D01*
X90647570Y-123656257D01*
X90617206Y-123599450D01*
X90576343Y-123549657D01*
X90526550Y-123508794D01*
X90469743Y-123478430D01*
X90408103Y-123459732D01*
X90344000Y-123453418D01*
X89444000Y-123453418D01*
X89379897Y-123459732D01*
X89318257Y-123478430D01*
X89261450Y-123508794D01*
X89211657Y-123549657D01*
X89170794Y-123599450D01*
X89140430Y-123656257D01*
X89121732Y-123717897D01*
X89120038Y-123735098D01*
X89105392Y-123736540D01*
X89085562Y-123742556D01*
X89020190Y-123762386D01*
X88941667Y-123804357D01*
X88872841Y-123860841D01*
X88858681Y-123878096D01*
X88763775Y-123973001D01*
X88137849Y-123973001D01*
X88304977Y-123861330D01*
X88486330Y-123679977D01*
X88628818Y-123466728D01*
X88726965Y-123229779D01*
X88777000Y-122978236D01*
X88777000Y-122721764D01*
X88769091Y-122682000D01*
X88805928Y-122682000D01*
X88818188Y-122806482D01*
X88854498Y-122926180D01*
X88913463Y-123036494D01*
X88992815Y-123133185D01*
X89089506Y-123212537D01*
X89199820Y-123271502D01*
X89319518Y-123307812D01*
X89444000Y-123320072D01*
X89608250Y-123317000D01*
X89767000Y-123158250D01*
X89767000Y-122409000D01*
X90021000Y-122409000D01*
X90021000Y-123158250D01*
X90179750Y-123317000D01*
X90344000Y-123320072D01*
X90468482Y-123307812D01*
X90588180Y-123271502D01*
X90698494Y-123212537D01*
X90795185Y-123133185D01*
X90874537Y-123036494D01*
X90933502Y-122926180D01*
X90962071Y-122832000D01*
X91115418Y-122832000D01*
X91115418Y-123632000D01*
X91121732Y-123696103D01*
X91140430Y-123757743D01*
X91170794Y-123814550D01*
X91211657Y-123864343D01*
X91261450Y-123905206D01*
X91318257Y-123935570D01*
X91379897Y-123954268D01*
X91444000Y-123960582D01*
X92344000Y-123960582D01*
X92408103Y-123954268D01*
X92469743Y-123935570D01*
X92526550Y-123905206D01*
X92576343Y-123864343D01*
X92617206Y-123814550D01*
X92647570Y-123757743D01*
X92666268Y-123696103D01*
X92667460Y-123684000D01*
X93967693Y-123684000D01*
X94145023Y-123861330D01*
X94358272Y-124003818D01*
X94595221Y-124101965D01*
X94846764Y-124152000D01*
X95103236Y-124152000D01*
X95354779Y-124101965D01*
X95591728Y-124003818D01*
X95804977Y-123861330D01*
X95986330Y-123679977D01*
X96128818Y-123466728D01*
X96226965Y-123229779D01*
X96277000Y-122978236D01*
X96277000Y-122721764D01*
X96226965Y-122470221D01*
X96128818Y-122233272D01*
X95986330Y-122020023D01*
X95804977Y-121838670D01*
X95591728Y-121696182D01*
X95490256Y-121654151D01*
X98143000Y-121654151D01*
X98143000Y-121895849D01*
X98190153Y-122132903D01*
X98282647Y-122356202D01*
X98416927Y-122557167D01*
X98587833Y-122728073D01*
X98788798Y-122862353D01*
X98827796Y-122878507D01*
X98718801Y-122916778D01*
X98569208Y-122996739D01*
X98485525Y-123250920D01*
X99370000Y-124135395D01*
X100254475Y-123250920D01*
X100170792Y-122996739D01*
X99918858Y-122875751D01*
X99951202Y-122862353D01*
X100152167Y-122728073D01*
X100323073Y-122557167D01*
X100457353Y-122356202D01*
X100549847Y-122132903D01*
X100597000Y-121895849D01*
X100597000Y-121654151D01*
X100549847Y-121417097D01*
X100457353Y-121193798D01*
X100323073Y-120992833D01*
X100152167Y-120821927D01*
X99951202Y-120687647D01*
X99727903Y-120595153D01*
X99490849Y-120548000D01*
X99249151Y-120548000D01*
X99012097Y-120595153D01*
X98788798Y-120687647D01*
X98587833Y-120821927D01*
X98416927Y-120992833D01*
X98282647Y-121193798D01*
X98190153Y-121417097D01*
X98143000Y-121654151D01*
X95490256Y-121654151D01*
X95354779Y-121598035D01*
X95103236Y-121548000D01*
X94846764Y-121548000D01*
X94595221Y-121598035D01*
X94358272Y-121696182D01*
X94145023Y-121838670D01*
X93963670Y-122020023D01*
X93821182Y-122233272D01*
X93723035Y-122470221D01*
X93673000Y-122721764D01*
X93673000Y-122780000D01*
X92667460Y-122780000D01*
X92666268Y-122767897D01*
X92647570Y-122706257D01*
X92617206Y-122649450D01*
X92576343Y-122599657D01*
X92526550Y-122558794D01*
X92469743Y-122528430D01*
X92408103Y-122509732D01*
X92344000Y-122503418D01*
X91444000Y-122503418D01*
X91379897Y-122509732D01*
X91318257Y-122528430D01*
X91261450Y-122558794D01*
X91211657Y-122599657D01*
X91170794Y-122649450D01*
X91140430Y-122706257D01*
X91121732Y-122767897D01*
X91115418Y-122832000D01*
X90962071Y-122832000D01*
X90969812Y-122806482D01*
X90982072Y-122682000D01*
X90979000Y-122567750D01*
X90820250Y-122409000D01*
X90021000Y-122409000D01*
X89767000Y-122409000D01*
X88967750Y-122409000D01*
X88809000Y-122567750D01*
X88805928Y-122682000D01*
X88769091Y-122682000D01*
X88726965Y-122470221D01*
X88628818Y-122233272D01*
X88486330Y-122020023D01*
X88348307Y-121882000D01*
X88805928Y-121882000D01*
X88809000Y-121996250D01*
X88967750Y-122155000D01*
X89767000Y-122155000D01*
X89767000Y-121405750D01*
X90021000Y-121405750D01*
X90021000Y-122155000D01*
X90820250Y-122155000D01*
X90979000Y-121996250D01*
X90982072Y-121882000D01*
X90969812Y-121757518D01*
X90933502Y-121637820D01*
X90874537Y-121527506D01*
X90795185Y-121430815D01*
X90698494Y-121351463D01*
X90588180Y-121292498D01*
X90468482Y-121256188D01*
X90344000Y-121243928D01*
X90179750Y-121247000D01*
X90021000Y-121405750D01*
X89767000Y-121405750D01*
X89608250Y-121247000D01*
X89444000Y-121243928D01*
X89319518Y-121256188D01*
X89199820Y-121292498D01*
X89089506Y-121351463D01*
X88992815Y-121430815D01*
X88913463Y-121527506D01*
X88854498Y-121637820D01*
X88818188Y-121757518D01*
X88805928Y-121882000D01*
X88348307Y-121882000D01*
X88304977Y-121838670D01*
X88091728Y-121696182D01*
X87854779Y-121598035D01*
X87603236Y-121548000D01*
X87346764Y-121548000D01*
X87095221Y-121598035D01*
X86858272Y-121696182D01*
X86645023Y-121838670D01*
X86463670Y-122020023D01*
X86321182Y-122233272D01*
X86223035Y-122470221D01*
X86173000Y-122721764D01*
X86173000Y-122978236D01*
X86223035Y-123229779D01*
X86321182Y-123466728D01*
X86463670Y-123679977D01*
X86645023Y-123861330D01*
X86812151Y-123973001D01*
X84689319Y-123973001D01*
X84757624Y-119114151D01*
X98143000Y-119114151D01*
X98143000Y-119355849D01*
X98190153Y-119592903D01*
X98282647Y-119816202D01*
X98416927Y-120017167D01*
X98587833Y-120188073D01*
X98788798Y-120322353D01*
X99012097Y-120414847D01*
X99249151Y-120462000D01*
X99490849Y-120462000D01*
X99727903Y-120414847D01*
X99951202Y-120322353D01*
X100152167Y-120188073D01*
X100323073Y-120017167D01*
X100457353Y-119816202D01*
X100549847Y-119592903D01*
X100597000Y-119355849D01*
X100597000Y-119114151D01*
X100549847Y-118877097D01*
X100457353Y-118653798D01*
X100323073Y-118452833D01*
X100152167Y-118281927D01*
X99951202Y-118147647D01*
X99727903Y-118055153D01*
X99490849Y-118008000D01*
X99249151Y-118008000D01*
X99012097Y-118055153D01*
X98788798Y-118147647D01*
X98587833Y-118281927D01*
X98416927Y-118452833D01*
X98282647Y-118653798D01*
X98190153Y-118877097D01*
X98143000Y-119114151D01*
X84757624Y-119114151D01*
X84793331Y-116574151D01*
X98143000Y-116574151D01*
X98143000Y-116815849D01*
X98190153Y-117052903D01*
X98282647Y-117276202D01*
X98416927Y-117477167D01*
X98587833Y-117648073D01*
X98788798Y-117782353D01*
X99012097Y-117874847D01*
X99249151Y-117922000D01*
X99490849Y-117922000D01*
X99727903Y-117874847D01*
X99951202Y-117782353D01*
X100152167Y-117648073D01*
X100323073Y-117477167D01*
X100457353Y-117276202D01*
X100549847Y-117052903D01*
X100597000Y-116815849D01*
X100597000Y-116574151D01*
X100549847Y-116337097D01*
X100457353Y-116113798D01*
X100323073Y-115912833D01*
X100152167Y-115741927D01*
X99951202Y-115607647D01*
X99727903Y-115515153D01*
X99490849Y-115468000D01*
X99249151Y-115468000D01*
X99012097Y-115515153D01*
X98788798Y-115607647D01*
X98587833Y-115741927D01*
X98416927Y-115912833D01*
X98282647Y-116113798D01*
X98190153Y-116337097D01*
X98143000Y-116574151D01*
X84793331Y-116574151D01*
X84892330Y-109532000D01*
X86255418Y-109532000D01*
X86255418Y-111132000D01*
X86261732Y-111196103D01*
X86280430Y-111257743D01*
X86310794Y-111314550D01*
X86351657Y-111364343D01*
X86401450Y-111405206D01*
X86458257Y-111435570D01*
X86519897Y-111454268D01*
X86584000Y-111460582D01*
X88184000Y-111460582D01*
X88248103Y-111454268D01*
X88309743Y-111435570D01*
X88366550Y-111405206D01*
X88416343Y-111364343D01*
X88448874Y-111324702D01*
X90070903Y-111324702D01*
X90142486Y-111568671D01*
X90397996Y-111689571D01*
X90672184Y-111758300D01*
X90954512Y-111772217D01*
X91234130Y-111730787D01*
X91500292Y-111635603D01*
X91625514Y-111568671D01*
X91697097Y-111324702D01*
X91667097Y-111294702D01*
X95150903Y-111294702D01*
X95222486Y-111538671D01*
X95477996Y-111659571D01*
X95752184Y-111728300D01*
X96034512Y-111742217D01*
X96314130Y-111700787D01*
X96580292Y-111605603D01*
X96705514Y-111538671D01*
X96777097Y-111294702D01*
X95964000Y-110481605D01*
X95150903Y-111294702D01*
X91667097Y-111294702D01*
X90884000Y-110511605D01*
X90070903Y-111324702D01*
X88448874Y-111324702D01*
X88457206Y-111314550D01*
X88487570Y-111257743D01*
X88506268Y-111196103D01*
X88512582Y-111132000D01*
X88512582Y-110402512D01*
X89443783Y-110402512D01*
X89485213Y-110682130D01*
X89580397Y-110948292D01*
X89647329Y-111073514D01*
X89891298Y-111145097D01*
X90704395Y-110332000D01*
X91063605Y-110332000D01*
X91876702Y-111145097D01*
X92120671Y-111073514D01*
X92241571Y-110818004D01*
X92310300Y-110543816D01*
X92318744Y-110372512D01*
X94523783Y-110372512D01*
X94565213Y-110652130D01*
X94660397Y-110918292D01*
X94727329Y-111043514D01*
X94971298Y-111115097D01*
X95784395Y-110302000D01*
X96143605Y-110302000D01*
X96956702Y-111115097D01*
X97200671Y-111043514D01*
X97321571Y-110788004D01*
X97390300Y-110513816D01*
X97404217Y-110231488D01*
X97362787Y-109951870D01*
X97267603Y-109685708D01*
X97200671Y-109560486D01*
X97001340Y-109502000D01*
X98335418Y-109502000D01*
X98335418Y-111102000D01*
X98341732Y-111166103D01*
X98360430Y-111227743D01*
X98390794Y-111284550D01*
X98431657Y-111334343D01*
X98481450Y-111375206D01*
X98538257Y-111405570D01*
X98599897Y-111424268D01*
X98664000Y-111430582D01*
X100264000Y-111430582D01*
X100328103Y-111424268D01*
X100389743Y-111405570D01*
X100446550Y-111375206D01*
X100496343Y-111334343D01*
X100537206Y-111284550D01*
X100567570Y-111227743D01*
X100586268Y-111166103D01*
X100592582Y-111102000D01*
X100592582Y-109502000D01*
X100586268Y-109437897D01*
X100567570Y-109376257D01*
X100537206Y-109319450D01*
X100496343Y-109269657D01*
X100446550Y-109228794D01*
X100389743Y-109198430D01*
X100328103Y-109179732D01*
X100264000Y-109173418D01*
X98664000Y-109173418D01*
X98599897Y-109179732D01*
X98538257Y-109198430D01*
X98481450Y-109228794D01*
X98431657Y-109269657D01*
X98390794Y-109319450D01*
X98360430Y-109376257D01*
X98341732Y-109437897D01*
X98335418Y-109502000D01*
X97001340Y-109502000D01*
X96956702Y-109488903D01*
X96143605Y-110302000D01*
X95784395Y-110302000D01*
X94971298Y-109488903D01*
X94727329Y-109560486D01*
X94606429Y-109815996D01*
X94537700Y-110090184D01*
X94523783Y-110372512D01*
X92318744Y-110372512D01*
X92324217Y-110261488D01*
X92282787Y-109981870D01*
X92187603Y-109715708D01*
X92120671Y-109590486D01*
X91876702Y-109518903D01*
X91063605Y-110332000D01*
X90704395Y-110332000D01*
X89891298Y-109518903D01*
X89647329Y-109590486D01*
X89526429Y-109845996D01*
X89457700Y-110120184D01*
X89443783Y-110402512D01*
X88512582Y-110402512D01*
X88512582Y-109532000D01*
X88506268Y-109467897D01*
X88487570Y-109406257D01*
X88457206Y-109349450D01*
X88416343Y-109299657D01*
X88366550Y-109258794D01*
X88309743Y-109228430D01*
X88248103Y-109209732D01*
X88184000Y-109203418D01*
X87961000Y-109203418D01*
X87961000Y-109081001D01*
X88333001Y-108709000D01*
X88546340Y-108709000D01*
X88600728Y-108775272D01*
X88683669Y-108843340D01*
X88778295Y-108893919D01*
X88880971Y-108925065D01*
X88987750Y-108935582D01*
X89425250Y-108935582D01*
X89532029Y-108925065D01*
X89634705Y-108893919D01*
X89729331Y-108843340D01*
X89747577Y-108828366D01*
X89754498Y-108851180D01*
X89813463Y-108961494D01*
X89892815Y-109058185D01*
X89989506Y-109137537D01*
X90099820Y-109196502D01*
X90111740Y-109200118D01*
X90070903Y-109339298D01*
X90884000Y-110152395D01*
X91697097Y-109339298D01*
X91688295Y-109309298D01*
X95150903Y-109309298D01*
X95964000Y-110122395D01*
X96777097Y-109309298D01*
X96705514Y-109065329D01*
X96450004Y-108944429D01*
X96175816Y-108875700D01*
X95893488Y-108861783D01*
X95613870Y-108903213D01*
X95347708Y-108998397D01*
X95222486Y-109065329D01*
X95150903Y-109309298D01*
X91688295Y-109309298D01*
X91625514Y-109095329D01*
X91625140Y-109095152D01*
X91670185Y-109058185D01*
X91749537Y-108961494D01*
X91808502Y-108851180D01*
X91844812Y-108731482D01*
X91857072Y-108607000D01*
X91854000Y-108417750D01*
X91695250Y-108259000D01*
X90908500Y-108259000D01*
X90908500Y-108279000D01*
X90654500Y-108279000D01*
X90654500Y-108259000D01*
X90634500Y-108259000D01*
X90634500Y-108005000D01*
X90654500Y-108005000D01*
X90654500Y-107180750D01*
X90908500Y-107180750D01*
X90908500Y-108005000D01*
X91695250Y-108005000D01*
X91854000Y-107846250D01*
X91857072Y-107657000D01*
X91844812Y-107532518D01*
X91808502Y-107412820D01*
X91749537Y-107302506D01*
X91670185Y-107205815D01*
X91573494Y-107126463D01*
X91463180Y-107067498D01*
X91343482Y-107031188D01*
X91219000Y-107018928D01*
X91067250Y-107022000D01*
X90908500Y-107180750D01*
X90654500Y-107180750D01*
X90495750Y-107022000D01*
X90344000Y-107018928D01*
X90219518Y-107031188D01*
X90099820Y-107067498D01*
X89989506Y-107126463D01*
X89892815Y-107205815D01*
X89813463Y-107302506D01*
X89754498Y-107412820D01*
X89747577Y-107435634D01*
X89729331Y-107420660D01*
X89634705Y-107370081D01*
X89532029Y-107338935D01*
X89425250Y-107328418D01*
X88987750Y-107328418D01*
X88880971Y-107338935D01*
X88778295Y-107370081D01*
X88683669Y-107420660D01*
X88600728Y-107488728D01*
X88546340Y-107555000D01*
X88122339Y-107555000D01*
X88094000Y-107552209D01*
X87980888Y-107563349D01*
X87916782Y-107582796D01*
X87872124Y-107596343D01*
X87771885Y-107649921D01*
X87684026Y-107722026D01*
X87665961Y-107744038D01*
X86996038Y-108413961D01*
X86974026Y-108432026D01*
X86901921Y-108519886D01*
X86848343Y-108620125D01*
X86834796Y-108664783D01*
X86815349Y-108728889D01*
X86804210Y-108842000D01*
X86807000Y-108870331D01*
X86807000Y-109203418D01*
X86584000Y-109203418D01*
X86519897Y-109209732D01*
X86458257Y-109228430D01*
X86401450Y-109258794D01*
X86351657Y-109299657D01*
X86310794Y-109349450D01*
X86280430Y-109406257D01*
X86261732Y-109467897D01*
X86255418Y-109532000D01*
X84892330Y-109532000D01*
X84977063Y-103504628D01*
X85305418Y-103504950D01*
X85305418Y-103504950D01*
G37*
X85305418Y-103504950D02*
X85305418Y-104992000D01*
X85311732Y-105056103D01*
X85330430Y-105117743D01*
X85360794Y-105174550D01*
X85401657Y-105224343D01*
X85451450Y-105265206D01*
X85508257Y-105295570D01*
X85569897Y-105314268D01*
X85634000Y-105320582D01*
X87334000Y-105320582D01*
X87398103Y-105314268D01*
X87459743Y-105295570D01*
X87516550Y-105265206D01*
X87566343Y-105224343D01*
X87607206Y-105174550D01*
X87637570Y-105117743D01*
X87656268Y-105056103D01*
X87662582Y-104992000D01*
X87662582Y-103507260D01*
X88028498Y-103507619D01*
X87931333Y-103689403D01*
X87864031Y-103911268D01*
X87841306Y-104142000D01*
X87864031Y-104372732D01*
X87931333Y-104594597D01*
X88040626Y-104799070D01*
X88187709Y-104978291D01*
X88366930Y-105125374D01*
X88571403Y-105234667D01*
X88793268Y-105301969D01*
X88966188Y-105319000D01*
X89081812Y-105319000D01*
X89254732Y-105301969D01*
X89476597Y-105234667D01*
X89681070Y-105125374D01*
X89860291Y-104978291D01*
X90007374Y-104799070D01*
X90116667Y-104594597D01*
X90135014Y-104534115D01*
X90219843Y-104773252D01*
X90368822Y-105023355D01*
X90563731Y-105239588D01*
X90797080Y-105413641D01*
X91059901Y-105538825D01*
X91207110Y-105583476D01*
X91437000Y-105462155D01*
X91437000Y-104269000D01*
X91691000Y-104269000D01*
X91691000Y-105462155D01*
X91920890Y-105583476D01*
X92068099Y-105538825D01*
X92330920Y-105413641D01*
X92564269Y-105239588D01*
X92759178Y-105023355D01*
X92834000Y-104897745D01*
X92908822Y-105023355D01*
X93103731Y-105239588D01*
X93337080Y-105413641D01*
X93599901Y-105538825D01*
X93747110Y-105583476D01*
X93977000Y-105462155D01*
X93977000Y-104269000D01*
X94231000Y-104269000D01*
X94231000Y-105462155D01*
X94460890Y-105583476D01*
X94608099Y-105538825D01*
X94870920Y-105413641D01*
X94979560Y-105332607D01*
X100854971Y-105332607D01*
X100960136Y-105637020D01*
X101122669Y-105915067D01*
X101336323Y-106156063D01*
X101592888Y-106350746D01*
X101882504Y-106491635D01*
X102071257Y-106548893D01*
X102325932Y-106429649D01*
X102325932Y-105077932D01*
X102579932Y-105077932D01*
X102579932Y-106429649D01*
X102834607Y-106548893D01*
X103139020Y-106443728D01*
X103417067Y-106281195D01*
X103658063Y-106067541D01*
X103852746Y-105810976D01*
X103993635Y-105521360D01*
X104050893Y-105332607D01*
X103931649Y-105077932D01*
X102579932Y-105077932D01*
X102325932Y-105077932D01*
X100974215Y-105077932D01*
X100854971Y-105332607D01*
X94979560Y-105332607D01*
X95104269Y-105239588D01*
X95299178Y-105023355D01*
X95448157Y-104773252D01*
X95545481Y-104498891D01*
X95424814Y-104269000D01*
X94231000Y-104269000D01*
X93977000Y-104269000D01*
X91691000Y-104269000D01*
X91437000Y-104269000D01*
X91417000Y-104269000D01*
X91417000Y-104015000D01*
X91437000Y-104015000D01*
X91437000Y-103995000D01*
X91691000Y-103995000D01*
X91691000Y-104015000D01*
X93977000Y-104015000D01*
X93977000Y-103995000D01*
X94231000Y-103995000D01*
X94231000Y-104015000D01*
X95424814Y-104015000D01*
X95545481Y-103785109D01*
X95449628Y-103514894D01*
X101659335Y-103520981D01*
X101488797Y-103620669D01*
X101247801Y-103834323D01*
X101053118Y-104090888D01*
X100912229Y-104380504D01*
X100854971Y-104569257D01*
X100974215Y-104823932D01*
X102325932Y-104823932D01*
X102325932Y-103521634D01*
X102579932Y-103521883D01*
X102579932Y-104823932D01*
X103931649Y-104823932D01*
X104050893Y-104569257D01*
X103945728Y-104264844D01*
X103783195Y-103986797D01*
X103569541Y-103745801D01*
X103312976Y-103551118D01*
X103254239Y-103522544D01*
X107673403Y-103526876D01*
X107686596Y-107675000D01*
X102084000Y-107675000D01*
X102059224Y-107677440D01*
X102035399Y-107684667D01*
X102013443Y-107696403D01*
X101994197Y-107712197D01*
X101978403Y-107731443D01*
X101966667Y-107753399D01*
X101959440Y-107777224D01*
X101957000Y-107802060D01*
X101966939Y-128694557D01*
X98684442Y-128683139D01*
X98683804Y-128683138D01*
X84622800Y-128704801D01*
X84650001Y-126769873D01*
X84699820Y-126796502D01*
X84819518Y-126832812D01*
X84944000Y-126845072D01*
X85095750Y-126842000D01*
X85254500Y-126683250D01*
X85254500Y-125859000D01*
X85508500Y-125859000D01*
X85508500Y-126683250D01*
X85667250Y-126842000D01*
X85819000Y-126845072D01*
X85943482Y-126832812D01*
X86063180Y-126796502D01*
X86173494Y-126737537D01*
X86177619Y-126734151D01*
X98143000Y-126734151D01*
X98143000Y-126975849D01*
X98190153Y-127212903D01*
X98282647Y-127436202D01*
X98416927Y-127637167D01*
X98587833Y-127808073D01*
X98788798Y-127942353D01*
X99012097Y-128034847D01*
X99249151Y-128082000D01*
X99490849Y-128082000D01*
X99727903Y-128034847D01*
X99951202Y-127942353D01*
X100152167Y-127808073D01*
X100323073Y-127637167D01*
X100457353Y-127436202D01*
X100549847Y-127212903D01*
X100597000Y-126975849D01*
X100597000Y-126734151D01*
X100549847Y-126497097D01*
X100457353Y-126273798D01*
X100323073Y-126072833D01*
X100152167Y-125901927D01*
X99951202Y-125767647D01*
X99912204Y-125751493D01*
X100021199Y-125713222D01*
X100170792Y-125633261D01*
X100254475Y-125379080D01*
X99370000Y-124494605D01*
X98485525Y-125379080D01*
X98569208Y-125633261D01*
X98821142Y-125754249D01*
X98788798Y-125767647D01*
X98587833Y-125901927D01*
X98416927Y-126072833D01*
X98282647Y-126273798D01*
X98190153Y-126497097D01*
X98143000Y-126734151D01*
X86177619Y-126734151D01*
X86270185Y-126658185D01*
X86349537Y-126561494D01*
X86408502Y-126451180D01*
X86444812Y-126331482D01*
X86457072Y-126207000D01*
X86454000Y-126017750D01*
X86295250Y-125859000D01*
X85508500Y-125859000D01*
X85254500Y-125859000D01*
X85234500Y-125859000D01*
X85234500Y-125605000D01*
X85254500Y-125605000D01*
X85254500Y-125585000D01*
X85508500Y-125585000D01*
X85508500Y-125605000D01*
X86295250Y-125605000D01*
X86454000Y-125446250D01*
X86457072Y-125257000D01*
X86444812Y-125132518D01*
X86408502Y-125012820D01*
X86349537Y-124902506D01*
X86328606Y-124877001D01*
X88928794Y-124877001D01*
X88950999Y-124879188D01*
X88973204Y-124877001D01*
X89039606Y-124870461D01*
X89124809Y-124844615D01*
X89202445Y-124803118D01*
X89211657Y-124814343D01*
X89261450Y-124855206D01*
X89318257Y-124885570D01*
X89379897Y-124904268D01*
X89444000Y-124910582D01*
X90344000Y-124910582D01*
X90408103Y-124904268D01*
X90469743Y-124885570D01*
X90526550Y-124855206D01*
X90576343Y-124814343D01*
X90617206Y-124764550D01*
X90647570Y-124707743D01*
X90666268Y-124646103D01*
X90672582Y-124582000D01*
X90672582Y-124381553D01*
X97829009Y-124381553D01*
X97871603Y-124680907D01*
X97971778Y-124966199D01*
X98051739Y-125115792D01*
X98305920Y-125199475D01*
X99190395Y-124315000D01*
X99549605Y-124315000D01*
X100434080Y-125199475D01*
X100688261Y-125115792D01*
X100819158Y-124843225D01*
X100894365Y-124550358D01*
X100910991Y-124248447D01*
X100868397Y-123949093D01*
X100768222Y-123663801D01*
X100688261Y-123514208D01*
X100434080Y-123430525D01*
X99549605Y-124315000D01*
X99190395Y-124315000D01*
X98305920Y-123430525D01*
X98051739Y-123514208D01*
X97920842Y-123786775D01*
X97845635Y-124079642D01*
X97829009Y-124381553D01*
X90672582Y-124381553D01*
X90672582Y-123782000D01*
X90666268Y-123717897D01*
X90647570Y-123656257D01*
X90617206Y-123599450D01*
X90576343Y-123549657D01*
X90526550Y-123508794D01*
X90469743Y-123478430D01*
X90408103Y-123459732D01*
X90344000Y-123453418D01*
X89444000Y-123453418D01*
X89379897Y-123459732D01*
X89318257Y-123478430D01*
X89261450Y-123508794D01*
X89211657Y-123549657D01*
X89170794Y-123599450D01*
X89140430Y-123656257D01*
X89121732Y-123717897D01*
X89120038Y-123735098D01*
X89105392Y-123736540D01*
X89085562Y-123742556D01*
X89020190Y-123762386D01*
X88941667Y-123804357D01*
X88872841Y-123860841D01*
X88858681Y-123878096D01*
X88763775Y-123973001D01*
X88137849Y-123973001D01*
X88304977Y-123861330D01*
X88486330Y-123679977D01*
X88628818Y-123466728D01*
X88726965Y-123229779D01*
X88777000Y-122978236D01*
X88777000Y-122721764D01*
X88769091Y-122682000D01*
X88805928Y-122682000D01*
X88818188Y-122806482D01*
X88854498Y-122926180D01*
X88913463Y-123036494D01*
X88992815Y-123133185D01*
X89089506Y-123212537D01*
X89199820Y-123271502D01*
X89319518Y-123307812D01*
X89444000Y-123320072D01*
X89608250Y-123317000D01*
X89767000Y-123158250D01*
X89767000Y-122409000D01*
X90021000Y-122409000D01*
X90021000Y-123158250D01*
X90179750Y-123317000D01*
X90344000Y-123320072D01*
X90468482Y-123307812D01*
X90588180Y-123271502D01*
X90698494Y-123212537D01*
X90795185Y-123133185D01*
X90874537Y-123036494D01*
X90933502Y-122926180D01*
X90962071Y-122832000D01*
X91115418Y-122832000D01*
X91115418Y-123632000D01*
X91121732Y-123696103D01*
X91140430Y-123757743D01*
X91170794Y-123814550D01*
X91211657Y-123864343D01*
X91261450Y-123905206D01*
X91318257Y-123935570D01*
X91379897Y-123954268D01*
X91444000Y-123960582D01*
X92344000Y-123960582D01*
X92408103Y-123954268D01*
X92469743Y-123935570D01*
X92526550Y-123905206D01*
X92576343Y-123864343D01*
X92617206Y-123814550D01*
X92647570Y-123757743D01*
X92666268Y-123696103D01*
X92667460Y-123684000D01*
X93967693Y-123684000D01*
X94145023Y-123861330D01*
X94358272Y-124003818D01*
X94595221Y-124101965D01*
X94846764Y-124152000D01*
X95103236Y-124152000D01*
X95354779Y-124101965D01*
X95591728Y-124003818D01*
X95804977Y-123861330D01*
X95986330Y-123679977D01*
X96128818Y-123466728D01*
X96226965Y-123229779D01*
X96277000Y-122978236D01*
X96277000Y-122721764D01*
X96226965Y-122470221D01*
X96128818Y-122233272D01*
X95986330Y-122020023D01*
X95804977Y-121838670D01*
X95591728Y-121696182D01*
X95490256Y-121654151D01*
X98143000Y-121654151D01*
X98143000Y-121895849D01*
X98190153Y-122132903D01*
X98282647Y-122356202D01*
X98416927Y-122557167D01*
X98587833Y-122728073D01*
X98788798Y-122862353D01*
X98827796Y-122878507D01*
X98718801Y-122916778D01*
X98569208Y-122996739D01*
X98485525Y-123250920D01*
X99370000Y-124135395D01*
X100254475Y-123250920D01*
X100170792Y-122996739D01*
X99918858Y-122875751D01*
X99951202Y-122862353D01*
X100152167Y-122728073D01*
X100323073Y-122557167D01*
X100457353Y-122356202D01*
X100549847Y-122132903D01*
X100597000Y-121895849D01*
X100597000Y-121654151D01*
X100549847Y-121417097D01*
X100457353Y-121193798D01*
X100323073Y-120992833D01*
X100152167Y-120821927D01*
X99951202Y-120687647D01*
X99727903Y-120595153D01*
X99490849Y-120548000D01*
X99249151Y-120548000D01*
X99012097Y-120595153D01*
X98788798Y-120687647D01*
X98587833Y-120821927D01*
X98416927Y-120992833D01*
X98282647Y-121193798D01*
X98190153Y-121417097D01*
X98143000Y-121654151D01*
X95490256Y-121654151D01*
X95354779Y-121598035D01*
X95103236Y-121548000D01*
X94846764Y-121548000D01*
X94595221Y-121598035D01*
X94358272Y-121696182D01*
X94145023Y-121838670D01*
X93963670Y-122020023D01*
X93821182Y-122233272D01*
X93723035Y-122470221D01*
X93673000Y-122721764D01*
X93673000Y-122780000D01*
X92667460Y-122780000D01*
X92666268Y-122767897D01*
X92647570Y-122706257D01*
X92617206Y-122649450D01*
X92576343Y-122599657D01*
X92526550Y-122558794D01*
X92469743Y-122528430D01*
X92408103Y-122509732D01*
X92344000Y-122503418D01*
X91444000Y-122503418D01*
X91379897Y-122509732D01*
X91318257Y-122528430D01*
X91261450Y-122558794D01*
X91211657Y-122599657D01*
X91170794Y-122649450D01*
X91140430Y-122706257D01*
X91121732Y-122767897D01*
X91115418Y-122832000D01*
X90962071Y-122832000D01*
X90969812Y-122806482D01*
X90982072Y-122682000D01*
X90979000Y-122567750D01*
X90820250Y-122409000D01*
X90021000Y-122409000D01*
X89767000Y-122409000D01*
X88967750Y-122409000D01*
X88809000Y-122567750D01*
X88805928Y-122682000D01*
X88769091Y-122682000D01*
X88726965Y-122470221D01*
X88628818Y-122233272D01*
X88486330Y-122020023D01*
X88348307Y-121882000D01*
X88805928Y-121882000D01*
X88809000Y-121996250D01*
X88967750Y-122155000D01*
X89767000Y-122155000D01*
X89767000Y-121405750D01*
X90021000Y-121405750D01*
X90021000Y-122155000D01*
X90820250Y-122155000D01*
X90979000Y-121996250D01*
X90982072Y-121882000D01*
X90969812Y-121757518D01*
X90933502Y-121637820D01*
X90874537Y-121527506D01*
X90795185Y-121430815D01*
X90698494Y-121351463D01*
X90588180Y-121292498D01*
X90468482Y-121256188D01*
X90344000Y-121243928D01*
X90179750Y-121247000D01*
X90021000Y-121405750D01*
X89767000Y-121405750D01*
X89608250Y-121247000D01*
X89444000Y-121243928D01*
X89319518Y-121256188D01*
X89199820Y-121292498D01*
X89089506Y-121351463D01*
X88992815Y-121430815D01*
X88913463Y-121527506D01*
X88854498Y-121637820D01*
X88818188Y-121757518D01*
X88805928Y-121882000D01*
X88348307Y-121882000D01*
X88304977Y-121838670D01*
X88091728Y-121696182D01*
X87854779Y-121598035D01*
X87603236Y-121548000D01*
X87346764Y-121548000D01*
X87095221Y-121598035D01*
X86858272Y-121696182D01*
X86645023Y-121838670D01*
X86463670Y-122020023D01*
X86321182Y-122233272D01*
X86223035Y-122470221D01*
X86173000Y-122721764D01*
X86173000Y-122978236D01*
X86223035Y-123229779D01*
X86321182Y-123466728D01*
X86463670Y-123679977D01*
X86645023Y-123861330D01*
X86812151Y-123973001D01*
X84689319Y-123973001D01*
X84757624Y-119114151D01*
X98143000Y-119114151D01*
X98143000Y-119355849D01*
X98190153Y-119592903D01*
X98282647Y-119816202D01*
X98416927Y-120017167D01*
X98587833Y-120188073D01*
X98788798Y-120322353D01*
X99012097Y-120414847D01*
X99249151Y-120462000D01*
X99490849Y-120462000D01*
X99727903Y-120414847D01*
X99951202Y-120322353D01*
X100152167Y-120188073D01*
X100323073Y-120017167D01*
X100457353Y-119816202D01*
X100549847Y-119592903D01*
X100597000Y-119355849D01*
X100597000Y-119114151D01*
X100549847Y-118877097D01*
X100457353Y-118653798D01*
X100323073Y-118452833D01*
X100152167Y-118281927D01*
X99951202Y-118147647D01*
X99727903Y-118055153D01*
X99490849Y-118008000D01*
X99249151Y-118008000D01*
X99012097Y-118055153D01*
X98788798Y-118147647D01*
X98587833Y-118281927D01*
X98416927Y-118452833D01*
X98282647Y-118653798D01*
X98190153Y-118877097D01*
X98143000Y-119114151D01*
X84757624Y-119114151D01*
X84793331Y-116574151D01*
X98143000Y-116574151D01*
X98143000Y-116815849D01*
X98190153Y-117052903D01*
X98282647Y-117276202D01*
X98416927Y-117477167D01*
X98587833Y-117648073D01*
X98788798Y-117782353D01*
X99012097Y-117874847D01*
X99249151Y-117922000D01*
X99490849Y-117922000D01*
X99727903Y-117874847D01*
X99951202Y-117782353D01*
X100152167Y-117648073D01*
X100323073Y-117477167D01*
X100457353Y-117276202D01*
X100549847Y-117052903D01*
X100597000Y-116815849D01*
X100597000Y-116574151D01*
X100549847Y-116337097D01*
X100457353Y-116113798D01*
X100323073Y-115912833D01*
X100152167Y-115741927D01*
X99951202Y-115607647D01*
X99727903Y-115515153D01*
X99490849Y-115468000D01*
X99249151Y-115468000D01*
X99012097Y-115515153D01*
X98788798Y-115607647D01*
X98587833Y-115741927D01*
X98416927Y-115912833D01*
X98282647Y-116113798D01*
X98190153Y-116337097D01*
X98143000Y-116574151D01*
X84793331Y-116574151D01*
X84892330Y-109532000D01*
X86255418Y-109532000D01*
X86255418Y-111132000D01*
X86261732Y-111196103D01*
X86280430Y-111257743D01*
X86310794Y-111314550D01*
X86351657Y-111364343D01*
X86401450Y-111405206D01*
X86458257Y-111435570D01*
X86519897Y-111454268D01*
X86584000Y-111460582D01*
X88184000Y-111460582D01*
X88248103Y-111454268D01*
X88309743Y-111435570D01*
X88366550Y-111405206D01*
X88416343Y-111364343D01*
X88448874Y-111324702D01*
X90070903Y-111324702D01*
X90142486Y-111568671D01*
X90397996Y-111689571D01*
X90672184Y-111758300D01*
X90954512Y-111772217D01*
X91234130Y-111730787D01*
X91500292Y-111635603D01*
X91625514Y-111568671D01*
X91697097Y-111324702D01*
X91667097Y-111294702D01*
X95150903Y-111294702D01*
X95222486Y-111538671D01*
X95477996Y-111659571D01*
X95752184Y-111728300D01*
X96034512Y-111742217D01*
X96314130Y-111700787D01*
X96580292Y-111605603D01*
X96705514Y-111538671D01*
X96777097Y-111294702D01*
X95964000Y-110481605D01*
X95150903Y-111294702D01*
X91667097Y-111294702D01*
X90884000Y-110511605D01*
X90070903Y-111324702D01*
X88448874Y-111324702D01*
X88457206Y-111314550D01*
X88487570Y-111257743D01*
X88506268Y-111196103D01*
X88512582Y-111132000D01*
X88512582Y-110402512D01*
X89443783Y-110402512D01*
X89485213Y-110682130D01*
X89580397Y-110948292D01*
X89647329Y-111073514D01*
X89891298Y-111145097D01*
X90704395Y-110332000D01*
X91063605Y-110332000D01*
X91876702Y-111145097D01*
X92120671Y-111073514D01*
X92241571Y-110818004D01*
X92310300Y-110543816D01*
X92318744Y-110372512D01*
X94523783Y-110372512D01*
X94565213Y-110652130D01*
X94660397Y-110918292D01*
X94727329Y-111043514D01*
X94971298Y-111115097D01*
X95784395Y-110302000D01*
X96143605Y-110302000D01*
X96956702Y-111115097D01*
X97200671Y-111043514D01*
X97321571Y-110788004D01*
X97390300Y-110513816D01*
X97404217Y-110231488D01*
X97362787Y-109951870D01*
X97267603Y-109685708D01*
X97200671Y-109560486D01*
X97001340Y-109502000D01*
X98335418Y-109502000D01*
X98335418Y-111102000D01*
X98341732Y-111166103D01*
X98360430Y-111227743D01*
X98390794Y-111284550D01*
X98431657Y-111334343D01*
X98481450Y-111375206D01*
X98538257Y-111405570D01*
X98599897Y-111424268D01*
X98664000Y-111430582D01*
X100264000Y-111430582D01*
X100328103Y-111424268D01*
X100389743Y-111405570D01*
X100446550Y-111375206D01*
X100496343Y-111334343D01*
X100537206Y-111284550D01*
X100567570Y-111227743D01*
X100586268Y-111166103D01*
X100592582Y-111102000D01*
X100592582Y-109502000D01*
X100586268Y-109437897D01*
X100567570Y-109376257D01*
X100537206Y-109319450D01*
X100496343Y-109269657D01*
X100446550Y-109228794D01*
X100389743Y-109198430D01*
X100328103Y-109179732D01*
X100264000Y-109173418D01*
X98664000Y-109173418D01*
X98599897Y-109179732D01*
X98538257Y-109198430D01*
X98481450Y-109228794D01*
X98431657Y-109269657D01*
X98390794Y-109319450D01*
X98360430Y-109376257D01*
X98341732Y-109437897D01*
X98335418Y-109502000D01*
X97001340Y-109502000D01*
X96956702Y-109488903D01*
X96143605Y-110302000D01*
X95784395Y-110302000D01*
X94971298Y-109488903D01*
X94727329Y-109560486D01*
X94606429Y-109815996D01*
X94537700Y-110090184D01*
X94523783Y-110372512D01*
X92318744Y-110372512D01*
X92324217Y-110261488D01*
X92282787Y-109981870D01*
X92187603Y-109715708D01*
X92120671Y-109590486D01*
X91876702Y-109518903D01*
X91063605Y-110332000D01*
X90704395Y-110332000D01*
X89891298Y-109518903D01*
X89647329Y-109590486D01*
X89526429Y-109845996D01*
X89457700Y-110120184D01*
X89443783Y-110402512D01*
X88512582Y-110402512D01*
X88512582Y-109532000D01*
X88506268Y-109467897D01*
X88487570Y-109406257D01*
X88457206Y-109349450D01*
X88416343Y-109299657D01*
X88366550Y-109258794D01*
X88309743Y-109228430D01*
X88248103Y-109209732D01*
X88184000Y-109203418D01*
X87961000Y-109203418D01*
X87961000Y-109081001D01*
X88333001Y-108709000D01*
X88546340Y-108709000D01*
X88600728Y-108775272D01*
X88683669Y-108843340D01*
X88778295Y-108893919D01*
X88880971Y-108925065D01*
X88987750Y-108935582D01*
X89425250Y-108935582D01*
X89532029Y-108925065D01*
X89634705Y-108893919D01*
X89729331Y-108843340D01*
X89747577Y-108828366D01*
X89754498Y-108851180D01*
X89813463Y-108961494D01*
X89892815Y-109058185D01*
X89989506Y-109137537D01*
X90099820Y-109196502D01*
X90111740Y-109200118D01*
X90070903Y-109339298D01*
X90884000Y-110152395D01*
X91697097Y-109339298D01*
X91688295Y-109309298D01*
X95150903Y-109309298D01*
X95964000Y-110122395D01*
X96777097Y-109309298D01*
X96705514Y-109065329D01*
X96450004Y-108944429D01*
X96175816Y-108875700D01*
X95893488Y-108861783D01*
X95613870Y-108903213D01*
X95347708Y-108998397D01*
X95222486Y-109065329D01*
X95150903Y-109309298D01*
X91688295Y-109309298D01*
X91625514Y-109095329D01*
X91625140Y-109095152D01*
X91670185Y-109058185D01*
X91749537Y-108961494D01*
X91808502Y-108851180D01*
X91844812Y-108731482D01*
X91857072Y-108607000D01*
X91854000Y-108417750D01*
X91695250Y-108259000D01*
X90908500Y-108259000D01*
X90908500Y-108279000D01*
X90654500Y-108279000D01*
X90654500Y-108259000D01*
X90634500Y-108259000D01*
X90634500Y-108005000D01*
X90654500Y-108005000D01*
X90654500Y-107180750D01*
X90908500Y-107180750D01*
X90908500Y-108005000D01*
X91695250Y-108005000D01*
X91854000Y-107846250D01*
X91857072Y-107657000D01*
X91844812Y-107532518D01*
X91808502Y-107412820D01*
X91749537Y-107302506D01*
X91670185Y-107205815D01*
X91573494Y-107126463D01*
X91463180Y-107067498D01*
X91343482Y-107031188D01*
X91219000Y-107018928D01*
X91067250Y-107022000D01*
X90908500Y-107180750D01*
X90654500Y-107180750D01*
X90495750Y-107022000D01*
X90344000Y-107018928D01*
X90219518Y-107031188D01*
X90099820Y-107067498D01*
X89989506Y-107126463D01*
X89892815Y-107205815D01*
X89813463Y-107302506D01*
X89754498Y-107412820D01*
X89747577Y-107435634D01*
X89729331Y-107420660D01*
X89634705Y-107370081D01*
X89532029Y-107338935D01*
X89425250Y-107328418D01*
X88987750Y-107328418D01*
X88880971Y-107338935D01*
X88778295Y-107370081D01*
X88683669Y-107420660D01*
X88600728Y-107488728D01*
X88546340Y-107555000D01*
X88122339Y-107555000D01*
X88094000Y-107552209D01*
X87980888Y-107563349D01*
X87916782Y-107582796D01*
X87872124Y-107596343D01*
X87771885Y-107649921D01*
X87684026Y-107722026D01*
X87665961Y-107744038D01*
X86996038Y-108413961D01*
X86974026Y-108432026D01*
X86901921Y-108519886D01*
X86848343Y-108620125D01*
X86834796Y-108664783D01*
X86815349Y-108728889D01*
X86804210Y-108842000D01*
X86807000Y-108870331D01*
X86807000Y-109203418D01*
X86584000Y-109203418D01*
X86519897Y-109209732D01*
X86458257Y-109228430D01*
X86401450Y-109258794D01*
X86351657Y-109299657D01*
X86310794Y-109349450D01*
X86280430Y-109406257D01*
X86261732Y-109467897D01*
X86255418Y-109532000D01*
X84892330Y-109532000D01*
X84977063Y-103504628D01*
X85305418Y-103504950D01*
G36*
X126956215Y-63908642D02*
G01*
X126945383Y-73775829D01*
X123403553Y-70234000D01*
X123707983Y-70234000D01*
X124312112Y-70113831D01*
X124881190Y-69878111D01*
X125393346Y-69535899D01*
X125828899Y-69100346D01*
X126171111Y-68588190D01*
X126406831Y-68019112D01*
X126527000Y-67414983D01*
X126527000Y-66799017D01*
X126406831Y-66194888D01*
X126171111Y-65625810D01*
X125828899Y-65113654D01*
X125393346Y-64678101D01*
X124881190Y-64335889D01*
X124312112Y-64100169D01*
X123707983Y-63980000D01*
X123092017Y-63980000D01*
X122487888Y-64100169D01*
X121918810Y-64335889D01*
X121406654Y-64678101D01*
X120971101Y-65113654D01*
X120628889Y-65625810D01*
X120393169Y-66194888D01*
X120273000Y-66799017D01*
X120273000Y-67414983D01*
X120393169Y-68019112D01*
X120628889Y-68588190D01*
X120971101Y-69100346D01*
X121406654Y-69535899D01*
X121671704Y-69713000D01*
X118009554Y-69713000D01*
X115945516Y-67648963D01*
X115946694Y-67637000D01*
X115923969Y-67406268D01*
X115856667Y-67184403D01*
X115747374Y-66979930D01*
X115600291Y-66800709D01*
X115421070Y-66653626D01*
X115216597Y-66544333D01*
X114994732Y-66477031D01*
X114821812Y-66460000D01*
X114706188Y-66460000D01*
X114533268Y-66477031D01*
X114311403Y-66544333D01*
X114106930Y-66653626D01*
X113927709Y-66800709D01*
X113780626Y-66979930D01*
X113671333Y-67184403D01*
X113604031Y-67406268D01*
X113581306Y-67637000D01*
X113604031Y-67867732D01*
X113671333Y-68089597D01*
X113780626Y-68294070D01*
X113927709Y-68473291D01*
X114106930Y-68620374D01*
X114311403Y-68729667D01*
X114533268Y-68796969D01*
X114706188Y-68814000D01*
X114771447Y-68814000D01*
X117053497Y-71096051D01*
X117079394Y-71127606D01*
X117110947Y-71153501D01*
X117110948Y-71153502D01*
X117205320Y-71230952D01*
X117255808Y-71257938D01*
X117348990Y-71307745D01*
X117504880Y-71355034D01*
X117626376Y-71367000D01*
X117626386Y-71367000D01*
X117667000Y-71371000D01*
X117707614Y-71367000D01*
X122197447Y-71367000D01*
X125717991Y-74887545D01*
X125717990Y-88883455D01*
X123076447Y-91525000D01*
X117790819Y-91525000D01*
X117742421Y-91476602D01*
X117557835Y-91353266D01*
X117352734Y-91268310D01*
X117135000Y-91225000D01*
X116913000Y-91225000D01*
X116695266Y-91268310D01*
X116490165Y-91353266D01*
X116305579Y-91476602D01*
X116148602Y-91633579D01*
X116025266Y-91818165D01*
X115940310Y-92023266D01*
X115897000Y-92241000D01*
X115897000Y-92463000D01*
X115940310Y-92680734D01*
X116025266Y-92885835D01*
X116148602Y-93070421D01*
X116305579Y-93227398D01*
X116490165Y-93350734D01*
X116695266Y-93435690D01*
X116913000Y-93479000D01*
X117135000Y-93479000D01*
X117352734Y-93435690D01*
X117557835Y-93350734D01*
X117742421Y-93227398D01*
X117790819Y-93179000D01*
X123378386Y-93179000D01*
X123419000Y-93183000D01*
X123459614Y-93179000D01*
X123459624Y-93179000D01*
X123581120Y-93167034D01*
X123737010Y-93119745D01*
X123880679Y-93042952D01*
X124006606Y-92939606D01*
X124032505Y-92908048D01*
X126927559Y-90012996D01*
X126917001Y-99630934D01*
X126870907Y-102605000D01*
X94891356Y-102605000D01*
X95059583Y-102449122D01*
X95206487Y-102246420D01*
X95311023Y-102018953D01*
X95254638Y-101825000D01*
X94327000Y-101825000D01*
X94327000Y-101845000D01*
X93881000Y-101845000D01*
X93881000Y-101825000D01*
X92953362Y-101825000D01*
X92896977Y-102018953D01*
X93001513Y-102246420D01*
X93148417Y-102449122D01*
X93316644Y-102605000D01*
X92351356Y-102605000D01*
X92519583Y-102449122D01*
X92666487Y-102246420D01*
X92771023Y-102018953D01*
X92714638Y-101825000D01*
X91787000Y-101825000D01*
X91787000Y-101845000D01*
X91341000Y-101845000D01*
X91341000Y-101825000D01*
X90413362Y-101825000D01*
X90356977Y-102018953D01*
X90461513Y-102246420D01*
X90608417Y-102449122D01*
X90776644Y-102605000D01*
X89644352Y-102605000D01*
X89681070Y-102585374D01*
X89860291Y-102438291D01*
X90007374Y-102259070D01*
X90116667Y-102054597D01*
X90183969Y-101832732D01*
X90206694Y-101602000D01*
X90183969Y-101371268D01*
X90127480Y-101185047D01*
X90356977Y-101185047D01*
X90413362Y-101379000D01*
X91341000Y-101379000D01*
X91341000Y-100453194D01*
X91787000Y-100453194D01*
X91787000Y-101379000D01*
X92714638Y-101379000D01*
X92771023Y-101185047D01*
X92896977Y-101185047D01*
X92953362Y-101379000D01*
X93881000Y-101379000D01*
X93881000Y-100453194D01*
X94327000Y-100453194D01*
X94327000Y-101379000D01*
X95254638Y-101379000D01*
X95311023Y-101185047D01*
X95206487Y-100957580D01*
X95059583Y-100754878D01*
X94875956Y-100584730D01*
X94662664Y-100453675D01*
X94520952Y-100394987D01*
X94327000Y-100453194D01*
X93881000Y-100453194D01*
X93687048Y-100394987D01*
X93545336Y-100453675D01*
X93332044Y-100584730D01*
X93148417Y-100754878D01*
X93001513Y-100957580D01*
X92896977Y-101185047D01*
X92771023Y-101185047D01*
X92666487Y-100957580D01*
X92519583Y-100754878D01*
X92335956Y-100584730D01*
X92122664Y-100453675D01*
X91980952Y-100394987D01*
X91787000Y-100453194D01*
X91341000Y-100453194D01*
X91147048Y-100394987D01*
X91005336Y-100453675D01*
X90792044Y-100584730D01*
X90608417Y-100754878D01*
X90461513Y-100957580D01*
X90356977Y-101185047D01*
X90127480Y-101185047D01*
X90116667Y-101149403D01*
X90007374Y-100944930D01*
X89860291Y-100765709D01*
X89681070Y-100618626D01*
X89476597Y-100509333D01*
X89254732Y-100442031D01*
X89081812Y-100425000D01*
X88966188Y-100425000D01*
X88793268Y-100442031D01*
X88571403Y-100509333D01*
X88366930Y-100618626D01*
X88187709Y-100765709D01*
X88040626Y-100944930D01*
X87931333Y-101149403D01*
X87864031Y-101371268D01*
X87841306Y-101602000D01*
X87864031Y-101832732D01*
X87931333Y-102054597D01*
X88040626Y-102259070D01*
X88187709Y-102438291D01*
X88366930Y-102585374D01*
X88403648Y-102605000D01*
X87104352Y-102605000D01*
X87141070Y-102585374D01*
X87320291Y-102438291D01*
X87467374Y-102259070D01*
X87576667Y-102054597D01*
X87643969Y-101832732D01*
X87666694Y-101602000D01*
X87643969Y-101371268D01*
X87576667Y-101149403D01*
X87467374Y-100944930D01*
X87320291Y-100765709D01*
X87141070Y-100618626D01*
X86936597Y-100509333D01*
X86714732Y-100442031D01*
X86541812Y-100425000D01*
X86426188Y-100425000D01*
X86253268Y-100442031D01*
X86031403Y-100509333D01*
X85826930Y-100618626D01*
X85647709Y-100765709D01*
X85500626Y-100944930D01*
X85391333Y-101149403D01*
X85324031Y-101371268D01*
X85301306Y-101602000D01*
X85324031Y-101832732D01*
X85391333Y-102054597D01*
X85500626Y-102259070D01*
X85647709Y-102438291D01*
X85826930Y-102585374D01*
X85863648Y-102605000D01*
X84069000Y-102605000D01*
X84044224Y-102607440D01*
X84020399Y-102614667D01*
X83998443Y-102626403D01*
X83979197Y-102642197D01*
X83963403Y-102661443D01*
X83951667Y-102683399D01*
X83944440Y-102707224D01*
X83942000Y-102732274D01*
X83966726Y-114205000D01*
X74966000Y-114205000D01*
X74966000Y-112990436D01*
X78120933Y-112990436D01*
X78272851Y-113215368D01*
X78586016Y-113348246D01*
X78919087Y-113417476D01*
X79259263Y-113420396D01*
X79593473Y-113356895D01*
X79908873Y-113229413D01*
X79935149Y-113215368D01*
X80087067Y-112990436D01*
X79104000Y-112007370D01*
X78120933Y-112990436D01*
X74966000Y-112990436D01*
X74966000Y-111847263D01*
X77375604Y-111847263D01*
X77439105Y-112181473D01*
X77566587Y-112496873D01*
X77580632Y-112523149D01*
X77805564Y-112675067D01*
X78788630Y-111692000D01*
X79419370Y-111692000D01*
X80402436Y-112675067D01*
X80627368Y-112523149D01*
X80760246Y-112209984D01*
X80829476Y-111876913D01*
X80832396Y-111536737D01*
X80768895Y-111202527D01*
X80641413Y-110887127D01*
X80627368Y-110860851D01*
X80402436Y-110708933D01*
X79419370Y-111692000D01*
X78788630Y-111692000D01*
X77805564Y-110708933D01*
X77580632Y-110860851D01*
X77447754Y-111174016D01*
X77378524Y-111507087D01*
X77375604Y-111847263D01*
X74966000Y-111847263D01*
X74966000Y-110393564D01*
X78120933Y-110393564D01*
X79104000Y-111376630D01*
X80087067Y-110393564D01*
X79935149Y-110168632D01*
X79621984Y-110035754D01*
X79288913Y-109966524D01*
X78948737Y-109963604D01*
X78614527Y-110027105D01*
X78299127Y-110154587D01*
X78272851Y-110168632D01*
X78120933Y-110393564D01*
X74966000Y-110393564D01*
X74966000Y-105392000D01*
X77475418Y-105392000D01*
X77475418Y-107992000D01*
X77481732Y-108056103D01*
X77500430Y-108117743D01*
X77530794Y-108174550D01*
X77571657Y-108224343D01*
X77621450Y-108265206D01*
X77678257Y-108295570D01*
X77739897Y-108314268D01*
X77804000Y-108320582D01*
X80404000Y-108320582D01*
X80468103Y-108314268D01*
X80529743Y-108295570D01*
X80586550Y-108265206D01*
X80636343Y-108224343D01*
X80677206Y-108174550D01*
X80707570Y-108117743D01*
X80726268Y-108056103D01*
X80732582Y-107992000D01*
X80732582Y-105392000D01*
X80726268Y-105327897D01*
X80707570Y-105266257D01*
X80677206Y-105209450D01*
X80636343Y-105159657D01*
X80586550Y-105118794D01*
X80529743Y-105088430D01*
X80468103Y-105069732D01*
X80404000Y-105063418D01*
X77804000Y-105063418D01*
X77739897Y-105069732D01*
X77678257Y-105088430D01*
X77621450Y-105118794D01*
X77571657Y-105159657D01*
X77530794Y-105209450D01*
X77500430Y-105266257D01*
X77481732Y-105327897D01*
X77475418Y-105392000D01*
X74966000Y-105392000D01*
X74966000Y-96394223D01*
X75551224Y-95809000D01*
X82501795Y-95809000D01*
X82524000Y-95811187D01*
X82546205Y-95809000D01*
X82612607Y-95802460D01*
X82697810Y-95776614D01*
X82776333Y-95734643D01*
X82845159Y-95678159D01*
X82859323Y-95660900D01*
X83528907Y-94991317D01*
X83542397Y-94994000D01*
X83685603Y-94994000D01*
X83826058Y-94966062D01*
X83958364Y-94911259D01*
X84077436Y-94831698D01*
X84178698Y-94730436D01*
X84258259Y-94611364D01*
X84313062Y-94479058D01*
X84341000Y-94338603D01*
X84341000Y-94195397D01*
X84313062Y-94054942D01*
X84258259Y-93922636D01*
X84178698Y-93803564D01*
X84077436Y-93702302D01*
X83958364Y-93622741D01*
X83826058Y-93567938D01*
X83685603Y-93540000D01*
X83542397Y-93540000D01*
X83401942Y-93567938D01*
X83269636Y-93622741D01*
X83150564Y-93702302D01*
X83049302Y-93803564D01*
X82969741Y-93922636D01*
X82914938Y-94054942D01*
X82887000Y-94195397D01*
X82887000Y-94338603D01*
X82889683Y-94352093D01*
X82336777Y-94905000D01*
X75386205Y-94905000D01*
X75364000Y-94902813D01*
X75275392Y-94911540D01*
X75197914Y-94935043D01*
X75190190Y-94937386D01*
X75111667Y-94979357D01*
X75042841Y-95035841D01*
X75028681Y-95053095D01*
X74210100Y-95871677D01*
X74192841Y-95885841D01*
X74136358Y-95954667D01*
X74094386Y-96033191D01*
X74068540Y-96118393D01*
X74059813Y-96207000D01*
X74062000Y-96229205D01*
X74062001Y-114205000D01*
X74045839Y-114205000D01*
X74018457Y-92631000D01*
X96597000Y-92631000D01*
X96597000Y-92853000D01*
X96640310Y-93070734D01*
X96725266Y-93275835D01*
X96848602Y-93460421D01*
X96997001Y-93608820D01*
X96997000Y-96275181D01*
X96848602Y-96423579D01*
X96725266Y-96608165D01*
X96640310Y-96813266D01*
X96597000Y-97031000D01*
X96597000Y-97253000D01*
X96640310Y-97470734D01*
X96725266Y-97675835D01*
X96848602Y-97860421D01*
X97005579Y-98017398D01*
X97190165Y-98140734D01*
X97395266Y-98225690D01*
X97613000Y-98269000D01*
X97835000Y-98269000D01*
X98052734Y-98225690D01*
X98257835Y-98140734D01*
X98442421Y-98017398D01*
X98599398Y-97860421D01*
X98722734Y-97675835D01*
X98807690Y-97470734D01*
X98851000Y-97253000D01*
X98851000Y-97031000D01*
X98807690Y-96813266D01*
X98722734Y-96608165D01*
X98599398Y-96423579D01*
X98451000Y-96275181D01*
X98451000Y-94925397D01*
X112127000Y-94925397D01*
X112127000Y-95068603D01*
X112154938Y-95209058D01*
X112209741Y-95341364D01*
X112289302Y-95460436D01*
X112390564Y-95561698D01*
X112411623Y-95575769D01*
X112434386Y-95650809D01*
X112458574Y-95696062D01*
X112476358Y-95729333D01*
X112532842Y-95798159D01*
X112550096Y-95812319D01*
X113359290Y-96621514D01*
X113356607Y-96635004D01*
X113356607Y-96778210D01*
X113384545Y-96918665D01*
X113439348Y-97050971D01*
X113518909Y-97170043D01*
X113620171Y-97271305D01*
X113739243Y-97350866D01*
X113871549Y-97405669D01*
X114012004Y-97433607D01*
X114155210Y-97433607D01*
X114295665Y-97405669D01*
X114427971Y-97350866D01*
X114547043Y-97271305D01*
X114648305Y-97170043D01*
X114727866Y-97050971D01*
X114732120Y-97040699D01*
X117627000Y-97040699D01*
X117627000Y-97223301D01*
X117662624Y-97402396D01*
X117732504Y-97571099D01*
X117833952Y-97722928D01*
X117963072Y-97852048D01*
X118114901Y-97953496D01*
X118283604Y-98023376D01*
X118462699Y-98059000D01*
X118645301Y-98059000D01*
X118824396Y-98023376D01*
X118993099Y-97953496D01*
X119036306Y-97924626D01*
X123156743Y-97924626D01*
X123222166Y-98078231D01*
X123414680Y-98140394D01*
X123615622Y-98163806D01*
X123817271Y-98147565D01*
X124011876Y-98092297D01*
X124045834Y-98078231D01*
X124111257Y-97924626D01*
X123634000Y-97447370D01*
X123156743Y-97924626D01*
X119036306Y-97924626D01*
X119144928Y-97852048D01*
X119274048Y-97722928D01*
X119375496Y-97571099D01*
X119445376Y-97402396D01*
X119481000Y-97223301D01*
X119481000Y-97113622D01*
X122602194Y-97113622D01*
X122618435Y-97315271D01*
X122673703Y-97509876D01*
X122687769Y-97543834D01*
X122841374Y-97609257D01*
X123318630Y-97132000D01*
X123949370Y-97132000D01*
X124426626Y-97609257D01*
X124580231Y-97543834D01*
X124642394Y-97351320D01*
X124665806Y-97150378D01*
X124649565Y-96948729D01*
X124594297Y-96754124D01*
X124580231Y-96720166D01*
X124426626Y-96654743D01*
X123949370Y-97132000D01*
X123318630Y-97132000D01*
X122841374Y-96654743D01*
X122687769Y-96720166D01*
X122625606Y-96912680D01*
X122602194Y-97113622D01*
X119481000Y-97113622D01*
X119481000Y-97040699D01*
X119445376Y-96861604D01*
X119375496Y-96692901D01*
X119274048Y-96541072D01*
X119144928Y-96411952D01*
X119036307Y-96339374D01*
X123156743Y-96339374D01*
X123634000Y-96816630D01*
X124111257Y-96339374D01*
X124045834Y-96185769D01*
X123853320Y-96123606D01*
X123652378Y-96100194D01*
X123450729Y-96116435D01*
X123256124Y-96171703D01*
X123222166Y-96185769D01*
X123156743Y-96339374D01*
X119036307Y-96339374D01*
X118993099Y-96310504D01*
X118824396Y-96240624D01*
X118645301Y-96205000D01*
X118462699Y-96205000D01*
X118283604Y-96240624D01*
X118114901Y-96310504D01*
X117963072Y-96411952D01*
X117833952Y-96541072D01*
X117732504Y-96692901D01*
X117662624Y-96861604D01*
X117627000Y-97040699D01*
X114732120Y-97040699D01*
X114782669Y-96918665D01*
X114810607Y-96778210D01*
X114810607Y-96635004D01*
X114782669Y-96494549D01*
X114727866Y-96362243D01*
X114648305Y-96243171D01*
X114547043Y-96141909D01*
X114427971Y-96062348D01*
X114295665Y-96007545D01*
X114155210Y-95979607D01*
X114012004Y-95979607D01*
X113998514Y-95982290D01*
X113441914Y-95425691D01*
X113498259Y-95341364D01*
X113553062Y-95209058D01*
X113581000Y-95068603D01*
X113581000Y-94925397D01*
X113553062Y-94784942D01*
X113498259Y-94652636D01*
X113418698Y-94533564D01*
X113317436Y-94432302D01*
X113198364Y-94352741D01*
X113066058Y-94297938D01*
X112925603Y-94270000D01*
X112782397Y-94270000D01*
X112641942Y-94297938D01*
X112509636Y-94352741D01*
X112390564Y-94432302D01*
X112289302Y-94533564D01*
X112209741Y-94652636D01*
X112154938Y-94784942D01*
X112127000Y-94925397D01*
X98451000Y-94925397D01*
X98451000Y-93615397D01*
X110247000Y-93615397D01*
X110247000Y-93758603D01*
X110274938Y-93899058D01*
X110329741Y-94031364D01*
X110409302Y-94150436D01*
X110510564Y-94251698D01*
X110629636Y-94331259D01*
X110761942Y-94386062D01*
X110902397Y-94414000D01*
X111045603Y-94414000D01*
X111186058Y-94386062D01*
X111318364Y-94331259D01*
X111437436Y-94251698D01*
X111500134Y-94189000D01*
X115396777Y-94189000D01*
X115594290Y-94386514D01*
X115591607Y-94400004D01*
X115591607Y-94543210D01*
X115619545Y-94683665D01*
X115674348Y-94815971D01*
X115753909Y-94935043D01*
X115855171Y-95036305D01*
X115974243Y-95115866D01*
X116106549Y-95170669D01*
X116247004Y-95198607D01*
X116390210Y-95198607D01*
X116530665Y-95170669D01*
X116662971Y-95115866D01*
X116782043Y-95036305D01*
X116883305Y-94935043D01*
X116962866Y-94815971D01*
X117017669Y-94683665D01*
X117045607Y-94543210D01*
X117045607Y-94500699D01*
X120167000Y-94500699D01*
X120167000Y-94683301D01*
X120202624Y-94862396D01*
X120272504Y-95031099D01*
X120373952Y-95182928D01*
X120503072Y-95312048D01*
X120654901Y-95413496D01*
X120823604Y-95483376D01*
X121002699Y-95519000D01*
X121185301Y-95519000D01*
X121364396Y-95483376D01*
X121533099Y-95413496D01*
X121684928Y-95312048D01*
X121814048Y-95182928D01*
X121915496Y-95031099D01*
X121985376Y-94862396D01*
X122021000Y-94683301D01*
X122021000Y-94500699D01*
X121985376Y-94321604D01*
X121915496Y-94152901D01*
X121814048Y-94001072D01*
X121684928Y-93871952D01*
X121533099Y-93770504D01*
X121364396Y-93700624D01*
X121185301Y-93665000D01*
X121002699Y-93665000D01*
X120823604Y-93700624D01*
X120654901Y-93770504D01*
X120503072Y-93871952D01*
X120373952Y-94001072D01*
X120272504Y-94152901D01*
X120202624Y-94321604D01*
X120167000Y-94500699D01*
X117045607Y-94500699D01*
X117045607Y-94400004D01*
X117017669Y-94259549D01*
X116962866Y-94127243D01*
X116883305Y-94008171D01*
X116782043Y-93906909D01*
X116662971Y-93827348D01*
X116530665Y-93772545D01*
X116390210Y-93744607D01*
X116247004Y-93744607D01*
X116233514Y-93747290D01*
X115919323Y-93433100D01*
X115905159Y-93415841D01*
X115836333Y-93359357D01*
X115757810Y-93317386D01*
X115672607Y-93291540D01*
X115606205Y-93285000D01*
X115584000Y-93282813D01*
X115561795Y-93285000D01*
X111579748Y-93285000D01*
X111538698Y-93223564D01*
X111437436Y-93122302D01*
X111318364Y-93042741D01*
X111186058Y-92987938D01*
X111045603Y-92960000D01*
X110902397Y-92960000D01*
X110761942Y-92987938D01*
X110629636Y-93042741D01*
X110510564Y-93122302D01*
X110409302Y-93223564D01*
X110329741Y-93342636D01*
X110274938Y-93474942D01*
X110247000Y-93615397D01*
X98451000Y-93615397D01*
X98451000Y-93608819D01*
X98599398Y-93460421D01*
X98722734Y-93275835D01*
X98807690Y-93070734D01*
X98851000Y-92853000D01*
X98851000Y-92643973D01*
X108537397Y-92643973D01*
X108621710Y-92812734D01*
X108840251Y-92890152D01*
X109069696Y-92923447D01*
X109301229Y-92911340D01*
X109525950Y-92854297D01*
X109626290Y-92812734D01*
X109710603Y-92643973D01*
X109124000Y-92057370D01*
X108537397Y-92643973D01*
X98851000Y-92643973D01*
X98851000Y-92631000D01*
X98807690Y-92413266D01*
X98722734Y-92208165D01*
X98599398Y-92023579D01*
X98442421Y-91866602D01*
X98257835Y-91743266D01*
X98123678Y-91687696D01*
X107942553Y-91687696D01*
X107954660Y-91919229D01*
X108011703Y-92143950D01*
X108053266Y-92244290D01*
X108222027Y-92328603D01*
X108808630Y-91742000D01*
X109439370Y-91742000D01*
X110025973Y-92328603D01*
X110194734Y-92244290D01*
X110272152Y-92025749D01*
X110305447Y-91796304D01*
X110293340Y-91564771D01*
X110236297Y-91340050D01*
X110194734Y-91239710D01*
X110025973Y-91155397D01*
X109439370Y-91742000D01*
X108808630Y-91742000D01*
X108222027Y-91155397D01*
X108053266Y-91239710D01*
X107975848Y-91458251D01*
X107942553Y-91687696D01*
X98123678Y-91687696D01*
X98052734Y-91658310D01*
X97835000Y-91615000D01*
X97613000Y-91615000D01*
X97395266Y-91658310D01*
X97190165Y-91743266D01*
X97005579Y-91866602D01*
X96848602Y-92023579D01*
X96725266Y-92208165D01*
X96640310Y-92413266D01*
X96597000Y-92631000D01*
X74018457Y-92631000D01*
X74010199Y-86125397D01*
X77557000Y-86125397D01*
X77557000Y-86268603D01*
X77584938Y-86409058D01*
X77639741Y-86541364D01*
X77719302Y-86660436D01*
X77820564Y-86761698D01*
X77832000Y-86769339D01*
X77832001Y-90594785D01*
X77829813Y-90617000D01*
X77838540Y-90705607D01*
X77864386Y-90790809D01*
X77864387Y-90790810D01*
X77906358Y-90869333D01*
X77962842Y-90938159D01*
X77980096Y-90952319D01*
X78729683Y-91701907D01*
X78727000Y-91715397D01*
X78727000Y-91858603D01*
X78754938Y-91999058D01*
X78809741Y-92131364D01*
X78889302Y-92250436D01*
X78990564Y-92351698D01*
X79109636Y-92431259D01*
X79241942Y-92486062D01*
X79382397Y-92514000D01*
X79525603Y-92514000D01*
X79666058Y-92486062D01*
X79798364Y-92431259D01*
X79917436Y-92351698D01*
X80018698Y-92250436D01*
X80098259Y-92131364D01*
X80153062Y-91999058D01*
X80181000Y-91858603D01*
X80181000Y-91715397D01*
X80153062Y-91574942D01*
X80098259Y-91442636D01*
X80018698Y-91323564D01*
X79917436Y-91222302D01*
X79798364Y-91142741D01*
X79666058Y-91087938D01*
X79525603Y-91060000D01*
X79382397Y-91060000D01*
X79368907Y-91062683D01*
X79146251Y-90840027D01*
X108537397Y-90840027D01*
X109124000Y-91426630D01*
X109710603Y-90840027D01*
X109626290Y-90671266D01*
X109407749Y-90593848D01*
X109178304Y-90560553D01*
X108946771Y-90572660D01*
X108722050Y-90629703D01*
X108621710Y-90671266D01*
X108537397Y-90840027D01*
X79146251Y-90840027D01*
X78736000Y-90429777D01*
X78736000Y-89095925D01*
X108047000Y-89095925D01*
X108047000Y-89308075D01*
X108088389Y-89516149D01*
X108169575Y-89712151D01*
X108287440Y-89888547D01*
X108437453Y-90038560D01*
X108613849Y-90156425D01*
X108809851Y-90237611D01*
X109017925Y-90279000D01*
X109230075Y-90279000D01*
X109438149Y-90237611D01*
X109634151Y-90156425D01*
X109810547Y-90038560D01*
X109960560Y-89888547D01*
X110078425Y-89712151D01*
X110159611Y-89516149D01*
X110201000Y-89308075D01*
X110201000Y-89095925D01*
X110159611Y-88887851D01*
X110078425Y-88691849D01*
X109960560Y-88515453D01*
X109810547Y-88365440D01*
X109634151Y-88247575D01*
X109438149Y-88166389D01*
X109230075Y-88125000D01*
X109017925Y-88125000D01*
X108809851Y-88166389D01*
X108613849Y-88247575D01*
X108437453Y-88365440D01*
X108287440Y-88515453D01*
X108169575Y-88691849D01*
X108088389Y-88887851D01*
X108047000Y-89095925D01*
X78736000Y-89095925D01*
X78736000Y-86769339D01*
X78747436Y-86761698D01*
X78848698Y-86660436D01*
X78912200Y-86565397D01*
X88297000Y-86565397D01*
X88297000Y-86708603D01*
X88324938Y-86849058D01*
X88379741Y-86981364D01*
X88459302Y-87100436D01*
X88560564Y-87201698D01*
X88679636Y-87281259D01*
X88811942Y-87336062D01*
X88952397Y-87364000D01*
X89095603Y-87364000D01*
X89236058Y-87336062D01*
X89368364Y-87281259D01*
X89487436Y-87201698D01*
X89588698Y-87100436D01*
X89668259Y-86981364D01*
X89723062Y-86849058D01*
X89751000Y-86708603D01*
X89751000Y-86565397D01*
X89748317Y-86551907D01*
X91102113Y-85198112D01*
X98312549Y-85198112D01*
X98320190Y-85209548D01*
X98421452Y-85310810D01*
X98540524Y-85390371D01*
X98672830Y-85445174D01*
X98813285Y-85473112D01*
X98956491Y-85473112D01*
X99096946Y-85445174D01*
X99229252Y-85390371D01*
X99348324Y-85310810D01*
X99449586Y-85209548D01*
X99529147Y-85090476D01*
X99583950Y-84958170D01*
X99611888Y-84817715D01*
X99611888Y-84815397D01*
X111097000Y-84815397D01*
X111097000Y-84958603D01*
X111124938Y-85099058D01*
X111179741Y-85231364D01*
X111259302Y-85350436D01*
X111360564Y-85451698D01*
X111479636Y-85531259D01*
X111611942Y-85586062D01*
X111752397Y-85614000D01*
X111895603Y-85614000D01*
X112036058Y-85586062D01*
X112168364Y-85531259D01*
X112287436Y-85451698D01*
X112388698Y-85350436D01*
X112468259Y-85231364D01*
X112523062Y-85099058D01*
X112551000Y-84958603D01*
X112551000Y-84815397D01*
X112523062Y-84674942D01*
X112468259Y-84542636D01*
X112401000Y-84441975D01*
X112401000Y-81106001D01*
X112847321Y-80659680D01*
X112966058Y-80636062D01*
X113098364Y-80581259D01*
X113217436Y-80501698D01*
X113318698Y-80400436D01*
X113398259Y-80281364D01*
X113453062Y-80149058D01*
X113481000Y-80008603D01*
X113481000Y-79865397D01*
X113453062Y-79724942D01*
X113398259Y-79592636D01*
X113318698Y-79473564D01*
X113217436Y-79372302D01*
X113098364Y-79292741D01*
X112966058Y-79237938D01*
X112825603Y-79210000D01*
X112682397Y-79210000D01*
X112541942Y-79237938D01*
X112409636Y-79292741D01*
X112290564Y-79372302D01*
X112189302Y-79473564D01*
X112109741Y-79592636D01*
X112054938Y-79724942D01*
X112031320Y-79843679D01*
X111436034Y-80438965D01*
X111414027Y-80457026D01*
X111395966Y-80479033D01*
X111395963Y-80479036D01*
X111377365Y-80501698D01*
X111341922Y-80544885D01*
X111301340Y-80620810D01*
X111288344Y-80645124D01*
X111255349Y-80753889D01*
X111244210Y-80867000D01*
X111247001Y-80895341D01*
X111247000Y-84441975D01*
X111179741Y-84542636D01*
X111124938Y-84674942D01*
X111097000Y-84815397D01*
X99611888Y-84815397D01*
X99611888Y-84674509D01*
X99583950Y-84534054D01*
X99529147Y-84401748D01*
X99449586Y-84282676D01*
X99348324Y-84181414D01*
X99229252Y-84101853D01*
X99096946Y-84047050D01*
X98956491Y-84019112D01*
X98813285Y-84019112D01*
X98672830Y-84047050D01*
X98540524Y-84101853D01*
X98421452Y-84181414D01*
X98320190Y-84282676D01*
X98312549Y-84294112D01*
X90937090Y-84294112D01*
X90914887Y-84291925D01*
X90892684Y-84294112D01*
X90892683Y-84294112D01*
X90826281Y-84300652D01*
X90741078Y-84326498D01*
X90662555Y-84368469D01*
X90593729Y-84424953D01*
X90579574Y-84442202D01*
X89109093Y-85912683D01*
X89095603Y-85910000D01*
X88952397Y-85910000D01*
X88811942Y-85937938D01*
X88679636Y-85992741D01*
X88560564Y-86072302D01*
X88459302Y-86173564D01*
X88379741Y-86292636D01*
X88324938Y-86424942D01*
X88297000Y-86565397D01*
X78912200Y-86565397D01*
X78928259Y-86541364D01*
X78983062Y-86409058D01*
X79011000Y-86268603D01*
X79011000Y-86125397D01*
X78983062Y-85984942D01*
X78928259Y-85852636D01*
X78848698Y-85733564D01*
X78747436Y-85632302D01*
X78628364Y-85552741D01*
X78496058Y-85497938D01*
X78355603Y-85470000D01*
X78212397Y-85470000D01*
X78071942Y-85497938D01*
X77939636Y-85552741D01*
X77820564Y-85632302D01*
X77719302Y-85733564D01*
X77639741Y-85852636D01*
X77584938Y-85984942D01*
X77557000Y-86125397D01*
X74010199Y-86125397D01*
X73998915Y-77235397D01*
X96217000Y-77235397D01*
X96217000Y-77378603D01*
X96244938Y-77519058D01*
X96299741Y-77651364D01*
X96379302Y-77770436D01*
X96480564Y-77871698D01*
X96599636Y-77951259D01*
X96731942Y-78006062D01*
X96791810Y-78017970D01*
X96680564Y-78092302D01*
X96579302Y-78193564D01*
X96499741Y-78312636D01*
X96444938Y-78444942D01*
X96417000Y-78585397D01*
X96417000Y-78728603D01*
X96444938Y-78869058D01*
X96499741Y-79001364D01*
X96579302Y-79120436D01*
X96680564Y-79221698D01*
X96799636Y-79301259D01*
X96931942Y-79356062D01*
X97072397Y-79384000D01*
X97215603Y-79384000D01*
X97356058Y-79356062D01*
X97488364Y-79301259D01*
X97607436Y-79221698D01*
X97708698Y-79120436D01*
X97788259Y-79001364D01*
X97843062Y-78869058D01*
X97871000Y-78728603D01*
X97871000Y-78585397D01*
X97868317Y-78571907D01*
X99404853Y-77035371D01*
X99377000Y-77175397D01*
X99377000Y-77318603D01*
X99404938Y-77459058D01*
X99459741Y-77591364D01*
X99539302Y-77710436D01*
X99640564Y-77811698D01*
X99652001Y-77819340D01*
X99652000Y-79874661D01*
X99640564Y-79882302D01*
X99539302Y-79983564D01*
X99459741Y-80102636D01*
X99404938Y-80234942D01*
X99377000Y-80375397D01*
X99377000Y-80518603D01*
X99404938Y-80659058D01*
X99459741Y-80791364D01*
X99539302Y-80910436D01*
X99640564Y-81011698D01*
X99759636Y-81091259D01*
X99891942Y-81146062D01*
X100032397Y-81174000D01*
X100175603Y-81174000D01*
X100316058Y-81146062D01*
X100448364Y-81091259D01*
X100567436Y-81011698D01*
X100668698Y-80910436D01*
X100748259Y-80791364D01*
X100803062Y-80659058D01*
X100831000Y-80518603D01*
X100831000Y-80375397D01*
X100803062Y-80234942D01*
X100748259Y-80102636D01*
X100668698Y-79983564D01*
X100567436Y-79882302D01*
X100556000Y-79874661D01*
X100556000Y-77819339D01*
X100567436Y-77811698D01*
X100668698Y-77710436D01*
X100748259Y-77591364D01*
X100803062Y-77459058D01*
X100831000Y-77318603D01*
X100831000Y-77175397D01*
X100803062Y-77034942D01*
X100748259Y-76902636D01*
X100668698Y-76783564D01*
X100567436Y-76682302D01*
X100448364Y-76602741D01*
X100316058Y-76547938D01*
X100175603Y-76520000D01*
X100032397Y-76520000D01*
X99892372Y-76547853D01*
X101597911Y-74842314D01*
X101615159Y-74828159D01*
X101671643Y-74759333D01*
X101713614Y-74680810D01*
X101739460Y-74595607D01*
X101748187Y-74507001D01*
X101746000Y-74484796D01*
X101746000Y-73529339D01*
X101757436Y-73521698D01*
X101858698Y-73420436D01*
X101938259Y-73301364D01*
X101993062Y-73169058D01*
X102021000Y-73028603D01*
X102021000Y-72885397D01*
X101993062Y-72744942D01*
X101938259Y-72612636D01*
X101858698Y-72493564D01*
X101757436Y-72392302D01*
X101638364Y-72312741D01*
X101591574Y-72293360D01*
X101643062Y-72169058D01*
X101666709Y-72050172D01*
X102992000Y-72050172D01*
X102992000Y-72163832D01*
X103014174Y-72275307D01*
X103057669Y-72380314D01*
X103120815Y-72474818D01*
X103201184Y-72555187D01*
X103292000Y-72615869D01*
X103292001Y-77073135D01*
X103201184Y-77133817D01*
X103120815Y-77214186D01*
X103057669Y-77308690D01*
X103014174Y-77413697D01*
X102992000Y-77525172D01*
X102992000Y-77638832D01*
X103014174Y-77750307D01*
X103057669Y-77855314D01*
X103120815Y-77949818D01*
X103201184Y-78030187D01*
X103295688Y-78093333D01*
X103400695Y-78136828D01*
X103512170Y-78159002D01*
X103625830Y-78159002D01*
X103737305Y-78136828D01*
X103842312Y-78093333D01*
X103936816Y-78030187D01*
X103944000Y-78023003D01*
X103951184Y-78030187D01*
X104045688Y-78093333D01*
X104150695Y-78136828D01*
X104262170Y-78159002D01*
X104375830Y-78159002D01*
X104487305Y-78136828D01*
X104592312Y-78093333D01*
X104686816Y-78030187D01*
X104767185Y-77949818D01*
X104830331Y-77855314D01*
X104873826Y-77750307D01*
X104896000Y-77638832D01*
X104896000Y-77525172D01*
X104873826Y-77413697D01*
X104830331Y-77308690D01*
X104767185Y-77214186D01*
X104686816Y-77133817D01*
X104596000Y-77073135D01*
X104596000Y-72615869D01*
X104686816Y-72555187D01*
X104767185Y-72474818D01*
X104830331Y-72380314D01*
X104873826Y-72275307D01*
X104896000Y-72163832D01*
X104896000Y-72050172D01*
X104873826Y-71938697D01*
X104830331Y-71833690D01*
X104767185Y-71739186D01*
X104686816Y-71658817D01*
X104592312Y-71595671D01*
X104487305Y-71552176D01*
X104375830Y-71530002D01*
X104262170Y-71530002D01*
X104150695Y-71552176D01*
X104045688Y-71595671D01*
X103951184Y-71658817D01*
X103944000Y-71666001D01*
X103936816Y-71658817D01*
X103842312Y-71595671D01*
X103737305Y-71552176D01*
X103625830Y-71530002D01*
X103512170Y-71530002D01*
X103400695Y-71552176D01*
X103295688Y-71595671D01*
X103201184Y-71658817D01*
X103120815Y-71739186D01*
X103057669Y-71833690D01*
X103014174Y-71938697D01*
X102992000Y-72050172D01*
X101666709Y-72050172D01*
X101671000Y-72028603D01*
X101671000Y-71885397D01*
X101643062Y-71744942D01*
X101588259Y-71612636D01*
X101508698Y-71493564D01*
X101407436Y-71392302D01*
X101288364Y-71312741D01*
X101156058Y-71257938D01*
X101015603Y-71230000D01*
X100872397Y-71230000D01*
X100731942Y-71257938D01*
X100599636Y-71312741D01*
X100480564Y-71392302D01*
X100379302Y-71493564D01*
X100299741Y-71612636D01*
X100244938Y-71744942D01*
X100217000Y-71885397D01*
X100217000Y-72028603D01*
X100219683Y-72042093D01*
X100140096Y-72121681D01*
X100122842Y-72135841D01*
X100077814Y-72190708D01*
X100066358Y-72204667D01*
X100024386Y-72283191D01*
X99998540Y-72368393D01*
X99989813Y-72457000D01*
X99992001Y-72479215D01*
X99992000Y-73619775D01*
X97029093Y-76582683D01*
X97015603Y-76580000D01*
X96872397Y-76580000D01*
X96731942Y-76607938D01*
X96599636Y-76662741D01*
X96480564Y-76742302D01*
X96379302Y-76843564D01*
X96299741Y-76962636D01*
X96244938Y-77094942D01*
X96217000Y-77235397D01*
X73998915Y-77235397D01*
X73985668Y-66799017D01*
X75799000Y-66799017D01*
X75799000Y-67414983D01*
X75919169Y-68019112D01*
X76154889Y-68588190D01*
X76497101Y-69100346D01*
X76932654Y-69535899D01*
X77444810Y-69878111D01*
X78013888Y-70113831D01*
X78618017Y-70234000D01*
X79233983Y-70234000D01*
X79838112Y-70113831D01*
X80407190Y-69878111D01*
X80919346Y-69535899D01*
X81169848Y-69285397D01*
X105217000Y-69285397D01*
X105217000Y-69428603D01*
X105244938Y-69569058D01*
X105299741Y-69701364D01*
X105379302Y-69820436D01*
X105480564Y-69921698D01*
X105599636Y-70001259D01*
X105731942Y-70056062D01*
X105872397Y-70084000D01*
X106015603Y-70084000D01*
X106029093Y-70081317D01*
X107598681Y-71650905D01*
X107612841Y-71668159D01*
X107681667Y-71724643D01*
X107760190Y-71766614D01*
X107845392Y-71792460D01*
X107934000Y-71801187D01*
X107956205Y-71799000D01*
X109931661Y-71799000D01*
X109939302Y-71810436D01*
X110040564Y-71911698D01*
X110159636Y-71991259D01*
X110291942Y-72046062D01*
X110432397Y-72074000D01*
X110575603Y-72074000D01*
X110716058Y-72046062D01*
X110848364Y-71991259D01*
X110967436Y-71911698D01*
X111068698Y-71810436D01*
X111148259Y-71691364D01*
X111203062Y-71559058D01*
X111231000Y-71418603D01*
X111231000Y-71275397D01*
X111203062Y-71134942D01*
X111148259Y-71002636D01*
X111068698Y-70883564D01*
X110967436Y-70782302D01*
X110848364Y-70702741D01*
X110716058Y-70647938D01*
X110575603Y-70620000D01*
X110432397Y-70620000D01*
X110291942Y-70647938D01*
X110159636Y-70702741D01*
X110040564Y-70782302D01*
X109939302Y-70883564D01*
X109931661Y-70895000D01*
X108121224Y-70895000D01*
X106668317Y-69442093D01*
X106671000Y-69428603D01*
X106671000Y-69285397D01*
X106643062Y-69144942D01*
X106588259Y-69012636D01*
X106508698Y-68893564D01*
X106407436Y-68792302D01*
X106288364Y-68712741D01*
X106156058Y-68657938D01*
X106015603Y-68630000D01*
X105872397Y-68630000D01*
X105731942Y-68657938D01*
X105599636Y-68712741D01*
X105480564Y-68792302D01*
X105379302Y-68893564D01*
X105299741Y-69012636D01*
X105244938Y-69144942D01*
X105217000Y-69285397D01*
X81169848Y-69285397D01*
X81354899Y-69100346D01*
X81697111Y-68588190D01*
X81932831Y-68019112D01*
X81977011Y-67797000D01*
X90281306Y-67797000D01*
X90304031Y-68027732D01*
X90371333Y-68249597D01*
X90480626Y-68454070D01*
X90627709Y-68633291D01*
X90806930Y-68780374D01*
X91011403Y-68889667D01*
X91233268Y-68956969D01*
X91406188Y-68974000D01*
X91521812Y-68974000D01*
X91694732Y-68956969D01*
X91916597Y-68889667D01*
X92121070Y-68780374D01*
X92300291Y-68633291D01*
X92447374Y-68454070D01*
X92556667Y-68249597D01*
X92623969Y-68027732D01*
X92646694Y-67797000D01*
X92821306Y-67797000D01*
X92844031Y-68027732D01*
X92911333Y-68249597D01*
X93020626Y-68454070D01*
X93167709Y-68633291D01*
X93346930Y-68780374D01*
X93551403Y-68889667D01*
X93773268Y-68956969D01*
X93946188Y-68974000D01*
X94061812Y-68974000D01*
X94234732Y-68956969D01*
X94456597Y-68889667D01*
X94661070Y-68780374D01*
X94840291Y-68633291D01*
X94987374Y-68454070D01*
X95096667Y-68249597D01*
X95163969Y-68027732D01*
X95186694Y-67797000D01*
X95361306Y-67797000D01*
X95384031Y-68027732D01*
X95451333Y-68249597D01*
X95560626Y-68454070D01*
X95707709Y-68633291D01*
X95886930Y-68780374D01*
X96091403Y-68889667D01*
X96313268Y-68956969D01*
X96486188Y-68974000D01*
X96601812Y-68974000D01*
X96774732Y-68956969D01*
X96996597Y-68889667D01*
X97201070Y-68780374D01*
X97380291Y-68633291D01*
X97527374Y-68454070D01*
X97636667Y-68249597D01*
X97703969Y-68027732D01*
X97726694Y-67797000D01*
X97710936Y-67637000D01*
X108501306Y-67637000D01*
X108524031Y-67867732D01*
X108591333Y-68089597D01*
X108700626Y-68294070D01*
X108847709Y-68473291D01*
X109026930Y-68620374D01*
X109231403Y-68729667D01*
X109453268Y-68796969D01*
X109626188Y-68814000D01*
X109741812Y-68814000D01*
X109914732Y-68796969D01*
X110136597Y-68729667D01*
X110341070Y-68620374D01*
X110520291Y-68473291D01*
X110667374Y-68294070D01*
X110776667Y-68089597D01*
X110843969Y-67867732D01*
X110866694Y-67637000D01*
X111041306Y-67637000D01*
X111064031Y-67867732D01*
X111131333Y-68089597D01*
X111240626Y-68294070D01*
X111387709Y-68473291D01*
X111566930Y-68620374D01*
X111771403Y-68729667D01*
X111993268Y-68796969D01*
X112166188Y-68814000D01*
X112281812Y-68814000D01*
X112454732Y-68796969D01*
X112676597Y-68729667D01*
X112881070Y-68620374D01*
X113060291Y-68473291D01*
X113207374Y-68294070D01*
X113316667Y-68089597D01*
X113383969Y-67867732D01*
X113406694Y-67637000D01*
X113383969Y-67406268D01*
X113316667Y-67184403D01*
X113207374Y-66979930D01*
X113060291Y-66800709D01*
X112881070Y-66653626D01*
X112676597Y-66544333D01*
X112454732Y-66477031D01*
X112281812Y-66460000D01*
X112166188Y-66460000D01*
X111993268Y-66477031D01*
X111771403Y-66544333D01*
X111566930Y-66653626D01*
X111387709Y-66800709D01*
X111240626Y-66979930D01*
X111131333Y-67184403D01*
X111064031Y-67406268D01*
X111041306Y-67637000D01*
X110866694Y-67637000D01*
X110843969Y-67406268D01*
X110776667Y-67184403D01*
X110667374Y-66979930D01*
X110520291Y-66800709D01*
X110341070Y-66653626D01*
X110136597Y-66544333D01*
X109914732Y-66477031D01*
X109741812Y-66460000D01*
X109626188Y-66460000D01*
X109453268Y-66477031D01*
X109231403Y-66544333D01*
X109026930Y-66653626D01*
X108847709Y-66800709D01*
X108700626Y-66979930D01*
X108591333Y-67184403D01*
X108524031Y-67406268D01*
X108501306Y-67637000D01*
X97710936Y-67637000D01*
X97703969Y-67566268D01*
X97636667Y-67344403D01*
X97527374Y-67139930D01*
X97380291Y-66960709D01*
X97201070Y-66813626D01*
X96996597Y-66704333D01*
X96774732Y-66637031D01*
X96601812Y-66620000D01*
X96486188Y-66620000D01*
X96313268Y-66637031D01*
X96091403Y-66704333D01*
X95886930Y-66813626D01*
X95707709Y-66960709D01*
X95560626Y-67139930D01*
X95451333Y-67344403D01*
X95384031Y-67566268D01*
X95361306Y-67797000D01*
X95186694Y-67797000D01*
X95163969Y-67566268D01*
X95096667Y-67344403D01*
X94987374Y-67139930D01*
X94840291Y-66960709D01*
X94661070Y-66813626D01*
X94456597Y-66704333D01*
X94234732Y-66637031D01*
X94061812Y-66620000D01*
X93946188Y-66620000D01*
X93773268Y-66637031D01*
X93551403Y-66704333D01*
X93346930Y-66813626D01*
X93167709Y-66960709D01*
X93020626Y-67139930D01*
X92911333Y-67344403D01*
X92844031Y-67566268D01*
X92821306Y-67797000D01*
X92646694Y-67797000D01*
X92623969Y-67566268D01*
X92556667Y-67344403D01*
X92447374Y-67139930D01*
X92300291Y-66960709D01*
X92121070Y-66813626D01*
X91916597Y-66704333D01*
X91694732Y-66637031D01*
X91521812Y-66620000D01*
X91406188Y-66620000D01*
X91233268Y-66637031D01*
X91011403Y-66704333D01*
X90806930Y-66813626D01*
X90627709Y-66960709D01*
X90480626Y-67139930D01*
X90371333Y-67344403D01*
X90304031Y-67566268D01*
X90281306Y-67797000D01*
X81977011Y-67797000D01*
X82053000Y-67414983D01*
X82053000Y-66799017D01*
X81932831Y-66194888D01*
X81697111Y-65625810D01*
X81450680Y-65257000D01*
X90281306Y-65257000D01*
X90304031Y-65487732D01*
X90371333Y-65709597D01*
X90480626Y-65914070D01*
X90627709Y-66093291D01*
X90806930Y-66240374D01*
X91011403Y-66349667D01*
X91233268Y-66416969D01*
X91406188Y-66434000D01*
X91521812Y-66434000D01*
X91694732Y-66416969D01*
X91916597Y-66349667D01*
X92121070Y-66240374D01*
X92300291Y-66093291D01*
X92447374Y-65914070D01*
X92556667Y-65709597D01*
X92567479Y-65673953D01*
X92796977Y-65673953D01*
X92901513Y-65901420D01*
X93048417Y-66104122D01*
X93232044Y-66274270D01*
X93445336Y-66405325D01*
X93587048Y-66464013D01*
X93781000Y-66405806D01*
X93781000Y-65480000D01*
X94227000Y-65480000D01*
X94227000Y-66405806D01*
X94420952Y-66464013D01*
X94562664Y-66405325D01*
X94775956Y-66274270D01*
X94959583Y-66104122D01*
X95106487Y-65901420D01*
X95211023Y-65673953D01*
X95154638Y-65480000D01*
X94227000Y-65480000D01*
X93781000Y-65480000D01*
X92853362Y-65480000D01*
X92796977Y-65673953D01*
X92567479Y-65673953D01*
X92623969Y-65487732D01*
X92646694Y-65257000D01*
X92623969Y-65026268D01*
X92567480Y-64840047D01*
X92796977Y-64840047D01*
X92853362Y-65034000D01*
X93781000Y-65034000D01*
X93781000Y-64108194D01*
X94227000Y-64108194D01*
X94227000Y-65034000D01*
X95154638Y-65034000D01*
X95211023Y-64840047D01*
X95106487Y-64612580D01*
X94959583Y-64409878D01*
X94956478Y-64407000D01*
X95365418Y-64407000D01*
X95365418Y-66107000D01*
X95371732Y-66171103D01*
X95390430Y-66232743D01*
X95420794Y-66289550D01*
X95461657Y-66339343D01*
X95511450Y-66380206D01*
X95568257Y-66410570D01*
X95629897Y-66429268D01*
X95694000Y-66435582D01*
X97394000Y-66435582D01*
X97458103Y-66429268D01*
X97519743Y-66410570D01*
X97576550Y-66380206D01*
X97626343Y-66339343D01*
X97667206Y-66289550D01*
X97697570Y-66232743D01*
X97716268Y-66171103D01*
X97722582Y-66107000D01*
X97722582Y-65521258D01*
X99392134Y-65521258D01*
X99412245Y-65696929D01*
X99466241Y-65865301D01*
X99552047Y-66019904D01*
X99666366Y-66154797D01*
X99804805Y-66264795D01*
X99941062Y-66309848D01*
X100071000Y-66244263D01*
X100071000Y-65380000D01*
X100517000Y-65380000D01*
X100517000Y-66244263D01*
X100646938Y-66309848D01*
X100783195Y-66264795D01*
X100921634Y-66154797D01*
X101035953Y-66019904D01*
X101121759Y-65865301D01*
X101175755Y-65696929D01*
X101195866Y-65521258D01*
X105992134Y-65521258D01*
X106012245Y-65696929D01*
X106066241Y-65865301D01*
X106152047Y-66019904D01*
X106266366Y-66154797D01*
X106404805Y-66264795D01*
X106541062Y-66309848D01*
X106671000Y-66244263D01*
X106671000Y-65380000D01*
X107117000Y-65380000D01*
X107117000Y-66244263D01*
X107246938Y-66309848D01*
X107383195Y-66264795D01*
X107521634Y-66154797D01*
X107635953Y-66019904D01*
X107721759Y-65865301D01*
X107775755Y-65696929D01*
X107795866Y-65521258D01*
X107680243Y-65380000D01*
X107117000Y-65380000D01*
X106671000Y-65380000D01*
X106107757Y-65380000D01*
X105992134Y-65521258D01*
X101195866Y-65521258D01*
X101080243Y-65380000D01*
X100517000Y-65380000D01*
X100071000Y-65380000D01*
X99507757Y-65380000D01*
X99392134Y-65521258D01*
X97722582Y-65521258D01*
X97722582Y-65097000D01*
X108501306Y-65097000D01*
X108524031Y-65327732D01*
X108591333Y-65549597D01*
X108700626Y-65754070D01*
X108847709Y-65933291D01*
X109026930Y-66080374D01*
X109231403Y-66189667D01*
X109453268Y-66256969D01*
X109626188Y-66274000D01*
X109741812Y-66274000D01*
X109914732Y-66256969D01*
X110136597Y-66189667D01*
X110341070Y-66080374D01*
X110520291Y-65933291D01*
X110667374Y-65754070D01*
X110776667Y-65549597D01*
X110843969Y-65327732D01*
X110866694Y-65097000D01*
X111041306Y-65097000D01*
X111064031Y-65327732D01*
X111131333Y-65549597D01*
X111240626Y-65754070D01*
X111387709Y-65933291D01*
X111566930Y-66080374D01*
X111771403Y-66189667D01*
X111993268Y-66256969D01*
X112166188Y-66274000D01*
X112281812Y-66274000D01*
X112454732Y-66256969D01*
X112676597Y-66189667D01*
X112881070Y-66080374D01*
X113060291Y-65933291D01*
X113207374Y-65754070D01*
X113316667Y-65549597D01*
X113383969Y-65327732D01*
X113406694Y-65097000D01*
X113383969Y-64866268D01*
X113316667Y-64644403D01*
X113207374Y-64439930D01*
X113060291Y-64260709D01*
X113043587Y-64247000D01*
X113585418Y-64247000D01*
X113585418Y-65947000D01*
X113591732Y-66011103D01*
X113610430Y-66072743D01*
X113640794Y-66129550D01*
X113681657Y-66179343D01*
X113731450Y-66220206D01*
X113788257Y-66250570D01*
X113849897Y-66269268D01*
X113914000Y-66275582D01*
X115614000Y-66275582D01*
X115678103Y-66269268D01*
X115739743Y-66250570D01*
X115796550Y-66220206D01*
X115846343Y-66179343D01*
X115887206Y-66129550D01*
X115917570Y-66072743D01*
X115936268Y-66011103D01*
X115942582Y-65947000D01*
X115942582Y-64247000D01*
X115936268Y-64182897D01*
X115917570Y-64121257D01*
X115887206Y-64064450D01*
X115846343Y-64014657D01*
X115796550Y-63973794D01*
X115739743Y-63943430D01*
X115678103Y-63924732D01*
X115614000Y-63918418D01*
X113914000Y-63918418D01*
X113849897Y-63924732D01*
X113788257Y-63943430D01*
X113731450Y-63973794D01*
X113681657Y-64014657D01*
X113640794Y-64064450D01*
X113610430Y-64121257D01*
X113591732Y-64182897D01*
X113585418Y-64247000D01*
X113043587Y-64247000D01*
X112881070Y-64113626D01*
X112676597Y-64004333D01*
X112454732Y-63937031D01*
X112281812Y-63920000D01*
X112166188Y-63920000D01*
X111993268Y-63937031D01*
X111771403Y-64004333D01*
X111566930Y-64113626D01*
X111387709Y-64260709D01*
X111240626Y-64439930D01*
X111131333Y-64644403D01*
X111064031Y-64866268D01*
X111041306Y-65097000D01*
X110866694Y-65097000D01*
X110843969Y-64866268D01*
X110776667Y-64644403D01*
X110667374Y-64439930D01*
X110520291Y-64260709D01*
X110341070Y-64113626D01*
X110136597Y-64004333D01*
X109914732Y-63937031D01*
X109741812Y-63920000D01*
X109626188Y-63920000D01*
X109453268Y-63937031D01*
X109231403Y-64004333D01*
X109026930Y-64113626D01*
X108847709Y-64260709D01*
X108700626Y-64439930D01*
X108591333Y-64644403D01*
X108524031Y-64866268D01*
X108501306Y-65097000D01*
X97722582Y-65097000D01*
X97722582Y-64792742D01*
X99392134Y-64792742D01*
X99507757Y-64934000D01*
X100071000Y-64934000D01*
X100071000Y-64069737D01*
X100517000Y-64069737D01*
X100517000Y-64934000D01*
X101080243Y-64934000D01*
X101195866Y-64792742D01*
X105992134Y-64792742D01*
X106107757Y-64934000D01*
X106671000Y-64934000D01*
X106671000Y-64069737D01*
X107117000Y-64069737D01*
X107117000Y-64934000D01*
X107680243Y-64934000D01*
X107795866Y-64792742D01*
X107775755Y-64617071D01*
X107721759Y-64448699D01*
X107635953Y-64294096D01*
X107521634Y-64159203D01*
X107383195Y-64049205D01*
X107246938Y-64004152D01*
X107117000Y-64069737D01*
X106671000Y-64069737D01*
X106541062Y-64004152D01*
X106404805Y-64049205D01*
X106266366Y-64159203D01*
X106152047Y-64294096D01*
X106066241Y-64448699D01*
X106012245Y-64617071D01*
X105992134Y-64792742D01*
X101195866Y-64792742D01*
X101175755Y-64617071D01*
X101121759Y-64448699D01*
X101035953Y-64294096D01*
X100921634Y-64159203D01*
X100783195Y-64049205D01*
X100646938Y-64004152D01*
X100517000Y-64069737D01*
X100071000Y-64069737D01*
X99941062Y-64004152D01*
X99804805Y-64049205D01*
X99666366Y-64159203D01*
X99552047Y-64294096D01*
X99466241Y-64448699D01*
X99412245Y-64617071D01*
X99392134Y-64792742D01*
X97722582Y-64792742D01*
X97722582Y-64407000D01*
X97716268Y-64342897D01*
X97697570Y-64281257D01*
X97667206Y-64224450D01*
X97626343Y-64174657D01*
X97576550Y-64133794D01*
X97519743Y-64103430D01*
X97458103Y-64084732D01*
X97394000Y-64078418D01*
X95694000Y-64078418D01*
X95629897Y-64084732D01*
X95568257Y-64103430D01*
X95511450Y-64133794D01*
X95461657Y-64174657D01*
X95420794Y-64224450D01*
X95390430Y-64281257D01*
X95371732Y-64342897D01*
X95365418Y-64407000D01*
X94956478Y-64407000D01*
X94775956Y-64239730D01*
X94562664Y-64108675D01*
X94420952Y-64049987D01*
X94227000Y-64108194D01*
X93781000Y-64108194D01*
X93587048Y-64049987D01*
X93445336Y-64108675D01*
X93232044Y-64239730D01*
X93048417Y-64409878D01*
X92901513Y-64612580D01*
X92796977Y-64840047D01*
X92567480Y-64840047D01*
X92556667Y-64804403D01*
X92447374Y-64599930D01*
X92300291Y-64420709D01*
X92121070Y-64273626D01*
X91916597Y-64164333D01*
X91694732Y-64097031D01*
X91521812Y-64080000D01*
X91406188Y-64080000D01*
X91233268Y-64097031D01*
X91011403Y-64164333D01*
X90806930Y-64273626D01*
X90627709Y-64420709D01*
X90480626Y-64599930D01*
X90371333Y-64804403D01*
X90304031Y-65026268D01*
X90281306Y-65257000D01*
X81450680Y-65257000D01*
X81354899Y-65113654D01*
X80919346Y-64678101D01*
X80407190Y-64335889D01*
X79838112Y-64100169D01*
X79233983Y-63980000D01*
X78618017Y-63980000D01*
X78013888Y-64100169D01*
X77444810Y-64335889D01*
X76932654Y-64678101D01*
X76497101Y-65113654D01*
X76154889Y-65625810D01*
X75919169Y-66194888D01*
X75799000Y-66799017D01*
X73985668Y-66799017D01*
X73981809Y-63759358D01*
X126956215Y-63908642D01*
X126956215Y-63908642D01*
G37*
X126956215Y-63908642D02*
X126945383Y-73775829D01*
X123403553Y-70234000D01*
X123707983Y-70234000D01*
X124312112Y-70113831D01*
X124881190Y-69878111D01*
X125393346Y-69535899D01*
X125828899Y-69100346D01*
X126171111Y-68588190D01*
X126406831Y-68019112D01*
X126527000Y-67414983D01*
X126527000Y-66799017D01*
X126406831Y-66194888D01*
X126171111Y-65625810D01*
X125828899Y-65113654D01*
X125393346Y-64678101D01*
X124881190Y-64335889D01*
X124312112Y-64100169D01*
X123707983Y-63980000D01*
X123092017Y-63980000D01*
X122487888Y-64100169D01*
X121918810Y-64335889D01*
X121406654Y-64678101D01*
X120971101Y-65113654D01*
X120628889Y-65625810D01*
X120393169Y-66194888D01*
X120273000Y-66799017D01*
X120273000Y-67414983D01*
X120393169Y-68019112D01*
X120628889Y-68588190D01*
X120971101Y-69100346D01*
X121406654Y-69535899D01*
X121671704Y-69713000D01*
X118009554Y-69713000D01*
X115945516Y-67648963D01*
X115946694Y-67637000D01*
X115923969Y-67406268D01*
X115856667Y-67184403D01*
X115747374Y-66979930D01*
X115600291Y-66800709D01*
X115421070Y-66653626D01*
X115216597Y-66544333D01*
X114994732Y-66477031D01*
X114821812Y-66460000D01*
X114706188Y-66460000D01*
X114533268Y-66477031D01*
X114311403Y-66544333D01*
X114106930Y-66653626D01*
X113927709Y-66800709D01*
X113780626Y-66979930D01*
X113671333Y-67184403D01*
X113604031Y-67406268D01*
X113581306Y-67637000D01*
X113604031Y-67867732D01*
X113671333Y-68089597D01*
X113780626Y-68294070D01*
X113927709Y-68473291D01*
X114106930Y-68620374D01*
X114311403Y-68729667D01*
X114533268Y-68796969D01*
X114706188Y-68814000D01*
X114771447Y-68814000D01*
X117053497Y-71096051D01*
X117079394Y-71127606D01*
X117110947Y-71153501D01*
X117110948Y-71153502D01*
X117205320Y-71230952D01*
X117255808Y-71257938D01*
X117348990Y-71307745D01*
X117504880Y-71355034D01*
X117626376Y-71367000D01*
X117626386Y-71367000D01*
X117667000Y-71371000D01*
X117707614Y-71367000D01*
X122197447Y-71367000D01*
X125717991Y-74887545D01*
X125717990Y-88883455D01*
X123076447Y-91525000D01*
X117790819Y-91525000D01*
X117742421Y-91476602D01*
X117557835Y-91353266D01*
X117352734Y-91268310D01*
X117135000Y-91225000D01*
X116913000Y-91225000D01*
X116695266Y-91268310D01*
X116490165Y-91353266D01*
X116305579Y-91476602D01*
X116148602Y-91633579D01*
X116025266Y-91818165D01*
X115940310Y-92023266D01*
X115897000Y-92241000D01*
X115897000Y-92463000D01*
X115940310Y-92680734D01*
X116025266Y-92885835D01*
X116148602Y-93070421D01*
X116305579Y-93227398D01*
X116490165Y-93350734D01*
X116695266Y-93435690D01*
X116913000Y-93479000D01*
X117135000Y-93479000D01*
X117352734Y-93435690D01*
X117557835Y-93350734D01*
X117742421Y-93227398D01*
X117790819Y-93179000D01*
X123378386Y-93179000D01*
X123419000Y-93183000D01*
X123459614Y-93179000D01*
X123459624Y-93179000D01*
X123581120Y-93167034D01*
X123737010Y-93119745D01*
X123880679Y-93042952D01*
X124006606Y-92939606D01*
X124032505Y-92908048D01*
X126927559Y-90012996D01*
X126917001Y-99630934D01*
X126870907Y-102605000D01*
X94891356Y-102605000D01*
X95059583Y-102449122D01*
X95206487Y-102246420D01*
X95311023Y-102018953D01*
X95254638Y-101825000D01*
X94327000Y-101825000D01*
X94327000Y-101845000D01*
X93881000Y-101845000D01*
X93881000Y-101825000D01*
X92953362Y-101825000D01*
X92896977Y-102018953D01*
X93001513Y-102246420D01*
X93148417Y-102449122D01*
X93316644Y-102605000D01*
X92351356Y-102605000D01*
X92519583Y-102449122D01*
X92666487Y-102246420D01*
X92771023Y-102018953D01*
X92714638Y-101825000D01*
X91787000Y-101825000D01*
X91787000Y-101845000D01*
X91341000Y-101845000D01*
X91341000Y-101825000D01*
X90413362Y-101825000D01*
X90356977Y-102018953D01*
X90461513Y-102246420D01*
X90608417Y-102449122D01*
X90776644Y-102605000D01*
X89644352Y-102605000D01*
X89681070Y-102585374D01*
X89860291Y-102438291D01*
X90007374Y-102259070D01*
X90116667Y-102054597D01*
X90183969Y-101832732D01*
X90206694Y-101602000D01*
X90183969Y-101371268D01*
X90127480Y-101185047D01*
X90356977Y-101185047D01*
X90413362Y-101379000D01*
X91341000Y-101379000D01*
X91341000Y-100453194D01*
X91787000Y-100453194D01*
X91787000Y-101379000D01*
X92714638Y-101379000D01*
X92771023Y-101185047D01*
X92896977Y-101185047D01*
X92953362Y-101379000D01*
X93881000Y-101379000D01*
X93881000Y-100453194D01*
X94327000Y-100453194D01*
X94327000Y-101379000D01*
X95254638Y-101379000D01*
X95311023Y-101185047D01*
X95206487Y-100957580D01*
X95059583Y-100754878D01*
X94875956Y-100584730D01*
X94662664Y-100453675D01*
X94520952Y-100394987D01*
X94327000Y-100453194D01*
X93881000Y-100453194D01*
X93687048Y-100394987D01*
X93545336Y-100453675D01*
X93332044Y-100584730D01*
X93148417Y-100754878D01*
X93001513Y-100957580D01*
X92896977Y-101185047D01*
X92771023Y-101185047D01*
X92666487Y-100957580D01*
X92519583Y-100754878D01*
X92335956Y-100584730D01*
X92122664Y-100453675D01*
X91980952Y-100394987D01*
X91787000Y-100453194D01*
X91341000Y-100453194D01*
X91147048Y-100394987D01*
X91005336Y-100453675D01*
X90792044Y-100584730D01*
X90608417Y-100754878D01*
X90461513Y-100957580D01*
X90356977Y-101185047D01*
X90127480Y-101185047D01*
X90116667Y-101149403D01*
X90007374Y-100944930D01*
X89860291Y-100765709D01*
X89681070Y-100618626D01*
X89476597Y-100509333D01*
X89254732Y-100442031D01*
X89081812Y-100425000D01*
X88966188Y-100425000D01*
X88793268Y-100442031D01*
X88571403Y-100509333D01*
X88366930Y-100618626D01*
X88187709Y-100765709D01*
X88040626Y-100944930D01*
X87931333Y-101149403D01*
X87864031Y-101371268D01*
X87841306Y-101602000D01*
X87864031Y-101832732D01*
X87931333Y-102054597D01*
X88040626Y-102259070D01*
X88187709Y-102438291D01*
X88366930Y-102585374D01*
X88403648Y-102605000D01*
X87104352Y-102605000D01*
X87141070Y-102585374D01*
X87320291Y-102438291D01*
X87467374Y-102259070D01*
X87576667Y-102054597D01*
X87643969Y-101832732D01*
X87666694Y-101602000D01*
X87643969Y-101371268D01*
X87576667Y-101149403D01*
X87467374Y-100944930D01*
X87320291Y-100765709D01*
X87141070Y-100618626D01*
X86936597Y-100509333D01*
X86714732Y-100442031D01*
X86541812Y-100425000D01*
X86426188Y-100425000D01*
X86253268Y-100442031D01*
X86031403Y-100509333D01*
X85826930Y-100618626D01*
X85647709Y-100765709D01*
X85500626Y-100944930D01*
X85391333Y-101149403D01*
X85324031Y-101371268D01*
X85301306Y-101602000D01*
X85324031Y-101832732D01*
X85391333Y-102054597D01*
X85500626Y-102259070D01*
X85647709Y-102438291D01*
X85826930Y-102585374D01*
X85863648Y-102605000D01*
X84069000Y-102605000D01*
X84044224Y-102607440D01*
X84020399Y-102614667D01*
X83998443Y-102626403D01*
X83979197Y-102642197D01*
X83963403Y-102661443D01*
X83951667Y-102683399D01*
X83944440Y-102707224D01*
X83942000Y-102732274D01*
X83966726Y-114205000D01*
X74966000Y-114205000D01*
X74966000Y-112990436D01*
X78120933Y-112990436D01*
X78272851Y-113215368D01*
X78586016Y-113348246D01*
X78919087Y-113417476D01*
X79259263Y-113420396D01*
X79593473Y-113356895D01*
X79908873Y-113229413D01*
X79935149Y-113215368D01*
X80087067Y-112990436D01*
X79104000Y-112007370D01*
X78120933Y-112990436D01*
X74966000Y-112990436D01*
X74966000Y-111847263D01*
X77375604Y-111847263D01*
X77439105Y-112181473D01*
X77566587Y-112496873D01*
X77580632Y-112523149D01*
X77805564Y-112675067D01*
X78788630Y-111692000D01*
X79419370Y-111692000D01*
X80402436Y-112675067D01*
X80627368Y-112523149D01*
X80760246Y-112209984D01*
X80829476Y-111876913D01*
X80832396Y-111536737D01*
X80768895Y-111202527D01*
X80641413Y-110887127D01*
X80627368Y-110860851D01*
X80402436Y-110708933D01*
X79419370Y-111692000D01*
X78788630Y-111692000D01*
X77805564Y-110708933D01*
X77580632Y-110860851D01*
X77447754Y-111174016D01*
X77378524Y-111507087D01*
X77375604Y-111847263D01*
X74966000Y-111847263D01*
X74966000Y-110393564D01*
X78120933Y-110393564D01*
X79104000Y-111376630D01*
X80087067Y-110393564D01*
X79935149Y-110168632D01*
X79621984Y-110035754D01*
X79288913Y-109966524D01*
X78948737Y-109963604D01*
X78614527Y-110027105D01*
X78299127Y-110154587D01*
X78272851Y-110168632D01*
X78120933Y-110393564D01*
X74966000Y-110393564D01*
X74966000Y-105392000D01*
X77475418Y-105392000D01*
X77475418Y-107992000D01*
X77481732Y-108056103D01*
X77500430Y-108117743D01*
X77530794Y-108174550D01*
X77571657Y-108224343D01*
X77621450Y-108265206D01*
X77678257Y-108295570D01*
X77739897Y-108314268D01*
X77804000Y-108320582D01*
X80404000Y-108320582D01*
X80468103Y-108314268D01*
X80529743Y-108295570D01*
X80586550Y-108265206D01*
X80636343Y-108224343D01*
X80677206Y-108174550D01*
X80707570Y-108117743D01*
X80726268Y-108056103D01*
X80732582Y-107992000D01*
X80732582Y-105392000D01*
X80726268Y-105327897D01*
X80707570Y-105266257D01*
X80677206Y-105209450D01*
X80636343Y-105159657D01*
X80586550Y-105118794D01*
X80529743Y-105088430D01*
X80468103Y-105069732D01*
X80404000Y-105063418D01*
X77804000Y-105063418D01*
X77739897Y-105069732D01*
X77678257Y-105088430D01*
X77621450Y-105118794D01*
X77571657Y-105159657D01*
X77530794Y-105209450D01*
X77500430Y-105266257D01*
X77481732Y-105327897D01*
X77475418Y-105392000D01*
X74966000Y-105392000D01*
X74966000Y-96394223D01*
X75551224Y-95809000D01*
X82501795Y-95809000D01*
X82524000Y-95811187D01*
X82546205Y-95809000D01*
X82612607Y-95802460D01*
X82697810Y-95776614D01*
X82776333Y-95734643D01*
X82845159Y-95678159D01*
X82859323Y-95660900D01*
X83528907Y-94991317D01*
X83542397Y-94994000D01*
X83685603Y-94994000D01*
X83826058Y-94966062D01*
X83958364Y-94911259D01*
X84077436Y-94831698D01*
X84178698Y-94730436D01*
X84258259Y-94611364D01*
X84313062Y-94479058D01*
X84341000Y-94338603D01*
X84341000Y-94195397D01*
X84313062Y-94054942D01*
X84258259Y-93922636D01*
X84178698Y-93803564D01*
X84077436Y-93702302D01*
X83958364Y-93622741D01*
X83826058Y-93567938D01*
X83685603Y-93540000D01*
X83542397Y-93540000D01*
X83401942Y-93567938D01*
X83269636Y-93622741D01*
X83150564Y-93702302D01*
X83049302Y-93803564D01*
X82969741Y-93922636D01*
X82914938Y-94054942D01*
X82887000Y-94195397D01*
X82887000Y-94338603D01*
X82889683Y-94352093D01*
X82336777Y-94905000D01*
X75386205Y-94905000D01*
X75364000Y-94902813D01*
X75275392Y-94911540D01*
X75197914Y-94935043D01*
X75190190Y-94937386D01*
X75111667Y-94979357D01*
X75042841Y-95035841D01*
X75028681Y-95053095D01*
X74210100Y-95871677D01*
X74192841Y-95885841D01*
X74136358Y-95954667D01*
X74094386Y-96033191D01*
X74068540Y-96118393D01*
X74059813Y-96207000D01*
X74062000Y-96229205D01*
X74062001Y-114205000D01*
X74045839Y-114205000D01*
X74018457Y-92631000D01*
X96597000Y-92631000D01*
X96597000Y-92853000D01*
X96640310Y-93070734D01*
X96725266Y-93275835D01*
X96848602Y-93460421D01*
X96997001Y-93608820D01*
X96997000Y-96275181D01*
X96848602Y-96423579D01*
X96725266Y-96608165D01*
X96640310Y-96813266D01*
X96597000Y-97031000D01*
X96597000Y-97253000D01*
X96640310Y-97470734D01*
X96725266Y-97675835D01*
X96848602Y-97860421D01*
X97005579Y-98017398D01*
X97190165Y-98140734D01*
X97395266Y-98225690D01*
X97613000Y-98269000D01*
X97835000Y-98269000D01*
X98052734Y-98225690D01*
X98257835Y-98140734D01*
X98442421Y-98017398D01*
X98599398Y-97860421D01*
X98722734Y-97675835D01*
X98807690Y-97470734D01*
X98851000Y-97253000D01*
X98851000Y-97031000D01*
X98807690Y-96813266D01*
X98722734Y-96608165D01*
X98599398Y-96423579D01*
X98451000Y-96275181D01*
X98451000Y-94925397D01*
X112127000Y-94925397D01*
X112127000Y-95068603D01*
X112154938Y-95209058D01*
X112209741Y-95341364D01*
X112289302Y-95460436D01*
X112390564Y-95561698D01*
X112411623Y-95575769D01*
X112434386Y-95650809D01*
X112458574Y-95696062D01*
X112476358Y-95729333D01*
X112532842Y-95798159D01*
X112550096Y-95812319D01*
X113359290Y-96621514D01*
X113356607Y-96635004D01*
X113356607Y-96778210D01*
X113384545Y-96918665D01*
X113439348Y-97050971D01*
X113518909Y-97170043D01*
X113620171Y-97271305D01*
X113739243Y-97350866D01*
X113871549Y-97405669D01*
X114012004Y-97433607D01*
X114155210Y-97433607D01*
X114295665Y-97405669D01*
X114427971Y-97350866D01*
X114547043Y-97271305D01*
X114648305Y-97170043D01*
X114727866Y-97050971D01*
X114732120Y-97040699D01*
X117627000Y-97040699D01*
X117627000Y-97223301D01*
X117662624Y-97402396D01*
X117732504Y-97571099D01*
X117833952Y-97722928D01*
X117963072Y-97852048D01*
X118114901Y-97953496D01*
X118283604Y-98023376D01*
X118462699Y-98059000D01*
X118645301Y-98059000D01*
X118824396Y-98023376D01*
X118993099Y-97953496D01*
X119036306Y-97924626D01*
X123156743Y-97924626D01*
X123222166Y-98078231D01*
X123414680Y-98140394D01*
X123615622Y-98163806D01*
X123817271Y-98147565D01*
X124011876Y-98092297D01*
X124045834Y-98078231D01*
X124111257Y-97924626D01*
X123634000Y-97447370D01*
X123156743Y-97924626D01*
X119036306Y-97924626D01*
X119144928Y-97852048D01*
X119274048Y-97722928D01*
X119375496Y-97571099D01*
X119445376Y-97402396D01*
X119481000Y-97223301D01*
X119481000Y-97113622D01*
X122602194Y-97113622D01*
X122618435Y-97315271D01*
X122673703Y-97509876D01*
X122687769Y-97543834D01*
X122841374Y-97609257D01*
X123318630Y-97132000D01*
X123949370Y-97132000D01*
X124426626Y-97609257D01*
X124580231Y-97543834D01*
X124642394Y-97351320D01*
X124665806Y-97150378D01*
X124649565Y-96948729D01*
X124594297Y-96754124D01*
X124580231Y-96720166D01*
X124426626Y-96654743D01*
X123949370Y-97132000D01*
X123318630Y-97132000D01*
X122841374Y-96654743D01*
X122687769Y-96720166D01*
X122625606Y-96912680D01*
X122602194Y-97113622D01*
X119481000Y-97113622D01*
X119481000Y-97040699D01*
X119445376Y-96861604D01*
X119375496Y-96692901D01*
X119274048Y-96541072D01*
X119144928Y-96411952D01*
X119036307Y-96339374D01*
X123156743Y-96339374D01*
X123634000Y-96816630D01*
X124111257Y-96339374D01*
X124045834Y-96185769D01*
X123853320Y-96123606D01*
X123652378Y-96100194D01*
X123450729Y-96116435D01*
X123256124Y-96171703D01*
X123222166Y-96185769D01*
X123156743Y-96339374D01*
X119036307Y-96339374D01*
X118993099Y-96310504D01*
X118824396Y-96240624D01*
X118645301Y-96205000D01*
X118462699Y-96205000D01*
X118283604Y-96240624D01*
X118114901Y-96310504D01*
X117963072Y-96411952D01*
X117833952Y-96541072D01*
X117732504Y-96692901D01*
X117662624Y-96861604D01*
X117627000Y-97040699D01*
X114732120Y-97040699D01*
X114782669Y-96918665D01*
X114810607Y-96778210D01*
X114810607Y-96635004D01*
X114782669Y-96494549D01*
X114727866Y-96362243D01*
X114648305Y-96243171D01*
X114547043Y-96141909D01*
X114427971Y-96062348D01*
X114295665Y-96007545D01*
X114155210Y-95979607D01*
X114012004Y-95979607D01*
X113998514Y-95982290D01*
X113441914Y-95425691D01*
X113498259Y-95341364D01*
X113553062Y-95209058D01*
X113581000Y-95068603D01*
X113581000Y-94925397D01*
X113553062Y-94784942D01*
X113498259Y-94652636D01*
X113418698Y-94533564D01*
X113317436Y-94432302D01*
X113198364Y-94352741D01*
X113066058Y-94297938D01*
X112925603Y-94270000D01*
X112782397Y-94270000D01*
X112641942Y-94297938D01*
X112509636Y-94352741D01*
X112390564Y-94432302D01*
X112289302Y-94533564D01*
X112209741Y-94652636D01*
X112154938Y-94784942D01*
X112127000Y-94925397D01*
X98451000Y-94925397D01*
X98451000Y-93615397D01*
X110247000Y-93615397D01*
X110247000Y-93758603D01*
X110274938Y-93899058D01*
X110329741Y-94031364D01*
X110409302Y-94150436D01*
X110510564Y-94251698D01*
X110629636Y-94331259D01*
X110761942Y-94386062D01*
X110902397Y-94414000D01*
X111045603Y-94414000D01*
X111186058Y-94386062D01*
X111318364Y-94331259D01*
X111437436Y-94251698D01*
X111500134Y-94189000D01*
X115396777Y-94189000D01*
X115594290Y-94386514D01*
X115591607Y-94400004D01*
X115591607Y-94543210D01*
X115619545Y-94683665D01*
X115674348Y-94815971D01*
X115753909Y-94935043D01*
X115855171Y-95036305D01*
X115974243Y-95115866D01*
X116106549Y-95170669D01*
X116247004Y-95198607D01*
X116390210Y-95198607D01*
X116530665Y-95170669D01*
X116662971Y-95115866D01*
X116782043Y-95036305D01*
X116883305Y-94935043D01*
X116962866Y-94815971D01*
X117017669Y-94683665D01*
X117045607Y-94543210D01*
X117045607Y-94500699D01*
X120167000Y-94500699D01*
X120167000Y-94683301D01*
X120202624Y-94862396D01*
X120272504Y-95031099D01*
X120373952Y-95182928D01*
X120503072Y-95312048D01*
X120654901Y-95413496D01*
X120823604Y-95483376D01*
X121002699Y-95519000D01*
X121185301Y-95519000D01*
X121364396Y-95483376D01*
X121533099Y-95413496D01*
X121684928Y-95312048D01*
X121814048Y-95182928D01*
X121915496Y-95031099D01*
X121985376Y-94862396D01*
X122021000Y-94683301D01*
X122021000Y-94500699D01*
X121985376Y-94321604D01*
X121915496Y-94152901D01*
X121814048Y-94001072D01*
X121684928Y-93871952D01*
X121533099Y-93770504D01*
X121364396Y-93700624D01*
X121185301Y-93665000D01*
X121002699Y-93665000D01*
X120823604Y-93700624D01*
X120654901Y-93770504D01*
X120503072Y-93871952D01*
X120373952Y-94001072D01*
X120272504Y-94152901D01*
X120202624Y-94321604D01*
X120167000Y-94500699D01*
X117045607Y-94500699D01*
X117045607Y-94400004D01*
X117017669Y-94259549D01*
X116962866Y-94127243D01*
X116883305Y-94008171D01*
X116782043Y-93906909D01*
X116662971Y-93827348D01*
X116530665Y-93772545D01*
X116390210Y-93744607D01*
X116247004Y-93744607D01*
X116233514Y-93747290D01*
X115919323Y-93433100D01*
X115905159Y-93415841D01*
X115836333Y-93359357D01*
X115757810Y-93317386D01*
X115672607Y-93291540D01*
X115606205Y-93285000D01*
X115584000Y-93282813D01*
X115561795Y-93285000D01*
X111579748Y-93285000D01*
X111538698Y-93223564D01*
X111437436Y-93122302D01*
X111318364Y-93042741D01*
X111186058Y-92987938D01*
X111045603Y-92960000D01*
X110902397Y-92960000D01*
X110761942Y-92987938D01*
X110629636Y-93042741D01*
X110510564Y-93122302D01*
X110409302Y-93223564D01*
X110329741Y-93342636D01*
X110274938Y-93474942D01*
X110247000Y-93615397D01*
X98451000Y-93615397D01*
X98451000Y-93608819D01*
X98599398Y-93460421D01*
X98722734Y-93275835D01*
X98807690Y-93070734D01*
X98851000Y-92853000D01*
X98851000Y-92643973D01*
X108537397Y-92643973D01*
X108621710Y-92812734D01*
X108840251Y-92890152D01*
X109069696Y-92923447D01*
X109301229Y-92911340D01*
X109525950Y-92854297D01*
X109626290Y-92812734D01*
X109710603Y-92643973D01*
X109124000Y-92057370D01*
X108537397Y-92643973D01*
X98851000Y-92643973D01*
X98851000Y-92631000D01*
X98807690Y-92413266D01*
X98722734Y-92208165D01*
X98599398Y-92023579D01*
X98442421Y-91866602D01*
X98257835Y-91743266D01*
X98123678Y-91687696D01*
X107942553Y-91687696D01*
X107954660Y-91919229D01*
X108011703Y-92143950D01*
X108053266Y-92244290D01*
X108222027Y-92328603D01*
X108808630Y-91742000D01*
X109439370Y-91742000D01*
X110025973Y-92328603D01*
X110194734Y-92244290D01*
X110272152Y-92025749D01*
X110305447Y-91796304D01*
X110293340Y-91564771D01*
X110236297Y-91340050D01*
X110194734Y-91239710D01*
X110025973Y-91155397D01*
X109439370Y-91742000D01*
X108808630Y-91742000D01*
X108222027Y-91155397D01*
X108053266Y-91239710D01*
X107975848Y-91458251D01*
X107942553Y-91687696D01*
X98123678Y-91687696D01*
X98052734Y-91658310D01*
X97835000Y-91615000D01*
X97613000Y-91615000D01*
X97395266Y-91658310D01*
X97190165Y-91743266D01*
X97005579Y-91866602D01*
X96848602Y-92023579D01*
X96725266Y-92208165D01*
X96640310Y-92413266D01*
X96597000Y-92631000D01*
X74018457Y-92631000D01*
X74010199Y-86125397D01*
X77557000Y-86125397D01*
X77557000Y-86268603D01*
X77584938Y-86409058D01*
X77639741Y-86541364D01*
X77719302Y-86660436D01*
X77820564Y-86761698D01*
X77832000Y-86769339D01*
X77832001Y-90594785D01*
X77829813Y-90617000D01*
X77838540Y-90705607D01*
X77864386Y-90790809D01*
X77864387Y-90790810D01*
X77906358Y-90869333D01*
X77962842Y-90938159D01*
X77980096Y-90952319D01*
X78729683Y-91701907D01*
X78727000Y-91715397D01*
X78727000Y-91858603D01*
X78754938Y-91999058D01*
X78809741Y-92131364D01*
X78889302Y-92250436D01*
X78990564Y-92351698D01*
X79109636Y-92431259D01*
X79241942Y-92486062D01*
X79382397Y-92514000D01*
X79525603Y-92514000D01*
X79666058Y-92486062D01*
X79798364Y-92431259D01*
X79917436Y-92351698D01*
X80018698Y-92250436D01*
X80098259Y-92131364D01*
X80153062Y-91999058D01*
X80181000Y-91858603D01*
X80181000Y-91715397D01*
X80153062Y-91574942D01*
X80098259Y-91442636D01*
X80018698Y-91323564D01*
X79917436Y-91222302D01*
X79798364Y-91142741D01*
X79666058Y-91087938D01*
X79525603Y-91060000D01*
X79382397Y-91060000D01*
X79368907Y-91062683D01*
X79146251Y-90840027D01*
X108537397Y-90840027D01*
X109124000Y-91426630D01*
X109710603Y-90840027D01*
X109626290Y-90671266D01*
X109407749Y-90593848D01*
X109178304Y-90560553D01*
X108946771Y-90572660D01*
X108722050Y-90629703D01*
X108621710Y-90671266D01*
X108537397Y-90840027D01*
X79146251Y-90840027D01*
X78736000Y-90429777D01*
X78736000Y-89095925D01*
X108047000Y-89095925D01*
X108047000Y-89308075D01*
X108088389Y-89516149D01*
X108169575Y-89712151D01*
X108287440Y-89888547D01*
X108437453Y-90038560D01*
X108613849Y-90156425D01*
X108809851Y-90237611D01*
X109017925Y-90279000D01*
X109230075Y-90279000D01*
X109438149Y-90237611D01*
X109634151Y-90156425D01*
X109810547Y-90038560D01*
X109960560Y-89888547D01*
X110078425Y-89712151D01*
X110159611Y-89516149D01*
X110201000Y-89308075D01*
X110201000Y-89095925D01*
X110159611Y-88887851D01*
X110078425Y-88691849D01*
X109960560Y-88515453D01*
X109810547Y-88365440D01*
X109634151Y-88247575D01*
X109438149Y-88166389D01*
X109230075Y-88125000D01*
X109017925Y-88125000D01*
X108809851Y-88166389D01*
X108613849Y-88247575D01*
X108437453Y-88365440D01*
X108287440Y-88515453D01*
X108169575Y-88691849D01*
X108088389Y-88887851D01*
X108047000Y-89095925D01*
X78736000Y-89095925D01*
X78736000Y-86769339D01*
X78747436Y-86761698D01*
X78848698Y-86660436D01*
X78912200Y-86565397D01*
X88297000Y-86565397D01*
X88297000Y-86708603D01*
X88324938Y-86849058D01*
X88379741Y-86981364D01*
X88459302Y-87100436D01*
X88560564Y-87201698D01*
X88679636Y-87281259D01*
X88811942Y-87336062D01*
X88952397Y-87364000D01*
X89095603Y-87364000D01*
X89236058Y-87336062D01*
X89368364Y-87281259D01*
X89487436Y-87201698D01*
X89588698Y-87100436D01*
X89668259Y-86981364D01*
X89723062Y-86849058D01*
X89751000Y-86708603D01*
X89751000Y-86565397D01*
X89748317Y-86551907D01*
X91102113Y-85198112D01*
X98312549Y-85198112D01*
X98320190Y-85209548D01*
X98421452Y-85310810D01*
X98540524Y-85390371D01*
X98672830Y-85445174D01*
X98813285Y-85473112D01*
X98956491Y-85473112D01*
X99096946Y-85445174D01*
X99229252Y-85390371D01*
X99348324Y-85310810D01*
X99449586Y-85209548D01*
X99529147Y-85090476D01*
X99583950Y-84958170D01*
X99611888Y-84817715D01*
X99611888Y-84815397D01*
X111097000Y-84815397D01*
X111097000Y-84958603D01*
X111124938Y-85099058D01*
X111179741Y-85231364D01*
X111259302Y-85350436D01*
X111360564Y-85451698D01*
X111479636Y-85531259D01*
X111611942Y-85586062D01*
X111752397Y-85614000D01*
X111895603Y-85614000D01*
X112036058Y-85586062D01*
X112168364Y-85531259D01*
X112287436Y-85451698D01*
X112388698Y-85350436D01*
X112468259Y-85231364D01*
X112523062Y-85099058D01*
X112551000Y-84958603D01*
X112551000Y-84815397D01*
X112523062Y-84674942D01*
X112468259Y-84542636D01*
X112401000Y-84441975D01*
X112401000Y-81106001D01*
X112847321Y-80659680D01*
X112966058Y-80636062D01*
X113098364Y-80581259D01*
X113217436Y-80501698D01*
X113318698Y-80400436D01*
X113398259Y-80281364D01*
X113453062Y-80149058D01*
X113481000Y-80008603D01*
X113481000Y-79865397D01*
X113453062Y-79724942D01*
X113398259Y-79592636D01*
X113318698Y-79473564D01*
X113217436Y-79372302D01*
X113098364Y-79292741D01*
X112966058Y-79237938D01*
X112825603Y-79210000D01*
X112682397Y-79210000D01*
X112541942Y-79237938D01*
X112409636Y-79292741D01*
X112290564Y-79372302D01*
X112189302Y-79473564D01*
X112109741Y-79592636D01*
X112054938Y-79724942D01*
X112031320Y-79843679D01*
X111436034Y-80438965D01*
X111414027Y-80457026D01*
X111395966Y-80479033D01*
X111395963Y-80479036D01*
X111377365Y-80501698D01*
X111341922Y-80544885D01*
X111301340Y-80620810D01*
X111288344Y-80645124D01*
X111255349Y-80753889D01*
X111244210Y-80867000D01*
X111247001Y-80895341D01*
X111247000Y-84441975D01*
X111179741Y-84542636D01*
X111124938Y-84674942D01*
X111097000Y-84815397D01*
X99611888Y-84815397D01*
X99611888Y-84674509D01*
X99583950Y-84534054D01*
X99529147Y-84401748D01*
X99449586Y-84282676D01*
X99348324Y-84181414D01*
X99229252Y-84101853D01*
X99096946Y-84047050D01*
X98956491Y-84019112D01*
X98813285Y-84019112D01*
X98672830Y-84047050D01*
X98540524Y-84101853D01*
X98421452Y-84181414D01*
X98320190Y-84282676D01*
X98312549Y-84294112D01*
X90937090Y-84294112D01*
X90914887Y-84291925D01*
X90892684Y-84294112D01*
X90892683Y-84294112D01*
X90826281Y-84300652D01*
X90741078Y-84326498D01*
X90662555Y-84368469D01*
X90593729Y-84424953D01*
X90579574Y-84442202D01*
X89109093Y-85912683D01*
X89095603Y-85910000D01*
X88952397Y-85910000D01*
X88811942Y-85937938D01*
X88679636Y-85992741D01*
X88560564Y-86072302D01*
X88459302Y-86173564D01*
X88379741Y-86292636D01*
X88324938Y-86424942D01*
X88297000Y-86565397D01*
X78912200Y-86565397D01*
X78928259Y-86541364D01*
X78983062Y-86409058D01*
X79011000Y-86268603D01*
X79011000Y-86125397D01*
X78983062Y-85984942D01*
X78928259Y-85852636D01*
X78848698Y-85733564D01*
X78747436Y-85632302D01*
X78628364Y-85552741D01*
X78496058Y-85497938D01*
X78355603Y-85470000D01*
X78212397Y-85470000D01*
X78071942Y-85497938D01*
X77939636Y-85552741D01*
X77820564Y-85632302D01*
X77719302Y-85733564D01*
X77639741Y-85852636D01*
X77584938Y-85984942D01*
X77557000Y-86125397D01*
X74010199Y-86125397D01*
X73998915Y-77235397D01*
X96217000Y-77235397D01*
X96217000Y-77378603D01*
X96244938Y-77519058D01*
X96299741Y-77651364D01*
X96379302Y-77770436D01*
X96480564Y-77871698D01*
X96599636Y-77951259D01*
X96731942Y-78006062D01*
X96791810Y-78017970D01*
X96680564Y-78092302D01*
X96579302Y-78193564D01*
X96499741Y-78312636D01*
X96444938Y-78444942D01*
X96417000Y-78585397D01*
X96417000Y-78728603D01*
X96444938Y-78869058D01*
X96499741Y-79001364D01*
X96579302Y-79120436D01*
X96680564Y-79221698D01*
X96799636Y-79301259D01*
X96931942Y-79356062D01*
X97072397Y-79384000D01*
X97215603Y-79384000D01*
X97356058Y-79356062D01*
X97488364Y-79301259D01*
X97607436Y-79221698D01*
X97708698Y-79120436D01*
X97788259Y-79001364D01*
X97843062Y-78869058D01*
X97871000Y-78728603D01*
X97871000Y-78585397D01*
X97868317Y-78571907D01*
X99404853Y-77035371D01*
X99377000Y-77175397D01*
X99377000Y-77318603D01*
X99404938Y-77459058D01*
X99459741Y-77591364D01*
X99539302Y-77710436D01*
X99640564Y-77811698D01*
X99652001Y-77819340D01*
X99652000Y-79874661D01*
X99640564Y-79882302D01*
X99539302Y-79983564D01*
X99459741Y-80102636D01*
X99404938Y-80234942D01*
X99377000Y-80375397D01*
X99377000Y-80518603D01*
X99404938Y-80659058D01*
X99459741Y-80791364D01*
X99539302Y-80910436D01*
X99640564Y-81011698D01*
X99759636Y-81091259D01*
X99891942Y-81146062D01*
X100032397Y-81174000D01*
X100175603Y-81174000D01*
X100316058Y-81146062D01*
X100448364Y-81091259D01*
X100567436Y-81011698D01*
X100668698Y-80910436D01*
X100748259Y-80791364D01*
X100803062Y-80659058D01*
X100831000Y-80518603D01*
X100831000Y-80375397D01*
X100803062Y-80234942D01*
X100748259Y-80102636D01*
X100668698Y-79983564D01*
X100567436Y-79882302D01*
X100556000Y-79874661D01*
X100556000Y-77819339D01*
X100567436Y-77811698D01*
X100668698Y-77710436D01*
X100748259Y-77591364D01*
X100803062Y-77459058D01*
X100831000Y-77318603D01*
X100831000Y-77175397D01*
X100803062Y-77034942D01*
X100748259Y-76902636D01*
X100668698Y-76783564D01*
X100567436Y-76682302D01*
X100448364Y-76602741D01*
X100316058Y-76547938D01*
X100175603Y-76520000D01*
X100032397Y-76520000D01*
X99892372Y-76547853D01*
X101597911Y-74842314D01*
X101615159Y-74828159D01*
X101671643Y-74759333D01*
X101713614Y-74680810D01*
X101739460Y-74595607D01*
X101748187Y-74507001D01*
X101746000Y-74484796D01*
X101746000Y-73529339D01*
X101757436Y-73521698D01*
X101858698Y-73420436D01*
X101938259Y-73301364D01*
X101993062Y-73169058D01*
X102021000Y-73028603D01*
X102021000Y-72885397D01*
X101993062Y-72744942D01*
X101938259Y-72612636D01*
X101858698Y-72493564D01*
X101757436Y-72392302D01*
X101638364Y-72312741D01*
X101591574Y-72293360D01*
X101643062Y-72169058D01*
X101666709Y-72050172D01*
X102992000Y-72050172D01*
X102992000Y-72163832D01*
X103014174Y-72275307D01*
X103057669Y-72380314D01*
X103120815Y-72474818D01*
X103201184Y-72555187D01*
X103292000Y-72615869D01*
X103292001Y-77073135D01*
X103201184Y-77133817D01*
X103120815Y-77214186D01*
X103057669Y-77308690D01*
X103014174Y-77413697D01*
X102992000Y-77525172D01*
X102992000Y-77638832D01*
X103014174Y-77750307D01*
X103057669Y-77855314D01*
X103120815Y-77949818D01*
X103201184Y-78030187D01*
X103295688Y-78093333D01*
X103400695Y-78136828D01*
X103512170Y-78159002D01*
X103625830Y-78159002D01*
X103737305Y-78136828D01*
X103842312Y-78093333D01*
X103936816Y-78030187D01*
X103944000Y-78023003D01*
X103951184Y-78030187D01*
X104045688Y-78093333D01*
X104150695Y-78136828D01*
X104262170Y-78159002D01*
X104375830Y-78159002D01*
X104487305Y-78136828D01*
X104592312Y-78093333D01*
X104686816Y-78030187D01*
X104767185Y-77949818D01*
X104830331Y-77855314D01*
X104873826Y-77750307D01*
X104896000Y-77638832D01*
X104896000Y-77525172D01*
X104873826Y-77413697D01*
X104830331Y-77308690D01*
X104767185Y-77214186D01*
X104686816Y-77133817D01*
X104596000Y-77073135D01*
X104596000Y-72615869D01*
X104686816Y-72555187D01*
X104767185Y-72474818D01*
X104830331Y-72380314D01*
X104873826Y-72275307D01*
X104896000Y-72163832D01*
X104896000Y-72050172D01*
X104873826Y-71938697D01*
X104830331Y-71833690D01*
X104767185Y-71739186D01*
X104686816Y-71658817D01*
X104592312Y-71595671D01*
X104487305Y-71552176D01*
X104375830Y-71530002D01*
X104262170Y-71530002D01*
X104150695Y-71552176D01*
X104045688Y-71595671D01*
X103951184Y-71658817D01*
X103944000Y-71666001D01*
X103936816Y-71658817D01*
X103842312Y-71595671D01*
X103737305Y-71552176D01*
X103625830Y-71530002D01*
X103512170Y-71530002D01*
X103400695Y-71552176D01*
X103295688Y-71595671D01*
X103201184Y-71658817D01*
X103120815Y-71739186D01*
X103057669Y-71833690D01*
X103014174Y-71938697D01*
X102992000Y-72050172D01*
X101666709Y-72050172D01*
X101671000Y-72028603D01*
X101671000Y-71885397D01*
X101643062Y-71744942D01*
X101588259Y-71612636D01*
X101508698Y-71493564D01*
X101407436Y-71392302D01*
X101288364Y-71312741D01*
X101156058Y-71257938D01*
X101015603Y-71230000D01*
X100872397Y-71230000D01*
X100731942Y-71257938D01*
X100599636Y-71312741D01*
X100480564Y-71392302D01*
X100379302Y-71493564D01*
X100299741Y-71612636D01*
X100244938Y-71744942D01*
X100217000Y-71885397D01*
X100217000Y-72028603D01*
X100219683Y-72042093D01*
X100140096Y-72121681D01*
X100122842Y-72135841D01*
X100077814Y-72190708D01*
X100066358Y-72204667D01*
X100024386Y-72283191D01*
X99998540Y-72368393D01*
X99989813Y-72457000D01*
X99992001Y-72479215D01*
X99992000Y-73619775D01*
X97029093Y-76582683D01*
X97015603Y-76580000D01*
X96872397Y-76580000D01*
X96731942Y-76607938D01*
X96599636Y-76662741D01*
X96480564Y-76742302D01*
X96379302Y-76843564D01*
X96299741Y-76962636D01*
X96244938Y-77094942D01*
X96217000Y-77235397D01*
X73998915Y-77235397D01*
X73985668Y-66799017D01*
X75799000Y-66799017D01*
X75799000Y-67414983D01*
X75919169Y-68019112D01*
X76154889Y-68588190D01*
X76497101Y-69100346D01*
X76932654Y-69535899D01*
X77444810Y-69878111D01*
X78013888Y-70113831D01*
X78618017Y-70234000D01*
X79233983Y-70234000D01*
X79838112Y-70113831D01*
X80407190Y-69878111D01*
X80919346Y-69535899D01*
X81169848Y-69285397D01*
X105217000Y-69285397D01*
X105217000Y-69428603D01*
X105244938Y-69569058D01*
X105299741Y-69701364D01*
X105379302Y-69820436D01*
X105480564Y-69921698D01*
X105599636Y-70001259D01*
X105731942Y-70056062D01*
X105872397Y-70084000D01*
X106015603Y-70084000D01*
X106029093Y-70081317D01*
X107598681Y-71650905D01*
X107612841Y-71668159D01*
X107681667Y-71724643D01*
X107760190Y-71766614D01*
X107845392Y-71792460D01*
X107934000Y-71801187D01*
X107956205Y-71799000D01*
X109931661Y-71799000D01*
X109939302Y-71810436D01*
X110040564Y-71911698D01*
X110159636Y-71991259D01*
X110291942Y-72046062D01*
X110432397Y-72074000D01*
X110575603Y-72074000D01*
X110716058Y-72046062D01*
X110848364Y-71991259D01*
X110967436Y-71911698D01*
X111068698Y-71810436D01*
X111148259Y-71691364D01*
X111203062Y-71559058D01*
X111231000Y-71418603D01*
X111231000Y-71275397D01*
X111203062Y-71134942D01*
X111148259Y-71002636D01*
X111068698Y-70883564D01*
X110967436Y-70782302D01*
X110848364Y-70702741D01*
X110716058Y-70647938D01*
X110575603Y-70620000D01*
X110432397Y-70620000D01*
X110291942Y-70647938D01*
X110159636Y-70702741D01*
X110040564Y-70782302D01*
X109939302Y-70883564D01*
X109931661Y-70895000D01*
X108121224Y-70895000D01*
X106668317Y-69442093D01*
X106671000Y-69428603D01*
X106671000Y-69285397D01*
X106643062Y-69144942D01*
X106588259Y-69012636D01*
X106508698Y-68893564D01*
X106407436Y-68792302D01*
X106288364Y-68712741D01*
X106156058Y-68657938D01*
X106015603Y-68630000D01*
X105872397Y-68630000D01*
X105731942Y-68657938D01*
X105599636Y-68712741D01*
X105480564Y-68792302D01*
X105379302Y-68893564D01*
X105299741Y-69012636D01*
X105244938Y-69144942D01*
X105217000Y-69285397D01*
X81169848Y-69285397D01*
X81354899Y-69100346D01*
X81697111Y-68588190D01*
X81932831Y-68019112D01*
X81977011Y-67797000D01*
X90281306Y-67797000D01*
X90304031Y-68027732D01*
X90371333Y-68249597D01*
X90480626Y-68454070D01*
X90627709Y-68633291D01*
X90806930Y-68780374D01*
X91011403Y-68889667D01*
X91233268Y-68956969D01*
X91406188Y-68974000D01*
X91521812Y-68974000D01*
X91694732Y-68956969D01*
X91916597Y-68889667D01*
X92121070Y-68780374D01*
X92300291Y-68633291D01*
X92447374Y-68454070D01*
X92556667Y-68249597D01*
X92623969Y-68027732D01*
X92646694Y-67797000D01*
X92821306Y-67797000D01*
X92844031Y-68027732D01*
X92911333Y-68249597D01*
X93020626Y-68454070D01*
X93167709Y-68633291D01*
X93346930Y-68780374D01*
X93551403Y-68889667D01*
X93773268Y-68956969D01*
X93946188Y-68974000D01*
X94061812Y-68974000D01*
X94234732Y-68956969D01*
X94456597Y-68889667D01*
X94661070Y-68780374D01*
X94840291Y-68633291D01*
X94987374Y-68454070D01*
X95096667Y-68249597D01*
X95163969Y-68027732D01*
X95186694Y-67797000D01*
X95361306Y-67797000D01*
X95384031Y-68027732D01*
X95451333Y-68249597D01*
X95560626Y-68454070D01*
X95707709Y-68633291D01*
X95886930Y-68780374D01*
X96091403Y-68889667D01*
X96313268Y-68956969D01*
X96486188Y-68974000D01*
X96601812Y-68974000D01*
X96774732Y-68956969D01*
X96996597Y-68889667D01*
X97201070Y-68780374D01*
X97380291Y-68633291D01*
X97527374Y-68454070D01*
X97636667Y-68249597D01*
X97703969Y-68027732D01*
X97726694Y-67797000D01*
X97710936Y-67637000D01*
X108501306Y-67637000D01*
X108524031Y-67867732D01*
X108591333Y-68089597D01*
X108700626Y-68294070D01*
X108847709Y-68473291D01*
X109026930Y-68620374D01*
X109231403Y-68729667D01*
X109453268Y-68796969D01*
X109626188Y-68814000D01*
X109741812Y-68814000D01*
X109914732Y-68796969D01*
X110136597Y-68729667D01*
X110341070Y-68620374D01*
X110520291Y-68473291D01*
X110667374Y-68294070D01*
X110776667Y-68089597D01*
X110843969Y-67867732D01*
X110866694Y-67637000D01*
X111041306Y-67637000D01*
X111064031Y-67867732D01*
X111131333Y-68089597D01*
X111240626Y-68294070D01*
X111387709Y-68473291D01*
X111566930Y-68620374D01*
X111771403Y-68729667D01*
X111993268Y-68796969D01*
X112166188Y-68814000D01*
X112281812Y-68814000D01*
X112454732Y-68796969D01*
X112676597Y-68729667D01*
X112881070Y-68620374D01*
X113060291Y-68473291D01*
X113207374Y-68294070D01*
X113316667Y-68089597D01*
X113383969Y-67867732D01*
X113406694Y-67637000D01*
X113383969Y-67406268D01*
X113316667Y-67184403D01*
X113207374Y-66979930D01*
X113060291Y-66800709D01*
X112881070Y-66653626D01*
X112676597Y-66544333D01*
X112454732Y-66477031D01*
X112281812Y-66460000D01*
X112166188Y-66460000D01*
X111993268Y-66477031D01*
X111771403Y-66544333D01*
X111566930Y-66653626D01*
X111387709Y-66800709D01*
X111240626Y-66979930D01*
X111131333Y-67184403D01*
X111064031Y-67406268D01*
X111041306Y-67637000D01*
X110866694Y-67637000D01*
X110843969Y-67406268D01*
X110776667Y-67184403D01*
X110667374Y-66979930D01*
X110520291Y-66800709D01*
X110341070Y-66653626D01*
X110136597Y-66544333D01*
X109914732Y-66477031D01*
X109741812Y-66460000D01*
X109626188Y-66460000D01*
X109453268Y-66477031D01*
X109231403Y-66544333D01*
X109026930Y-66653626D01*
X108847709Y-66800709D01*
X108700626Y-66979930D01*
X108591333Y-67184403D01*
X108524031Y-67406268D01*
X108501306Y-67637000D01*
X97710936Y-67637000D01*
X97703969Y-67566268D01*
X97636667Y-67344403D01*
X97527374Y-67139930D01*
X97380291Y-66960709D01*
X97201070Y-66813626D01*
X96996597Y-66704333D01*
X96774732Y-66637031D01*
X96601812Y-66620000D01*
X96486188Y-66620000D01*
X96313268Y-66637031D01*
X96091403Y-66704333D01*
X95886930Y-66813626D01*
X95707709Y-66960709D01*
X95560626Y-67139930D01*
X95451333Y-67344403D01*
X95384031Y-67566268D01*
X95361306Y-67797000D01*
X95186694Y-67797000D01*
X95163969Y-67566268D01*
X95096667Y-67344403D01*
X94987374Y-67139930D01*
X94840291Y-66960709D01*
X94661070Y-66813626D01*
X94456597Y-66704333D01*
X94234732Y-66637031D01*
X94061812Y-66620000D01*
X93946188Y-66620000D01*
X93773268Y-66637031D01*
X93551403Y-66704333D01*
X93346930Y-66813626D01*
X93167709Y-66960709D01*
X93020626Y-67139930D01*
X92911333Y-67344403D01*
X92844031Y-67566268D01*
X92821306Y-67797000D01*
X92646694Y-67797000D01*
X92623969Y-67566268D01*
X92556667Y-67344403D01*
X92447374Y-67139930D01*
X92300291Y-66960709D01*
X92121070Y-66813626D01*
X91916597Y-66704333D01*
X91694732Y-66637031D01*
X91521812Y-66620000D01*
X91406188Y-66620000D01*
X91233268Y-66637031D01*
X91011403Y-66704333D01*
X90806930Y-66813626D01*
X90627709Y-66960709D01*
X90480626Y-67139930D01*
X90371333Y-67344403D01*
X90304031Y-67566268D01*
X90281306Y-67797000D01*
X81977011Y-67797000D01*
X82053000Y-67414983D01*
X82053000Y-66799017D01*
X81932831Y-66194888D01*
X81697111Y-65625810D01*
X81450680Y-65257000D01*
X90281306Y-65257000D01*
X90304031Y-65487732D01*
X90371333Y-65709597D01*
X90480626Y-65914070D01*
X90627709Y-66093291D01*
X90806930Y-66240374D01*
X91011403Y-66349667D01*
X91233268Y-66416969D01*
X91406188Y-66434000D01*
X91521812Y-66434000D01*
X91694732Y-66416969D01*
X91916597Y-66349667D01*
X92121070Y-66240374D01*
X92300291Y-66093291D01*
X92447374Y-65914070D01*
X92556667Y-65709597D01*
X92567479Y-65673953D01*
X92796977Y-65673953D01*
X92901513Y-65901420D01*
X93048417Y-66104122D01*
X93232044Y-66274270D01*
X93445336Y-66405325D01*
X93587048Y-66464013D01*
X93781000Y-66405806D01*
X93781000Y-65480000D01*
X94227000Y-65480000D01*
X94227000Y-66405806D01*
X94420952Y-66464013D01*
X94562664Y-66405325D01*
X94775956Y-66274270D01*
X94959583Y-66104122D01*
X95106487Y-65901420D01*
X95211023Y-65673953D01*
X95154638Y-65480000D01*
X94227000Y-65480000D01*
X93781000Y-65480000D01*
X92853362Y-65480000D01*
X92796977Y-65673953D01*
X92567479Y-65673953D01*
X92623969Y-65487732D01*
X92646694Y-65257000D01*
X92623969Y-65026268D01*
X92567480Y-64840047D01*
X92796977Y-64840047D01*
X92853362Y-65034000D01*
X93781000Y-65034000D01*
X93781000Y-64108194D01*
X94227000Y-64108194D01*
X94227000Y-65034000D01*
X95154638Y-65034000D01*
X95211023Y-64840047D01*
X95106487Y-64612580D01*
X94959583Y-64409878D01*
X94956478Y-64407000D01*
X95365418Y-64407000D01*
X95365418Y-66107000D01*
X95371732Y-66171103D01*
X95390430Y-66232743D01*
X95420794Y-66289550D01*
X95461657Y-66339343D01*
X95511450Y-66380206D01*
X95568257Y-66410570D01*
X95629897Y-66429268D01*
X95694000Y-66435582D01*
X97394000Y-66435582D01*
X97458103Y-66429268D01*
X97519743Y-66410570D01*
X97576550Y-66380206D01*
X97626343Y-66339343D01*
X97667206Y-66289550D01*
X97697570Y-66232743D01*
X97716268Y-66171103D01*
X97722582Y-66107000D01*
X97722582Y-65521258D01*
X99392134Y-65521258D01*
X99412245Y-65696929D01*
X99466241Y-65865301D01*
X99552047Y-66019904D01*
X99666366Y-66154797D01*
X99804805Y-66264795D01*
X99941062Y-66309848D01*
X100071000Y-66244263D01*
X100071000Y-65380000D01*
X100517000Y-65380000D01*
X100517000Y-66244263D01*
X100646938Y-66309848D01*
X100783195Y-66264795D01*
X100921634Y-66154797D01*
X101035953Y-66019904D01*
X101121759Y-65865301D01*
X101175755Y-65696929D01*
X101195866Y-65521258D01*
X105992134Y-65521258D01*
X106012245Y-65696929D01*
X106066241Y-65865301D01*
X106152047Y-66019904D01*
X106266366Y-66154797D01*
X106404805Y-66264795D01*
X106541062Y-66309848D01*
X106671000Y-66244263D01*
X106671000Y-65380000D01*
X107117000Y-65380000D01*
X107117000Y-66244263D01*
X107246938Y-66309848D01*
X107383195Y-66264795D01*
X107521634Y-66154797D01*
X107635953Y-66019904D01*
X107721759Y-65865301D01*
X107775755Y-65696929D01*
X107795866Y-65521258D01*
X107680243Y-65380000D01*
X107117000Y-65380000D01*
X106671000Y-65380000D01*
X106107757Y-65380000D01*
X105992134Y-65521258D01*
X101195866Y-65521258D01*
X101080243Y-65380000D01*
X100517000Y-65380000D01*
X100071000Y-65380000D01*
X99507757Y-65380000D01*
X99392134Y-65521258D01*
X97722582Y-65521258D01*
X97722582Y-65097000D01*
X108501306Y-65097000D01*
X108524031Y-65327732D01*
X108591333Y-65549597D01*
X108700626Y-65754070D01*
X108847709Y-65933291D01*
X109026930Y-66080374D01*
X109231403Y-66189667D01*
X109453268Y-66256969D01*
X109626188Y-66274000D01*
X109741812Y-66274000D01*
X109914732Y-66256969D01*
X110136597Y-66189667D01*
X110341070Y-66080374D01*
X110520291Y-65933291D01*
X110667374Y-65754070D01*
X110776667Y-65549597D01*
X110843969Y-65327732D01*
X110866694Y-65097000D01*
X111041306Y-65097000D01*
X111064031Y-65327732D01*
X111131333Y-65549597D01*
X111240626Y-65754070D01*
X111387709Y-65933291D01*
X111566930Y-66080374D01*
X111771403Y-66189667D01*
X111993268Y-66256969D01*
X112166188Y-66274000D01*
X112281812Y-66274000D01*
X112454732Y-66256969D01*
X112676597Y-66189667D01*
X112881070Y-66080374D01*
X113060291Y-65933291D01*
X113207374Y-65754070D01*
X113316667Y-65549597D01*
X113383969Y-65327732D01*
X113406694Y-65097000D01*
X113383969Y-64866268D01*
X113316667Y-64644403D01*
X113207374Y-64439930D01*
X113060291Y-64260709D01*
X113043587Y-64247000D01*
X113585418Y-64247000D01*
X113585418Y-65947000D01*
X113591732Y-66011103D01*
X113610430Y-66072743D01*
X113640794Y-66129550D01*
X113681657Y-66179343D01*
X113731450Y-66220206D01*
X113788257Y-66250570D01*
X113849897Y-66269268D01*
X113914000Y-66275582D01*
X115614000Y-66275582D01*
X115678103Y-66269268D01*
X115739743Y-66250570D01*
X115796550Y-66220206D01*
X115846343Y-66179343D01*
X115887206Y-66129550D01*
X115917570Y-66072743D01*
X115936268Y-66011103D01*
X115942582Y-65947000D01*
X115942582Y-64247000D01*
X115936268Y-64182897D01*
X115917570Y-64121257D01*
X115887206Y-64064450D01*
X115846343Y-64014657D01*
X115796550Y-63973794D01*
X115739743Y-63943430D01*
X115678103Y-63924732D01*
X115614000Y-63918418D01*
X113914000Y-63918418D01*
X113849897Y-63924732D01*
X113788257Y-63943430D01*
X113731450Y-63973794D01*
X113681657Y-64014657D01*
X113640794Y-64064450D01*
X113610430Y-64121257D01*
X113591732Y-64182897D01*
X113585418Y-64247000D01*
X113043587Y-64247000D01*
X112881070Y-64113626D01*
X112676597Y-64004333D01*
X112454732Y-63937031D01*
X112281812Y-63920000D01*
X112166188Y-63920000D01*
X111993268Y-63937031D01*
X111771403Y-64004333D01*
X111566930Y-64113626D01*
X111387709Y-64260709D01*
X111240626Y-64439930D01*
X111131333Y-64644403D01*
X111064031Y-64866268D01*
X111041306Y-65097000D01*
X110866694Y-65097000D01*
X110843969Y-64866268D01*
X110776667Y-64644403D01*
X110667374Y-64439930D01*
X110520291Y-64260709D01*
X110341070Y-64113626D01*
X110136597Y-64004333D01*
X109914732Y-63937031D01*
X109741812Y-63920000D01*
X109626188Y-63920000D01*
X109453268Y-63937031D01*
X109231403Y-64004333D01*
X109026930Y-64113626D01*
X108847709Y-64260709D01*
X108700626Y-64439930D01*
X108591333Y-64644403D01*
X108524031Y-64866268D01*
X108501306Y-65097000D01*
X97722582Y-65097000D01*
X97722582Y-64792742D01*
X99392134Y-64792742D01*
X99507757Y-64934000D01*
X100071000Y-64934000D01*
X100071000Y-64069737D01*
X100517000Y-64069737D01*
X100517000Y-64934000D01*
X101080243Y-64934000D01*
X101195866Y-64792742D01*
X105992134Y-64792742D01*
X106107757Y-64934000D01*
X106671000Y-64934000D01*
X106671000Y-64069737D01*
X107117000Y-64069737D01*
X107117000Y-64934000D01*
X107680243Y-64934000D01*
X107795866Y-64792742D01*
X107775755Y-64617071D01*
X107721759Y-64448699D01*
X107635953Y-64294096D01*
X107521634Y-64159203D01*
X107383195Y-64049205D01*
X107246938Y-64004152D01*
X107117000Y-64069737D01*
X106671000Y-64069737D01*
X106541062Y-64004152D01*
X106404805Y-64049205D01*
X106266366Y-64159203D01*
X106152047Y-64294096D01*
X106066241Y-64448699D01*
X106012245Y-64617071D01*
X105992134Y-64792742D01*
X101195866Y-64792742D01*
X101175755Y-64617071D01*
X101121759Y-64448699D01*
X101035953Y-64294096D01*
X100921634Y-64159203D01*
X100783195Y-64049205D01*
X100646938Y-64004152D01*
X100517000Y-64069737D01*
X100071000Y-64069737D01*
X99941062Y-64004152D01*
X99804805Y-64049205D01*
X99666366Y-64159203D01*
X99552047Y-64294096D01*
X99466241Y-64448699D01*
X99412245Y-64617071D01*
X99392134Y-64792742D01*
X97722582Y-64792742D01*
X97722582Y-64407000D01*
X97716268Y-64342897D01*
X97697570Y-64281257D01*
X97667206Y-64224450D01*
X97626343Y-64174657D01*
X97576550Y-64133794D01*
X97519743Y-64103430D01*
X97458103Y-64084732D01*
X97394000Y-64078418D01*
X95694000Y-64078418D01*
X95629897Y-64084732D01*
X95568257Y-64103430D01*
X95511450Y-64133794D01*
X95461657Y-64174657D01*
X95420794Y-64224450D01*
X95390430Y-64281257D01*
X95371732Y-64342897D01*
X95365418Y-64407000D01*
X94956478Y-64407000D01*
X94775956Y-64239730D01*
X94562664Y-64108675D01*
X94420952Y-64049987D01*
X94227000Y-64108194D01*
X93781000Y-64108194D01*
X93587048Y-64049987D01*
X93445336Y-64108675D01*
X93232044Y-64239730D01*
X93048417Y-64409878D01*
X92901513Y-64612580D01*
X92796977Y-64840047D01*
X92567480Y-64840047D01*
X92556667Y-64804403D01*
X92447374Y-64599930D01*
X92300291Y-64420709D01*
X92121070Y-64273626D01*
X91916597Y-64164333D01*
X91694732Y-64097031D01*
X91521812Y-64080000D01*
X91406188Y-64080000D01*
X91233268Y-64097031D01*
X91011403Y-64164333D01*
X90806930Y-64273626D01*
X90627709Y-64420709D01*
X90480626Y-64599930D01*
X90371333Y-64804403D01*
X90304031Y-65026268D01*
X90281306Y-65257000D01*
X81450680Y-65257000D01*
X81354899Y-65113654D01*
X80919346Y-64678101D01*
X80407190Y-64335889D01*
X79838112Y-64100169D01*
X79233983Y-63980000D01*
X78618017Y-63980000D01*
X78013888Y-64100169D01*
X77444810Y-64335889D01*
X76932654Y-64678101D01*
X76497101Y-65113654D01*
X76154889Y-65625810D01*
X75919169Y-66194888D01*
X75799000Y-66799017D01*
X73985668Y-66799017D01*
X73981809Y-63759358D01*
X126956215Y-63908642D01*
M02*
