G04 #@! TF.GenerationSoftware,KiCad,Pcbnew,(5.1.0)-1*
G04 #@! TF.CreationDate,2019-11-06T10:51:47-08:00*
G04 #@! TF.ProjectId,SLS_rev1,534c535f-7265-4763-912e-6b696361645f,rev?*
G04 #@! TF.SameCoordinates,Original*
G04 #@! TF.FileFunction,Legend,Bot*
G04 #@! TF.FilePolarity,Positive*
%FSLAX46Y46*%
G04 Gerber Fmt 4.6, Leading zero omitted, Abs format (unit mm)*
G04 Created by KiCad (PCBNEW (5.1.0)-1) date 2019-11-06 10:51:47*
%MOMM*%
%LPD*%
G04 APERTURE LIST*
%ADD10C,0.150000*%
%ADD11C,0.200000*%
%ADD12C,0.120000*%
%ADD13C,0.100000*%
%ADD14C,0.254000*%
G04 APERTURE END LIST*
D10*
X116524285Y-65052380D02*
X117095714Y-65052380D01*
X116810000Y-65052380D02*
X116810000Y-64052380D01*
X116905238Y-64195238D01*
X117000476Y-64290476D01*
X117095714Y-64338095D01*
X117095714Y-67447619D02*
X117048095Y-67400000D01*
X116952857Y-67352380D01*
X116714761Y-67352380D01*
X116619523Y-67400000D01*
X116571904Y-67447619D01*
X116524285Y-67542857D01*
X116524285Y-67638095D01*
X116571904Y-67780952D01*
X117143333Y-68352380D01*
X116524285Y-68352380D01*
X121079523Y-72049761D02*
X120936666Y-72097380D01*
X120698571Y-72097380D01*
X120603333Y-72049761D01*
X120555714Y-72002142D01*
X120508095Y-71906904D01*
X120508095Y-71811666D01*
X120555714Y-71716428D01*
X120603333Y-71668809D01*
X120698571Y-71621190D01*
X120889047Y-71573571D01*
X120984285Y-71525952D01*
X121031904Y-71478333D01*
X121079523Y-71383095D01*
X121079523Y-71287857D01*
X121031904Y-71192619D01*
X120984285Y-71145000D01*
X120889047Y-71097380D01*
X120650952Y-71097380D01*
X120508095Y-71145000D01*
X119698571Y-72049761D02*
X119793809Y-72097380D01*
X119984285Y-72097380D01*
X120079523Y-72049761D01*
X120127142Y-71954523D01*
X120127142Y-71573571D01*
X120079523Y-71478333D01*
X119984285Y-71430714D01*
X119793809Y-71430714D01*
X119698571Y-71478333D01*
X119650952Y-71573571D01*
X119650952Y-71668809D01*
X120127142Y-71764047D01*
X119079523Y-72097380D02*
X119174761Y-72049761D01*
X119222380Y-71954523D01*
X119222380Y-71097380D01*
X118841428Y-71430714D02*
X118460476Y-71430714D01*
X118698571Y-72097380D02*
X118698571Y-71240238D01*
X118650952Y-71145000D01*
X118555714Y-71097380D01*
X118460476Y-71097380D01*
X117365238Y-72097380D02*
X117365238Y-71097380D01*
X116984285Y-71097380D01*
X116889047Y-71145000D01*
X116841428Y-71192619D01*
X116793809Y-71287857D01*
X116793809Y-71430714D01*
X116841428Y-71525952D01*
X116889047Y-71573571D01*
X116984285Y-71621190D01*
X117365238Y-71621190D01*
X116222380Y-72097380D02*
X116317619Y-72049761D01*
X116365238Y-72002142D01*
X116412857Y-71906904D01*
X116412857Y-71621190D01*
X116365238Y-71525952D01*
X116317619Y-71478333D01*
X116222380Y-71430714D01*
X116079523Y-71430714D01*
X115984285Y-71478333D01*
X115936666Y-71525952D01*
X115889047Y-71621190D01*
X115889047Y-71906904D01*
X115936666Y-72002142D01*
X115984285Y-72049761D01*
X116079523Y-72097380D01*
X116222380Y-72097380D01*
X115555714Y-71430714D02*
X115365238Y-72097380D01*
X115174761Y-71621190D01*
X114984285Y-72097380D01*
X114793809Y-71430714D01*
X114031904Y-72049761D02*
X114127142Y-72097380D01*
X114317619Y-72097380D01*
X114412857Y-72049761D01*
X114460476Y-71954523D01*
X114460476Y-71573571D01*
X114412857Y-71478333D01*
X114317619Y-71430714D01*
X114127142Y-71430714D01*
X114031904Y-71478333D01*
X113984285Y-71573571D01*
X113984285Y-71668809D01*
X114460476Y-71764047D01*
X113555714Y-72097380D02*
X113555714Y-71430714D01*
X113555714Y-71621190D02*
X113508095Y-71525952D01*
X113460476Y-71478333D01*
X113365238Y-71430714D01*
X113270000Y-71430714D01*
X112555714Y-72049761D02*
X112650952Y-72097380D01*
X112841428Y-72097380D01*
X112936666Y-72049761D01*
X112984285Y-71954523D01*
X112984285Y-71573571D01*
X112936666Y-71478333D01*
X112841428Y-71430714D01*
X112650952Y-71430714D01*
X112555714Y-71478333D01*
X112508095Y-71573571D01*
X112508095Y-71668809D01*
X112984285Y-71764047D01*
X111650952Y-72097380D02*
X111650952Y-71097380D01*
X111650952Y-72049761D02*
X111746190Y-72097380D01*
X111936666Y-72097380D01*
X112031904Y-72049761D01*
X112079523Y-72002142D01*
X112127142Y-71906904D01*
X112127142Y-71621190D01*
X112079523Y-71525952D01*
X112031904Y-71478333D01*
X111936666Y-71430714D01*
X111746190Y-71430714D01*
X111650952Y-71478333D01*
X111174761Y-72002142D02*
X111127142Y-72049761D01*
X111174761Y-72097380D01*
X111222380Y-72049761D01*
X111174761Y-72002142D01*
X111174761Y-72097380D01*
X111174761Y-71478333D02*
X111127142Y-71525952D01*
X111174761Y-71573571D01*
X111222380Y-71525952D01*
X111174761Y-71478333D01*
X111174761Y-71573571D01*
X109412857Y-72097380D02*
X109984285Y-72097380D01*
X109698571Y-72097380D02*
X109698571Y-71097380D01*
X109793809Y-71240238D01*
X109889047Y-71335476D01*
X109984285Y-71383095D01*
X108984285Y-71716428D02*
X108222380Y-71716428D01*
X107793809Y-71192619D02*
X107746190Y-71145000D01*
X107650952Y-71097380D01*
X107412857Y-71097380D01*
X107317619Y-71145000D01*
X107270000Y-71192619D01*
X107222380Y-71287857D01*
X107222380Y-71383095D01*
X107270000Y-71525952D01*
X107841428Y-72097380D01*
X107222380Y-72097380D01*
X105555714Y-71097380D02*
X106031904Y-71097380D01*
X106079523Y-71573571D01*
X106031904Y-71525952D01*
X105936666Y-71478333D01*
X105698571Y-71478333D01*
X105603333Y-71525952D01*
X105555714Y-71573571D01*
X105508095Y-71668809D01*
X105508095Y-71906904D01*
X105555714Y-72002142D01*
X105603333Y-72049761D01*
X105698571Y-72097380D01*
X105936666Y-72097380D01*
X106031904Y-72049761D01*
X106079523Y-72002142D01*
X105222380Y-71097380D02*
X104889047Y-72097380D01*
X104555714Y-71097380D01*
X103317619Y-72097380D02*
X103412857Y-72049761D01*
X103460476Y-72002142D01*
X103508095Y-71906904D01*
X103508095Y-71621190D01*
X103460476Y-71525952D01*
X103412857Y-71478333D01*
X103317619Y-71430714D01*
X103174761Y-71430714D01*
X103079523Y-71478333D01*
X103031904Y-71525952D01*
X102984285Y-71621190D01*
X102984285Y-71906904D01*
X103031904Y-72002142D01*
X103079523Y-72049761D01*
X103174761Y-72097380D01*
X103317619Y-72097380D01*
X102555714Y-72097380D02*
X102555714Y-71430714D01*
X102555714Y-71621190D02*
X102508095Y-71525952D01*
X102460476Y-71478333D01*
X102365238Y-71430714D01*
X102270000Y-71430714D01*
X101270000Y-71097380D02*
X100650952Y-71097380D01*
X100984285Y-71478333D01*
X100841428Y-71478333D01*
X100746190Y-71525952D01*
X100698571Y-71573571D01*
X100650952Y-71668809D01*
X100650952Y-71906904D01*
X100698571Y-72002142D01*
X100746190Y-72049761D01*
X100841428Y-72097380D01*
X101127142Y-72097380D01*
X101222380Y-72049761D01*
X101270000Y-72002142D01*
X100222380Y-71716428D02*
X99460476Y-71716428D01*
X98555714Y-71430714D02*
X98555714Y-72097380D01*
X98793809Y-71049761D02*
X99031904Y-71764047D01*
X98412857Y-71764047D01*
X97365238Y-71097380D02*
X96746190Y-71097380D01*
X97079523Y-71478333D01*
X96936666Y-71478333D01*
X96841428Y-71525952D01*
X96793809Y-71573571D01*
X96746190Y-71668809D01*
X96746190Y-71906904D01*
X96793809Y-72002142D01*
X96841428Y-72049761D01*
X96936666Y-72097380D01*
X97222380Y-72097380D01*
X97317619Y-72049761D01*
X97365238Y-72002142D01*
X96317619Y-72002142D02*
X96270000Y-72049761D01*
X96317619Y-72097380D01*
X96365238Y-72049761D01*
X96317619Y-72002142D01*
X96317619Y-72097380D01*
X95936666Y-71097380D02*
X95317619Y-71097380D01*
X95650952Y-71478333D01*
X95508095Y-71478333D01*
X95412857Y-71525952D01*
X95365238Y-71573571D01*
X95317619Y-71668809D01*
X95317619Y-71906904D01*
X95365238Y-72002142D01*
X95412857Y-72049761D01*
X95508095Y-72097380D01*
X95793809Y-72097380D01*
X95889047Y-72049761D01*
X95936666Y-72002142D01*
X95031904Y-71097380D02*
X94698571Y-72097380D01*
X94365238Y-71097380D01*
X124436666Y-73080714D02*
X124436666Y-73747380D01*
X124436666Y-73175952D02*
X124389047Y-73128333D01*
X124293809Y-73080714D01*
X124150952Y-73080714D01*
X124055714Y-73128333D01*
X124008095Y-73223571D01*
X124008095Y-73747380D01*
X123389047Y-73747380D02*
X123484285Y-73699761D01*
X123531904Y-73652142D01*
X123579523Y-73556904D01*
X123579523Y-73271190D01*
X123531904Y-73175952D01*
X123484285Y-73128333D01*
X123389047Y-73080714D01*
X123246190Y-73080714D01*
X123150952Y-73128333D01*
X123103333Y-73175952D01*
X123055714Y-73271190D01*
X123055714Y-73556904D01*
X123103333Y-73652142D01*
X123150952Y-73699761D01*
X123246190Y-73747380D01*
X123389047Y-73747380D01*
X122770000Y-73080714D02*
X122389047Y-73080714D01*
X122627142Y-72747380D02*
X122627142Y-73604523D01*
X122579523Y-73699761D01*
X122484285Y-73747380D01*
X122389047Y-73747380D01*
X120865238Y-73080714D02*
X120865238Y-73747380D01*
X121293809Y-73080714D02*
X121293809Y-73604523D01*
X121246190Y-73699761D01*
X121150952Y-73747380D01*
X121008095Y-73747380D01*
X120912857Y-73699761D01*
X120865238Y-73652142D01*
X120436666Y-73699761D02*
X120341428Y-73747380D01*
X120150952Y-73747380D01*
X120055714Y-73699761D01*
X120008095Y-73604523D01*
X120008095Y-73556904D01*
X120055714Y-73461666D01*
X120150952Y-73414047D01*
X120293809Y-73414047D01*
X120389047Y-73366428D01*
X120436666Y-73271190D01*
X120436666Y-73223571D01*
X120389047Y-73128333D01*
X120293809Y-73080714D01*
X120150952Y-73080714D01*
X120055714Y-73128333D01*
X119198571Y-73699761D02*
X119293809Y-73747380D01*
X119484285Y-73747380D01*
X119579523Y-73699761D01*
X119627142Y-73604523D01*
X119627142Y-73223571D01*
X119579523Y-73128333D01*
X119484285Y-73080714D01*
X119293809Y-73080714D01*
X119198571Y-73128333D01*
X119150952Y-73223571D01*
X119150952Y-73318809D01*
X119627142Y-73414047D01*
X117960476Y-73747380D02*
X117960476Y-73080714D01*
X117960476Y-73271190D02*
X117912857Y-73175952D01*
X117865238Y-73128333D01*
X117770000Y-73080714D01*
X117674761Y-73080714D01*
X116960476Y-73699761D02*
X117055714Y-73747380D01*
X117246190Y-73747380D01*
X117341428Y-73699761D01*
X117389047Y-73604523D01*
X117389047Y-73223571D01*
X117341428Y-73128333D01*
X117246190Y-73080714D01*
X117055714Y-73080714D01*
X116960476Y-73128333D01*
X116912857Y-73223571D01*
X116912857Y-73318809D01*
X117389047Y-73414047D01*
X116055714Y-73080714D02*
X116055714Y-73890238D01*
X116103333Y-73985476D01*
X116150952Y-74033095D01*
X116246190Y-74080714D01*
X116389047Y-74080714D01*
X116484285Y-74033095D01*
X116055714Y-73699761D02*
X116150952Y-73747380D01*
X116341428Y-73747380D01*
X116436666Y-73699761D01*
X116484285Y-73652142D01*
X116531904Y-73556904D01*
X116531904Y-73271190D01*
X116484285Y-73175952D01*
X116436666Y-73128333D01*
X116341428Y-73080714D01*
X116150952Y-73080714D01*
X116055714Y-73128333D01*
X115150952Y-73080714D02*
X115150952Y-73747380D01*
X115579523Y-73080714D02*
X115579523Y-73604523D01*
X115531904Y-73699761D01*
X115436666Y-73747380D01*
X115293809Y-73747380D01*
X115198571Y-73699761D01*
X115150952Y-73652142D01*
X114531904Y-73747380D02*
X114627142Y-73699761D01*
X114674761Y-73604523D01*
X114674761Y-72747380D01*
X113722380Y-73747380D02*
X113722380Y-73223571D01*
X113770000Y-73128333D01*
X113865238Y-73080714D01*
X114055714Y-73080714D01*
X114150952Y-73128333D01*
X113722380Y-73699761D02*
X113817619Y-73747380D01*
X114055714Y-73747380D01*
X114150952Y-73699761D01*
X114198571Y-73604523D01*
X114198571Y-73509285D01*
X114150952Y-73414047D01*
X114055714Y-73366428D01*
X113817619Y-73366428D01*
X113722380Y-73318809D01*
X113389047Y-73080714D02*
X113008095Y-73080714D01*
X113246190Y-72747380D02*
X113246190Y-73604523D01*
X113198571Y-73699761D01*
X113103333Y-73747380D01*
X113008095Y-73747380D01*
X112531904Y-73747380D02*
X112627142Y-73699761D01*
X112674761Y-73652142D01*
X112722380Y-73556904D01*
X112722380Y-73271190D01*
X112674761Y-73175952D01*
X112627142Y-73128333D01*
X112531904Y-73080714D01*
X112389047Y-73080714D01*
X112293809Y-73128333D01*
X112246190Y-73175952D01*
X112198571Y-73271190D01*
X112198571Y-73556904D01*
X112246190Y-73652142D01*
X112293809Y-73699761D01*
X112389047Y-73747380D01*
X112531904Y-73747380D01*
X111770000Y-73747380D02*
X111770000Y-73080714D01*
X111770000Y-73271190D02*
X111722380Y-73175952D01*
X111674761Y-73128333D01*
X111579523Y-73080714D01*
X111484285Y-73080714D01*
X111150952Y-73652142D02*
X111103333Y-73699761D01*
X111150952Y-73747380D01*
X111198571Y-73699761D01*
X111150952Y-73652142D01*
X111150952Y-73747380D01*
X111150952Y-73128333D02*
X111103333Y-73175952D01*
X111150952Y-73223571D01*
X111198571Y-73175952D01*
X111150952Y-73128333D01*
X111150952Y-73223571D01*
X110008095Y-72747380D02*
X109389047Y-72747380D01*
X109722380Y-73128333D01*
X109579523Y-73128333D01*
X109484285Y-73175952D01*
X109436666Y-73223571D01*
X109389047Y-73318809D01*
X109389047Y-73556904D01*
X109436666Y-73652142D01*
X109484285Y-73699761D01*
X109579523Y-73747380D01*
X109865238Y-73747380D01*
X109960476Y-73699761D01*
X110008095Y-73652142D01*
X108960476Y-73366428D02*
X108198571Y-73366428D01*
X107293809Y-73080714D02*
X107293809Y-73747380D01*
X107531904Y-72699761D02*
X107770000Y-73414047D01*
X107150952Y-73414047D01*
X105579523Y-73747380D02*
X105579523Y-73223571D01*
X105627142Y-73128333D01*
X105722380Y-73080714D01*
X105912857Y-73080714D01*
X106008095Y-73128333D01*
X105579523Y-73699761D02*
X105674761Y-73747380D01*
X105912857Y-73747380D01*
X106008095Y-73699761D01*
X106055714Y-73604523D01*
X106055714Y-73509285D01*
X106008095Y-73414047D01*
X105912857Y-73366428D01*
X105674761Y-73366428D01*
X105579523Y-73318809D01*
X105103333Y-73080714D02*
X105103333Y-73747380D01*
X105103333Y-73175952D02*
X105055714Y-73128333D01*
X104960476Y-73080714D01*
X104817619Y-73080714D01*
X104722380Y-73128333D01*
X104674761Y-73223571D01*
X104674761Y-73747380D01*
X103770000Y-73747380D02*
X103770000Y-72747380D01*
X103770000Y-73699761D02*
X103865238Y-73747380D01*
X104055714Y-73747380D01*
X104150952Y-73699761D01*
X104198571Y-73652142D01*
X104246190Y-73556904D01*
X104246190Y-73271190D01*
X104198571Y-73175952D01*
X104150952Y-73128333D01*
X104055714Y-73080714D01*
X103865238Y-73080714D01*
X103770000Y-73128333D01*
X102055714Y-72747380D02*
X102531904Y-72747380D01*
X102579523Y-73223571D01*
X102531904Y-73175952D01*
X102436666Y-73128333D01*
X102198571Y-73128333D01*
X102103333Y-73175952D01*
X102055714Y-73223571D01*
X102008095Y-73318809D01*
X102008095Y-73556904D01*
X102055714Y-73652142D01*
X102103333Y-73699761D01*
X102198571Y-73747380D01*
X102436666Y-73747380D01*
X102531904Y-73699761D01*
X102579523Y-73652142D01*
X101579523Y-73366428D02*
X100817619Y-73366428D01*
X99912857Y-72747380D02*
X100103333Y-72747380D01*
X100198571Y-72795000D01*
X100246190Y-72842619D01*
X100341428Y-72985476D01*
X100389047Y-73175952D01*
X100389047Y-73556904D01*
X100341428Y-73652142D01*
X100293809Y-73699761D01*
X100198571Y-73747380D01*
X100008095Y-73747380D01*
X99912857Y-73699761D01*
X99865238Y-73652142D01*
X99817619Y-73556904D01*
X99817619Y-73318809D01*
X99865238Y-73223571D01*
X99912857Y-73175952D01*
X100008095Y-73128333D01*
X100198571Y-73128333D01*
X100293809Y-73175952D01*
X100341428Y-73223571D01*
X100389047Y-73318809D01*
X98198571Y-73080714D02*
X98198571Y-73747380D01*
X98627142Y-73080714D02*
X98627142Y-73604523D01*
X98579523Y-73699761D01*
X98484285Y-73747380D01*
X98341428Y-73747380D01*
X98246190Y-73699761D01*
X98198571Y-73652142D01*
X97770000Y-73699761D02*
X97674761Y-73747380D01*
X97484285Y-73747380D01*
X97389047Y-73699761D01*
X97341428Y-73604523D01*
X97341428Y-73556904D01*
X97389047Y-73461666D01*
X97484285Y-73414047D01*
X97627142Y-73414047D01*
X97722380Y-73366428D01*
X97770000Y-73271190D01*
X97770000Y-73223571D01*
X97722380Y-73128333D01*
X97627142Y-73080714D01*
X97484285Y-73080714D01*
X97389047Y-73128333D01*
X96912857Y-73747380D02*
X96912857Y-73080714D01*
X96912857Y-72747380D02*
X96960476Y-72795000D01*
X96912857Y-72842619D01*
X96865238Y-72795000D01*
X96912857Y-72747380D01*
X96912857Y-72842619D01*
X96436666Y-73080714D02*
X96436666Y-73747380D01*
X96436666Y-73175952D02*
X96389047Y-73128333D01*
X96293809Y-73080714D01*
X96150952Y-73080714D01*
X96055714Y-73128333D01*
X96008095Y-73223571D01*
X96008095Y-73747380D01*
X95103333Y-73080714D02*
X95103333Y-73890238D01*
X95150952Y-73985476D01*
X95198571Y-74033095D01*
X95293809Y-74080714D01*
X95436666Y-74080714D01*
X95531904Y-74033095D01*
X95103333Y-73699761D02*
X95198571Y-73747380D01*
X95389047Y-73747380D01*
X95484285Y-73699761D01*
X95531904Y-73652142D01*
X95579523Y-73556904D01*
X95579523Y-73271190D01*
X95531904Y-73175952D01*
X95484285Y-73128333D01*
X95389047Y-73080714D01*
X95198571Y-73080714D01*
X95103333Y-73128333D01*
X93960476Y-72747380D02*
X93341428Y-72747380D01*
X93674761Y-73128333D01*
X93531904Y-73128333D01*
X93436666Y-73175952D01*
X93389047Y-73223571D01*
X93341428Y-73318809D01*
X93341428Y-73556904D01*
X93389047Y-73652142D01*
X93436666Y-73699761D01*
X93531904Y-73747380D01*
X93817619Y-73747380D01*
X93912857Y-73699761D01*
X93960476Y-73652142D01*
X92912857Y-73652142D02*
X92865238Y-73699761D01*
X92912857Y-73747380D01*
X92960476Y-73699761D01*
X92912857Y-73652142D01*
X92912857Y-73747380D01*
X92531904Y-72747380D02*
X91912857Y-72747380D01*
X92246190Y-73128333D01*
X92103333Y-73128333D01*
X92008095Y-73175952D01*
X91960476Y-73223571D01*
X91912857Y-73318809D01*
X91912857Y-73556904D01*
X91960476Y-73652142D01*
X92008095Y-73699761D01*
X92103333Y-73747380D01*
X92389047Y-73747380D01*
X92484285Y-73699761D01*
X92531904Y-73652142D01*
X91627142Y-72747380D02*
X91293809Y-73747380D01*
X90960476Y-72747380D01*
X82661619Y-107985095D02*
X82661619Y-107366047D01*
X82280666Y-107699380D01*
X82280666Y-107556523D01*
X82233047Y-107461285D01*
X82185428Y-107413666D01*
X82090190Y-107366047D01*
X81852095Y-107366047D01*
X81756857Y-107413666D01*
X81709238Y-107461285D01*
X81661619Y-107556523D01*
X81661619Y-107842238D01*
X81709238Y-107937476D01*
X81756857Y-107985095D01*
X82661619Y-107080333D02*
X81661619Y-106747000D01*
X82661619Y-106413666D01*
X82661619Y-106175571D02*
X82661619Y-105556523D01*
X82280666Y-105889857D01*
X82280666Y-105747000D01*
X82233047Y-105651761D01*
X82185428Y-105604142D01*
X82090190Y-105556523D01*
X81852095Y-105556523D01*
X81756857Y-105604142D01*
X81709238Y-105651761D01*
X81661619Y-105747000D01*
X81661619Y-106032714D01*
X81709238Y-106127952D01*
X81756857Y-106175571D01*
X76984000Y-112498904D02*
X77031619Y-112594142D01*
X77031619Y-112737000D01*
X76984000Y-112879857D01*
X76888761Y-112975095D01*
X76793523Y-113022714D01*
X76603047Y-113070333D01*
X76460190Y-113070333D01*
X76269714Y-113022714D01*
X76174476Y-112975095D01*
X76079238Y-112879857D01*
X76031619Y-112737000D01*
X76031619Y-112641761D01*
X76079238Y-112498904D01*
X76126857Y-112451285D01*
X76460190Y-112451285D01*
X76460190Y-112641761D01*
X76031619Y-112022714D02*
X77031619Y-112022714D01*
X76031619Y-111451285D01*
X77031619Y-111451285D01*
X76031619Y-110975095D02*
X77031619Y-110975095D01*
X77031619Y-110737000D01*
X76984000Y-110594142D01*
X76888761Y-110498904D01*
X76793523Y-110451285D01*
X76603047Y-110403666D01*
X76460190Y-110403666D01*
X76269714Y-110451285D01*
X76174476Y-110498904D01*
X76079238Y-110594142D01*
X76031619Y-110737000D01*
X76031619Y-110975095D01*
X82501619Y-118677000D02*
X82501619Y-119153190D01*
X82025428Y-119200809D01*
X82073047Y-119153190D01*
X82120666Y-119057952D01*
X82120666Y-118819857D01*
X82073047Y-118724619D01*
X82025428Y-118677000D01*
X81930190Y-118629380D01*
X81692095Y-118629380D01*
X81596857Y-118677000D01*
X81549238Y-118724619D01*
X81501619Y-118819857D01*
X81501619Y-119057952D01*
X81549238Y-119153190D01*
X81596857Y-119200809D01*
X82501619Y-118343666D02*
X81501619Y-118010333D01*
X82501619Y-117677000D01*
X82501619Y-116391285D02*
X82501619Y-116200809D01*
X82454000Y-116105571D01*
X82358761Y-116010333D01*
X82168285Y-115962714D01*
X81834952Y-115962714D01*
X81644476Y-116010333D01*
X81549238Y-116105571D01*
X81501619Y-116200809D01*
X81501619Y-116391285D01*
X81549238Y-116486523D01*
X81644476Y-116581761D01*
X81834952Y-116629380D01*
X82168285Y-116629380D01*
X82358761Y-116581761D01*
X82454000Y-116486523D01*
X82501619Y-116391285D01*
X82501619Y-115534142D02*
X81692095Y-115534142D01*
X81596857Y-115486523D01*
X81549238Y-115438904D01*
X81501619Y-115343666D01*
X81501619Y-115153190D01*
X81549238Y-115057952D01*
X81596857Y-115010333D01*
X81692095Y-114962714D01*
X82501619Y-114962714D01*
X82501619Y-114629380D02*
X82501619Y-114057952D01*
X81501619Y-114343666D02*
X82501619Y-114343666D01*
X76166619Y-124561761D02*
X76642809Y-124895095D01*
X76166619Y-125133190D02*
X77166619Y-125133190D01*
X77166619Y-124752238D01*
X77119000Y-124657000D01*
X77071380Y-124609380D01*
X76976142Y-124561761D01*
X76833285Y-124561761D01*
X76738047Y-124609380D01*
X76690428Y-124657000D01*
X76642809Y-124752238D01*
X76642809Y-125133190D01*
X76690428Y-124133190D02*
X76690428Y-123799857D01*
X76166619Y-123657000D02*
X76166619Y-124133190D01*
X77166619Y-124133190D01*
X77166619Y-123657000D01*
X76166619Y-122752238D02*
X76166619Y-123228428D01*
X77166619Y-123228428D01*
X76452333Y-122466523D02*
X76452333Y-121990333D01*
X76166619Y-122561761D02*
X77166619Y-122228428D01*
X76166619Y-121895095D01*
X76642809Y-121371285D02*
X76166619Y-121371285D01*
X77166619Y-121704619D02*
X76642809Y-121371285D01*
X77166619Y-121037952D01*
X74516619Y-124490333D02*
X75516619Y-124490333D01*
X75516619Y-124109380D01*
X75469000Y-124014142D01*
X75421380Y-123966523D01*
X75326142Y-123918904D01*
X75183285Y-123918904D01*
X75088047Y-123966523D01*
X75040428Y-124014142D01*
X74992809Y-124109380D01*
X74992809Y-124490333D01*
X75516619Y-123585571D02*
X74516619Y-123347476D01*
X75230904Y-123157000D01*
X74516619Y-122966523D01*
X75516619Y-122728428D01*
X74516619Y-121776047D02*
X74992809Y-122109380D01*
X74516619Y-122347476D02*
X75516619Y-122347476D01*
X75516619Y-121966523D01*
X75469000Y-121871285D01*
X75421380Y-121823666D01*
X75326142Y-121776047D01*
X75183285Y-121776047D01*
X75088047Y-121823666D01*
X75040428Y-121871285D01*
X74992809Y-121966523D01*
X74992809Y-122347476D01*
X75691619Y-135753190D02*
X76691619Y-135753190D01*
X75691619Y-135181761D01*
X76691619Y-135181761D01*
X76215428Y-134705571D02*
X76215428Y-134372238D01*
X75691619Y-134229380D02*
X75691619Y-134705571D01*
X76691619Y-134705571D01*
X76691619Y-134229380D01*
X76691619Y-133800809D02*
X75882095Y-133800809D01*
X75786857Y-133753190D01*
X75739238Y-133705571D01*
X75691619Y-133610333D01*
X75691619Y-133419857D01*
X75739238Y-133324619D01*
X75786857Y-133277000D01*
X75882095Y-133229380D01*
X76691619Y-133229380D01*
X76691619Y-132896047D02*
X76691619Y-132324619D01*
X75691619Y-132610333D02*
X76691619Y-132610333D01*
X75691619Y-131419857D02*
X76167809Y-131753190D01*
X75691619Y-131991285D02*
X76691619Y-131991285D01*
X76691619Y-131610333D01*
X76644000Y-131515095D01*
X76596380Y-131467476D01*
X76501142Y-131419857D01*
X76358285Y-131419857D01*
X76263047Y-131467476D01*
X76215428Y-131515095D01*
X76167809Y-131610333D01*
X76167809Y-131991285D01*
X75977333Y-131038904D02*
X75977333Y-130562714D01*
X75691619Y-131134142D02*
X76691619Y-130800809D01*
X75691619Y-130467476D01*
X75691619Y-129657952D02*
X75691619Y-130134142D01*
X76691619Y-130134142D01*
X81461619Y-150404619D02*
X81461619Y-150880809D01*
X82461619Y-150880809D01*
X81461619Y-150071285D02*
X82461619Y-150071285D01*
X81461619Y-149595095D02*
X82461619Y-149595095D01*
X81461619Y-149023666D01*
X82461619Y-149023666D01*
X81985428Y-148547476D02*
X81985428Y-148214142D01*
X81461619Y-148071285D02*
X81461619Y-148547476D01*
X82461619Y-148547476D01*
X82461619Y-148071285D01*
X81461619Y-146880809D02*
X82461619Y-146880809D01*
X81461619Y-146404619D02*
X82461619Y-146404619D01*
X81461619Y-145833190D01*
X82461619Y-145833190D01*
X81501619Y-140741285D02*
X81501619Y-141217476D01*
X82501619Y-141217476D01*
X81501619Y-140407952D02*
X82501619Y-140407952D01*
X81501619Y-139931761D02*
X82501619Y-139931761D01*
X81501619Y-139360333D01*
X82501619Y-139360333D01*
X82025428Y-138884142D02*
X82025428Y-138550809D01*
X81501619Y-138407952D02*
X81501619Y-138884142D01*
X82501619Y-138884142D01*
X82501619Y-138407952D01*
X82501619Y-137027000D02*
X82501619Y-136836523D01*
X82454000Y-136741285D01*
X82358761Y-136646047D01*
X82168285Y-136598428D01*
X81834952Y-136598428D01*
X81644476Y-136646047D01*
X81549238Y-136741285D01*
X81501619Y-136836523D01*
X81501619Y-137027000D01*
X81549238Y-137122238D01*
X81644476Y-137217476D01*
X81834952Y-137265095D01*
X82168285Y-137265095D01*
X82358761Y-137217476D01*
X82454000Y-137122238D01*
X82501619Y-137027000D01*
X82501619Y-136169857D02*
X81692095Y-136169857D01*
X81596857Y-136122238D01*
X81549238Y-136074619D01*
X81501619Y-135979380D01*
X81501619Y-135788904D01*
X81549238Y-135693666D01*
X81596857Y-135646047D01*
X81692095Y-135598428D01*
X82501619Y-135598428D01*
X82501619Y-135265095D02*
X82501619Y-134693666D01*
X81501619Y-134979380D02*
X82501619Y-134979380D01*
D11*
X114175000Y-119795000D02*
X114175000Y-120995000D01*
X117225000Y-121345000D02*
X114325000Y-121345000D01*
X117225000Y-121945000D02*
X117225000Y-121345000D01*
X114325000Y-121945000D02*
X117225000Y-121945000D01*
X114325000Y-121345000D02*
X114325000Y-121945000D01*
D12*
X84431221Y-125222000D02*
X84756779Y-125222000D01*
X84431221Y-126242000D02*
X84756779Y-126242000D01*
X90156779Y-108642000D02*
X89831221Y-108642000D01*
X90156779Y-107622000D02*
X89831221Y-107622000D01*
X112715000Y-124187779D02*
X112715000Y-123862221D01*
X113735000Y-124187779D02*
X113735000Y-123862221D01*
X112765000Y-121187779D02*
X112765000Y-120862221D01*
X113785000Y-121187779D02*
X113785000Y-120862221D01*
X117815000Y-123887779D02*
X117815000Y-123562221D01*
X118835000Y-123887779D02*
X118835000Y-123562221D01*
X119187779Y-120935000D02*
X118862221Y-120935000D01*
X119187779Y-119915000D02*
X118862221Y-119915000D01*
X113072221Y-116295000D02*
X113397779Y-116295000D01*
X113072221Y-117315000D02*
X113397779Y-117315000D01*
X122080000Y-123361422D02*
X122080000Y-123878578D01*
X120660000Y-123361422D02*
X120660000Y-123878578D01*
X122110000Y-126761422D02*
X122110000Y-127278578D01*
X120690000Y-126761422D02*
X120690000Y-127278578D01*
X122130000Y-130121422D02*
X122130000Y-130638578D01*
X120710000Y-130121422D02*
X120710000Y-130638578D01*
X107490000Y-133317221D02*
X107490000Y-133642779D01*
X106470000Y-133317221D02*
X106470000Y-133642779D01*
X91654000Y-121652000D02*
X90194000Y-121652000D01*
X91654000Y-124812000D02*
X89494000Y-124812000D01*
X91654000Y-124812000D02*
X91654000Y-123882000D01*
X91654000Y-121652000D02*
X91654000Y-122582000D01*
D13*
G36*
X114375000Y-117275000D02*
G01*
X114375000Y-117475000D01*
X114200000Y-117475000D01*
X114150000Y-117325000D01*
X114250000Y-117250000D01*
X114375000Y-117275000D01*
G37*
X114375000Y-117275000D02*
X114375000Y-117475000D01*
X114200000Y-117475000D01*
X114150000Y-117325000D01*
X114250000Y-117250000D01*
X114375000Y-117275000D01*
D12*
X114400000Y-117375000D02*
G75*
G03X114400000Y-117375000I-125000J0D01*
G01*
X114575000Y-117725000D02*
X112025000Y-117725000D01*
X114575000Y-119425000D02*
X112025000Y-119425000D01*
X114575000Y-117725000D02*
X114575000Y-119425000D01*
X116407221Y-118270000D02*
X116732779Y-118270000D01*
X116407221Y-119290000D02*
X116732779Y-119290000D01*
D14*
X114940523Y-124287380D02*
X115968619Y-124287380D01*
X116089571Y-124347857D01*
X116150047Y-124408333D01*
X116210523Y-124529285D01*
X116210523Y-124771190D01*
X116150047Y-124892142D01*
X116089571Y-124952619D01*
X115968619Y-125013095D01*
X114940523Y-125013095D01*
X116210523Y-126283095D02*
X116210523Y-125557380D01*
X116210523Y-125920238D02*
X114940523Y-125920238D01*
X115121952Y-125799285D01*
X115242904Y-125678333D01*
X115303380Y-125557380D01*
D10*
X119715714Y-115055380D02*
X119144285Y-115055380D01*
X119430000Y-116055380D02*
X119430000Y-115055380D01*
X118810952Y-116055380D02*
X118810952Y-115055380D01*
X118810952Y-115531571D02*
X118239523Y-115531571D01*
X118239523Y-116055380D02*
X118239523Y-115055380D01*
X117239523Y-116055380D02*
X117810952Y-116055380D01*
X117525238Y-116055380D02*
X117525238Y-115055380D01*
X117620476Y-115198238D01*
X117715714Y-115293476D01*
X117810952Y-115341095D01*
X85236857Y-127614380D02*
X85570190Y-127138190D01*
X85808285Y-127614380D02*
X85808285Y-126614380D01*
X85427333Y-126614380D01*
X85332095Y-126662000D01*
X85284476Y-126709619D01*
X85236857Y-126804857D01*
X85236857Y-126947714D01*
X85284476Y-127042952D01*
X85332095Y-127090571D01*
X85427333Y-127138190D01*
X85808285Y-127138190D01*
X84379714Y-126947714D02*
X84379714Y-127614380D01*
X84617809Y-126566761D02*
X84855904Y-127281047D01*
X84236857Y-127281047D01*
X83808285Y-127614380D02*
X83617809Y-127614380D01*
X83522571Y-127566761D01*
X83474952Y-127519142D01*
X83379714Y-127376285D01*
X83332095Y-127185809D01*
X83332095Y-126804857D01*
X83379714Y-126709619D01*
X83427333Y-126662000D01*
X83522571Y-126614380D01*
X83713047Y-126614380D01*
X83808285Y-126662000D01*
X83855904Y-126709619D01*
X83903523Y-126804857D01*
X83903523Y-127042952D01*
X83855904Y-127138190D01*
X83808285Y-127185809D01*
X83713047Y-127233428D01*
X83522571Y-127233428D01*
X83427333Y-127185809D01*
X83379714Y-127138190D01*
X83332095Y-127042952D01*
X90636857Y-107154380D02*
X90970190Y-106678190D01*
X91208285Y-107154380D02*
X91208285Y-106154380D01*
X90827333Y-106154380D01*
X90732095Y-106202000D01*
X90684476Y-106249619D01*
X90636857Y-106344857D01*
X90636857Y-106487714D01*
X90684476Y-106582952D01*
X90732095Y-106630571D01*
X90827333Y-106678190D01*
X91208285Y-106678190D01*
X89684476Y-107154380D02*
X90255904Y-107154380D01*
X89970190Y-107154380D02*
X89970190Y-106154380D01*
X90065428Y-106297238D01*
X90160666Y-106392476D01*
X90255904Y-106440095D01*
X89351142Y-106154380D02*
X88732095Y-106154380D01*
X89065428Y-106535333D01*
X88922571Y-106535333D01*
X88827333Y-106582952D01*
X88779714Y-106630571D01*
X88732095Y-106725809D01*
X88732095Y-106963904D01*
X88779714Y-107059142D01*
X88827333Y-107106761D01*
X88922571Y-107154380D01*
X89208285Y-107154380D01*
X89303523Y-107106761D01*
X89351142Y-107059142D01*
X113802380Y-126390142D02*
X113326190Y-126056809D01*
X113802380Y-125818714D02*
X112802380Y-125818714D01*
X112802380Y-126199666D01*
X112850000Y-126294904D01*
X112897619Y-126342523D01*
X112992857Y-126390142D01*
X113135714Y-126390142D01*
X113230952Y-126342523D01*
X113278571Y-126294904D01*
X113326190Y-126199666D01*
X113326190Y-125818714D01*
X113802380Y-127342523D02*
X113802380Y-126771095D01*
X113802380Y-127056809D02*
X112802380Y-127056809D01*
X112945238Y-126961571D01*
X113040476Y-126866333D01*
X113088095Y-126771095D01*
X112897619Y-127723476D02*
X112850000Y-127771095D01*
X112802380Y-127866333D01*
X112802380Y-128104428D01*
X112850000Y-128199666D01*
X112897619Y-128247285D01*
X112992857Y-128294904D01*
X113088095Y-128294904D01*
X113230952Y-128247285D01*
X113802380Y-127675857D01*
X113802380Y-128294904D01*
X112278380Y-120382142D02*
X111802190Y-120048809D01*
X112278380Y-119810714D02*
X111278380Y-119810714D01*
X111278380Y-120191666D01*
X111326000Y-120286904D01*
X111373619Y-120334523D01*
X111468857Y-120382142D01*
X111611714Y-120382142D01*
X111706952Y-120334523D01*
X111754571Y-120286904D01*
X111802190Y-120191666D01*
X111802190Y-119810714D01*
X112278380Y-121334523D02*
X112278380Y-120763095D01*
X112278380Y-121048809D02*
X111278380Y-121048809D01*
X111421238Y-120953571D01*
X111516476Y-120858333D01*
X111564095Y-120763095D01*
X112278380Y-122286904D02*
X112278380Y-121715476D01*
X112278380Y-122001190D02*
X111278380Y-122001190D01*
X111421238Y-121905952D01*
X111516476Y-121810714D01*
X111564095Y-121715476D01*
X118562380Y-125903333D02*
X118086190Y-125570000D01*
X118562380Y-125331904D02*
X117562380Y-125331904D01*
X117562380Y-125712857D01*
X117610000Y-125808095D01*
X117657619Y-125855714D01*
X117752857Y-125903333D01*
X117895714Y-125903333D01*
X117990952Y-125855714D01*
X118038571Y-125808095D01*
X118086190Y-125712857D01*
X118086190Y-125331904D01*
X118562380Y-126379523D02*
X118562380Y-126570000D01*
X118514761Y-126665238D01*
X118467142Y-126712857D01*
X118324285Y-126808095D01*
X118133809Y-126855714D01*
X117752857Y-126855714D01*
X117657619Y-126808095D01*
X117610000Y-126760476D01*
X117562380Y-126665238D01*
X117562380Y-126474761D01*
X117610000Y-126379523D01*
X117657619Y-126331904D01*
X117752857Y-126284285D01*
X117990952Y-126284285D01*
X118086190Y-126331904D01*
X118133809Y-126379523D01*
X118181428Y-126474761D01*
X118181428Y-126665238D01*
X118133809Y-126760476D01*
X118086190Y-126808095D01*
X117990952Y-126855714D01*
X121644666Y-120881380D02*
X121978000Y-120405190D01*
X122216095Y-120881380D02*
X122216095Y-119881380D01*
X121835142Y-119881380D01*
X121739904Y-119929000D01*
X121692285Y-119976619D01*
X121644666Y-120071857D01*
X121644666Y-120214714D01*
X121692285Y-120309952D01*
X121739904Y-120357571D01*
X121835142Y-120405190D01*
X122216095Y-120405190D01*
X121073238Y-120309952D02*
X121168476Y-120262333D01*
X121216095Y-120214714D01*
X121263714Y-120119476D01*
X121263714Y-120071857D01*
X121216095Y-119976619D01*
X121168476Y-119929000D01*
X121073238Y-119881380D01*
X120882761Y-119881380D01*
X120787523Y-119929000D01*
X120739904Y-119976619D01*
X120692285Y-120071857D01*
X120692285Y-120119476D01*
X120739904Y-120214714D01*
X120787523Y-120262333D01*
X120882761Y-120309952D01*
X121073238Y-120309952D01*
X121168476Y-120357571D01*
X121216095Y-120405190D01*
X121263714Y-120500428D01*
X121263714Y-120690904D01*
X121216095Y-120786142D01*
X121168476Y-120833761D01*
X121073238Y-120881380D01*
X120882761Y-120881380D01*
X120787523Y-120833761D01*
X120739904Y-120786142D01*
X120692285Y-120690904D01*
X120692285Y-120500428D01*
X120739904Y-120405190D01*
X120787523Y-120357571D01*
X120882761Y-120309952D01*
X113516666Y-115801380D02*
X113850000Y-115325190D01*
X114088095Y-115801380D02*
X114088095Y-114801380D01*
X113707142Y-114801380D01*
X113611904Y-114849000D01*
X113564285Y-114896619D01*
X113516666Y-114991857D01*
X113516666Y-115134714D01*
X113564285Y-115229952D01*
X113611904Y-115277571D01*
X113707142Y-115325190D01*
X114088095Y-115325190D01*
X112659523Y-114801380D02*
X112850000Y-114801380D01*
X112945238Y-114849000D01*
X112992857Y-114896619D01*
X113088095Y-115039476D01*
X113135714Y-115229952D01*
X113135714Y-115610904D01*
X113088095Y-115706142D01*
X113040476Y-115753761D01*
X112945238Y-115801380D01*
X112754761Y-115801380D01*
X112659523Y-115753761D01*
X112611904Y-115706142D01*
X112564285Y-115610904D01*
X112564285Y-115372809D01*
X112611904Y-115277571D01*
X112659523Y-115229952D01*
X112754761Y-115182333D01*
X112945238Y-115182333D01*
X113040476Y-115229952D01*
X113088095Y-115277571D01*
X113135714Y-115372809D01*
X120372380Y-123483333D02*
X119896190Y-123150000D01*
X120372380Y-122911904D02*
X119372380Y-122911904D01*
X119372380Y-123292857D01*
X119420000Y-123388095D01*
X119467619Y-123435714D01*
X119562857Y-123483333D01*
X119705714Y-123483333D01*
X119800952Y-123435714D01*
X119848571Y-123388095D01*
X119896190Y-123292857D01*
X119896190Y-122911904D01*
X119705714Y-124340476D02*
X120372380Y-124340476D01*
X119324761Y-124102380D02*
X120039047Y-123864285D01*
X120039047Y-124483333D01*
X120202380Y-126853333D02*
X119726190Y-126520000D01*
X120202380Y-126281904D02*
X119202380Y-126281904D01*
X119202380Y-126662857D01*
X119250000Y-126758095D01*
X119297619Y-126805714D01*
X119392857Y-126853333D01*
X119535714Y-126853333D01*
X119630952Y-126805714D01*
X119678571Y-126758095D01*
X119726190Y-126662857D01*
X119726190Y-126281904D01*
X119202380Y-127186666D02*
X119202380Y-127805714D01*
X119583333Y-127472380D01*
X119583333Y-127615238D01*
X119630952Y-127710476D01*
X119678571Y-127758095D01*
X119773809Y-127805714D01*
X120011904Y-127805714D01*
X120107142Y-127758095D01*
X120154761Y-127710476D01*
X120202380Y-127615238D01*
X120202380Y-127329523D01*
X120154761Y-127234285D01*
X120107142Y-127186666D01*
X120222380Y-130213333D02*
X119746190Y-129880000D01*
X120222380Y-129641904D02*
X119222380Y-129641904D01*
X119222380Y-130022857D01*
X119270000Y-130118095D01*
X119317619Y-130165714D01*
X119412857Y-130213333D01*
X119555714Y-130213333D01*
X119650952Y-130165714D01*
X119698571Y-130118095D01*
X119746190Y-130022857D01*
X119746190Y-129641904D01*
X119317619Y-130594285D02*
X119270000Y-130641904D01*
X119222380Y-130737142D01*
X119222380Y-130975238D01*
X119270000Y-131070476D01*
X119317619Y-131118095D01*
X119412857Y-131165714D01*
X119508095Y-131165714D01*
X119650952Y-131118095D01*
X120222380Y-130546666D01*
X120222380Y-131165714D01*
X106002380Y-133313333D02*
X105526190Y-132980000D01*
X106002380Y-132741904D02*
X105002380Y-132741904D01*
X105002380Y-133122857D01*
X105050000Y-133218095D01*
X105097619Y-133265714D01*
X105192857Y-133313333D01*
X105335714Y-133313333D01*
X105430952Y-133265714D01*
X105478571Y-133218095D01*
X105526190Y-133122857D01*
X105526190Y-132741904D01*
X106002380Y-134265714D02*
X106002380Y-133694285D01*
X106002380Y-133980000D02*
X105002380Y-133980000D01*
X105145238Y-133884761D01*
X105240476Y-133789523D01*
X105288095Y-133694285D01*
X90989238Y-126279619D02*
X91084476Y-126232000D01*
X91179714Y-126136761D01*
X91322571Y-125993904D01*
X91417809Y-125946285D01*
X91513047Y-125946285D01*
X91465428Y-126184380D02*
X91560666Y-126136761D01*
X91655904Y-126041523D01*
X91703523Y-125851047D01*
X91703523Y-125517714D01*
X91655904Y-125327238D01*
X91560666Y-125232000D01*
X91465428Y-125184380D01*
X91274952Y-125184380D01*
X91179714Y-125232000D01*
X91084476Y-125327238D01*
X91036857Y-125517714D01*
X91036857Y-125851047D01*
X91084476Y-126041523D01*
X91179714Y-126136761D01*
X91274952Y-126184380D01*
X91465428Y-126184380D01*
X90655904Y-125279619D02*
X90608285Y-125232000D01*
X90513047Y-125184380D01*
X90274952Y-125184380D01*
X90179714Y-125232000D01*
X90132095Y-125279619D01*
X90084476Y-125374857D01*
X90084476Y-125470095D01*
X90132095Y-125612952D01*
X90703523Y-126184380D01*
X90084476Y-126184380D01*
X107738095Y-119103380D02*
X107738095Y-118103380D01*
X107500000Y-118103380D01*
X107357142Y-118151000D01*
X107261904Y-118246238D01*
X107214285Y-118341476D01*
X107166666Y-118531952D01*
X107166666Y-118674809D01*
X107214285Y-118865285D01*
X107261904Y-118960523D01*
X107357142Y-119055761D01*
X107500000Y-119103380D01*
X107738095Y-119103380D01*
X106833333Y-118103380D02*
X106214285Y-118103380D01*
X106547619Y-118484333D01*
X106404761Y-118484333D01*
X106309523Y-118531952D01*
X106261904Y-118579571D01*
X106214285Y-118674809D01*
X106214285Y-118912904D01*
X106261904Y-119008142D01*
X106309523Y-119055761D01*
X106404761Y-119103380D01*
X106690476Y-119103380D01*
X106785714Y-119055761D01*
X106833333Y-119008142D01*
X118088666Y-117230142D02*
X118136285Y-117277761D01*
X118279142Y-117325380D01*
X118374380Y-117325380D01*
X118517238Y-117277761D01*
X118612476Y-117182523D01*
X118660095Y-117087285D01*
X118707714Y-116896809D01*
X118707714Y-116753952D01*
X118660095Y-116563476D01*
X118612476Y-116468238D01*
X118517238Y-116373000D01*
X118374380Y-116325380D01*
X118279142Y-116325380D01*
X118136285Y-116373000D01*
X118088666Y-116420619D01*
X117183904Y-116325380D02*
X117660095Y-116325380D01*
X117707714Y-116801571D01*
X117660095Y-116753952D01*
X117564857Y-116706333D01*
X117326761Y-116706333D01*
X117231523Y-116753952D01*
X117183904Y-116801571D01*
X117136285Y-116896809D01*
X117136285Y-117134904D01*
X117183904Y-117230142D01*
X117231523Y-117277761D01*
X117326761Y-117325380D01*
X117564857Y-117325380D01*
X117660095Y-117277761D01*
X117707714Y-117230142D01*
X119358666Y-119262142D02*
X119406285Y-119309761D01*
X119549142Y-119357380D01*
X119644380Y-119357380D01*
X119787238Y-119309761D01*
X119882476Y-119214523D01*
X119930095Y-119119285D01*
X119977714Y-118928809D01*
X119977714Y-118785952D01*
X119930095Y-118595476D01*
X119882476Y-118500238D01*
X119787238Y-118405000D01*
X119644380Y-118357380D01*
X119549142Y-118357380D01*
X119406285Y-118405000D01*
X119358666Y-118452619D01*
X119025333Y-118357380D02*
X118406285Y-118357380D01*
X118739619Y-118738333D01*
X118596761Y-118738333D01*
X118501523Y-118785952D01*
X118453904Y-118833571D01*
X118406285Y-118928809D01*
X118406285Y-119166904D01*
X118453904Y-119262142D01*
X118501523Y-119309761D01*
X118596761Y-119357380D01*
X118882476Y-119357380D01*
X118977714Y-119309761D01*
X119025333Y-119262142D01*
M02*
